<?xml version="1.0" standalone="no"?>
<!DOCTYPE svg PUBLIC "-//W3C//DTD SVG 1.1//EN" "http://www.w3.org/Graphics/SVG/1.1/DTD/svg11.dtd" >
<svg xmlns="http://www.w3.org/2000/svg" xmlns:xlink="http://www.w3.org/1999/xlink" version="1.1">
<metadata>
Created by FontForge 20170924 at Thu Apr 29 00:33:40 2021
 By www-data
Copyright (c) 2021, 4RM Font. All rights reserved
</metadata>
<defs>
<font id="Brink-Black" horiz-adv-x="835" >
  <font-face 
    font-family="Brink Black"
    font-weight="900"
    font-stretch="normal"
    units-per-em="1000"
    panose-1="2 0 10 3 0 0 0 0 0 0"
    ascent="800"
    descent="-200"
    x-height="614"
    cap-height="614"
    bbox="-206.784 -231.67 1443 842"
    underline-thickness="50"
    underline-position="-100"
    stemh="127"
    stemv="127"
    unicode-range="U+0020-2122"
  />
<missing-glyph horiz-adv-x="500" 
d="M50 0v533h400v-533h-400zM100 50h300v433h-300v-433z" />
    <glyph glyph-name=".notdef" horiz-adv-x="500" 
d="M50 0v533h400v-533h-400zM100 50h300v433h-300v-433z" />
    <glyph glyph-name="space" unicode=" " horiz-adv-x="360" 
 />
    <glyph glyph-name="exclam" unicode="!" horiz-adv-x="218" 
d="M173 136v-136h-128v136h128zM45 614h127v-290.146l-6.28223 -141.854h-114.436l-6.28223 141.854v290.146z" />
    <glyph glyph-name="quotedbl" unicode="&#x22;" horiz-adv-x="376" 
d="M204 614h127v-128.371l-9.7002 -105.629h-105.453l-11.8467 105.547v128.453zM45 614h127v-128.371l-9.7002 -105.629h-105.453l-11.8467 105.547v128.453z" />
    <glyph glyph-name="numbersign" unicode="#" horiz-adv-x="702" 
d="M426 262v58h-151v-58h151zM148 436v112h127v-112h151v112h127v-112h104.011v-116h-104.011v-58h104.011v-116h-104.011v-98h-127v98h-151v-98h-127v98h-103v116h103v58h-103v116h103z" />
    <glyph glyph-name="dollar" unicode="$" horiz-adv-x="802" 
d="M730 417.593h-127v53c0 11.9805 -12.1113 24.8613 -48.0098 24.8613l-96.9902 0.113281v-134.593c190.009 -19.8555 272 -58.0938 272 -156.382v-63c0 -59.8613 -17.957 -101.165 -55.2227 -125.256c-29.4834 -19.0596 -69.5645 -26.7441 -119.785 -26.7441
l-96.9922 0.0966797v-91.6895h-116v91.8662l-104 0.133789c-49.7441 0 -89.3779 7.31445 -118.537 26.1631c-36.8789 23.8389 -54.4629 65.0762 -54.4629 125.837v49h125v-49c0 -9.88281 2.91602 -15.626 8.73633 -19.4658
c4.91309 -3.24121 13.0703 -5.53418 25.2754 -5.53418l117.988 -0.169922v127.196c-179.921 17.5879 -277 57.543 -277 158.974v68c0 54.4316 17.3535 95.8682 51.2559 121.604c26.9834 20.4844 63.4424 30.3965 107.744 30.3965h118v88h116v-88h97
c54.499 0 95.1895 -9.1875 123.933 -29.4014c36.2744 -25.5107 51.0674 -67.2891 51.0674 -123.006v-53zM192 471v-66.9443c0.592773 -0.575195 2.2627 -1.96191 6.1709 -3.86816c5.92188 -2.88965 15.2568 -6.09473 27.0107 -9.19434
c28.0684 -7.40039 69.9072 -14.3848 116.818 -19.5186v124.296l-118.016 0.229492c-15.2471 0 -31.9844 -12.8154 -31.9844 -25zM603 141.593v61.8408c-2.82812 2.65137 -15.8652 8.50488 -37.2168 13.6035c-25.3379 6.05176 -61.9053 11.9414 -107.783 16.877v-117.236
l97.0068 -0.0849609c39.1357 0 47.9932 13.6885 47.9932 25z" />
    <glyph glyph-name="percent" unicode="%" horiz-adv-x="1063" 
d="M768 111h104c22.5957 0 34 12.8018 34 38.2207v34.4912c0 11.9424 -2.51074 20.6602 -6.6748 26.3623c-5.01172 6.86328 -13.124 10.9258 -27.3252 10.9258h-104c-14.2012 0 -22.3135 -4.0625 -27.3252 -10.9258c-4.16406 -5.70215 -6.6748 -14.4199 -6.6748 -26.3623
v-34.4912c0 -25.4189 11.4043 -38.2207 34 -38.2207zM768 333h104c53.3535 0 93.1143 -15.9648 117.539 -47.6641c19.4219 -25.2051 28.4609 -59.2686 28.4609 -100.77v-36.1328c0 -41.501 -9.03906 -75.5645 -28.4609 -100.77
c-24.4248 -31.6992 -64.1855 -47.6641 -117.539 -47.6641h-104c-53.3535 0 -93.1143 15.9648 -117.539 47.6641c-19.4219 25.2051 -28.4609 59.2686 -28.4609 100.77v36.1328c0 41.501 9.03906 75.5645 28.4609 100.77c24.4248 31.6992 64.1855 47.6641 117.539 47.6641z
M191 392h104c22.5957 0 34 12.8018 34 38.2207v34.4912c0 11.9424 -2.51074 20.6602 -6.6748 26.3623c-5.01172 6.86328 -13.124 10.9258 -27.3252 10.9258h-104c-14.2012 0 -22.3135 -4.0625 -27.3252 -10.9258c-4.16406 -5.70215 -6.6748 -14.4199 -6.6748 -26.3623
v-34.4912c0 -25.4189 11.4043 -38.2207 34 -38.2207zM191 614h104c53.3535 0 93.1143 -15.9648 117.539 -47.6641c19.4219 -25.2051 28.4609 -59.2686 28.4609 -100.77v-36.1328c0 -41.501 -9.03906 -75.5645 -28.4609 -100.77
c-24.4248 -31.6992 -64.1855 -47.6641 -117.539 -47.6641h-104c-53.3535 0 -93.1143 15.9648 -117.539 47.6641c-19.4219 25.2051 -28.4609 59.2686 -28.4609 100.77v36.1328c0 41.501 9.03906 75.5645 28.4609 100.77c24.4248 31.6992 64.1855 47.6641 117.539 47.6641z
M927.111 614l-620.766 -614h-164.457l620.766 614h164.457z" />
    <glyph glyph-name="ampersand" unicode="&#x26;" horiz-adv-x="858" 
d="M216 257c-25.5889 0 -44 -7.29883 -44 -34v-73c0 -4.35352 1.91895 -8.22656 6.19922 -12.0322c8.72559 -7.75586 26.5117 -12.9678 42.8008 -12.9678h259c31.501 0 58.8965 10.6934 70.0342 19.9521l-88.8975 112.048h-245.137zM211 487
c-27.3799 0 -39 -12.1045 -39 -21v-48c0 -25.2139 21.6426 -43.0615 55.2295 -45h247.771c25.9521 0 44 9.9873 44 29v64c0 9.14062 -13.1016 21 -33 21h-275zM812.836 1h-148.788l-36.6943 38.9844c-19.4609 -13.3701 -80.1748 -41.9844 -147.354 -41.9844h-259
c-48.2334 0 -88.1875 6.46094 -118.246 24.6572c-38.0576 23.0391 -57.7539 64.0908 -57.7539 127.343v73c0 52.9297 13.8018 82.6934 34.54 101.05c-13.4238 15.8594 -34.54 44.5605 -34.54 93.9502v48c0 55.3506 20.5176 95.6035 56.5498 119.866
c28.6328 19.2803 66.1543 28.1338 109.451 28.1338l274.999 -0.0253906c45.9766 0 82.8027 -9.65625 109.72 -29.6484c33.8535 -25.1445 50.2803 -65.6045 50.2803 -118.326v-64c0 -65.2812 -26.9248 -100.282 -52.6523 -114.933l37.8613 -49.2197
c11.0039 13.3848 22.0088 26.7686 33.0137 40.1523h145.608l-103.895 -140.999z" />
    <glyph glyph-name="quotesingle" unicode="'" horiz-adv-x="217" 
d="M45 614h127v-128.371l-9.7002 -105.629h-105.453l-11.8467 105.547v128.453z" />
    <glyph glyph-name="parenleft" unicode="(" horiz-adv-x="390" 
d="M189.733 490.618c-12.1318 -9.0332 -17.7334 -19.2432 -17.7334 -31.3975v-317.405c0 -12.1475 5.5791 -22.2266 17.6895 -31.1152c24.5879 -18.0498 75.9033 -28.7002 147.311 -28.7002h8v-120h-8c-170.948 0 -292 39.3154 -292 177.798v321.404
c0 138.482 121.052 177.798 292 177.798h8v-119h-8c-71.3721 0 -122.656 -11.0586 -147.267 -29.3818z" />
    <glyph glyph-name="parenright" unicode=")" horiz-adv-x="390" 
d="M218 141.815v317.405c0 12.1543 -5.60156 22.3643 -17.7334 31.3975c-24.6104 18.3232 -75.8945 29.3818 -147.267 29.3818h-8v119h8c170.948 0 292 -39.3154 292 -177.798v-321.404c0 -138.482 -121.052 -177.798 -292 -177.798h-8v120h8
c71.4072 0 122.723 10.6504 147.311 28.7002c12.1104 8.88867 17.6895 18.9678 17.6895 31.1152z" />
    <glyph glyph-name="asterisk" unicode="*" horiz-adv-x="434" 
d="M271.286 348.372l-10.2861 -76.3721h-81.9541l-11.9893 78.3447l-75.4502 -34.6602l-45.8271 64.9033l74.2852 62.4121l-74.2852 62.4121l45.8271 64.9033l75.4502 -34.6592l11.9893 78.3438h81.9541l10.2861 -76.3721l71.2871 34.2051l45.8262 -64.9033
l-73.4971 -63.9297l73.4971 -63.9297l-45.8262 -64.9033z" />
    <glyph glyph-name="plus" unicode="+" horiz-adv-x="497" 
d="M180 71v150h-135v127h135v149h127v-149h145v-127h-145v-150h-127z" />
    <glyph glyph-name="comma" unicode="," horiz-adv-x="410" 
d="M202.948 83h161.605l-186.91 -199h-132.434z" />
    <glyph glyph-name="hyphen" unicode="-" horiz-adv-x="470" 
d="M45 221v127h380v-127h-380z" />
    <glyph glyph-name="period" unicode="." horiz-adv-x="218" 
d="M173 136v-136h-128v136h128z" />
    <glyph glyph-name="slash" unicode="/" horiz-adv-x="974" 
d="M928.727 614l-694.642 -614h-188.264l695.095 614h187.811z" />
    <glyph glyph-name="zero" unicode="0" horiz-adv-x="786" 
d="M191 153.73c0 -19.2949 11.1748 -28.7305 32 -28.7305h340c20.6328 0 32 10.3555 32 28.7305v304.539c0 18.375 -11.3672 28.7305 -32 28.7305h-340c-20.6328 0 -32 -10.3555 -32 -28.7305v-304.539zM563 -2h-340c-42.5645 0 -78.5938 6.75195 -105.814 25.3818
c-34.3506 23.5098 -52.1855 64.6055 -52.1855 127.644v309.949c0 63.0381 17.835 104.134 52.1855 127.644c27.2207 18.6299 63.25 25.3818 105.814 25.3818h340c42.5645 0 78.5938 -6.75195 105.814 -25.3818c34.3506 -23.5098 52.1855 -64.6055 52.1855 -127.644v-309.949
c0 -63.0381 -17.835 -104.134 -52.1855 -127.644c-27.2207 -18.6299 -63.25 -25.3818 -105.814 -25.3818z" />
    <glyph glyph-name="one" unicode="1" horiz-adv-x="342" 
d="M158 606l-0.000976562 7.99902h127v-614h-127v435.502h-101v106.886l6.59668 1.13965s30.0234 5.19238 56.6475 18.4736c21.5742 10.7617 37.7568 25.4014 37.7568 44z" />
    <glyph glyph-name="two" unicode="2" horiz-adv-x="737" 
d="M192 467v-75h-127v75c0 53.2119 16.957 93.2412 49.5254 117.967c25.916 19.6738 60.71 29.0332 102.475 29.0332h307c62.1758 0 101.648 -14.6777 123.819 -45.5117c17.5244 -24.3721 23.1807 -57.0186 23.1807 -96.8125v-74.5508
c0 -132.22 -121.504 -166.129 -212.955 -189.51c-52.9395 -13.5342 -133.825 -26.7549 -180.422 -42.4287c-38.0576 -12.8018 -55.2969 -26.626 -65.3779 -38.1865h459.755v-127h-607v114.371c0 4.72656 1.62793 93.5381 106.161 132.015
c40.9023 15.0557 105.143 29.5205 157.651 41.3916c29.5312 6.67578 52.625 11.9678 70.5498 16.9229c38.4639 10.6309 80.1172 22.3027 108.56 39.0215c22.8809 13.4502 36.0781 29.0742 36.0781 49.3643v74.5498c0 9.1543 -7.02344 19.3643 -20 19.3643h-307
c-9.32129 0 -25 -9.02051 -25 -20z" />
    <glyph glyph-name="three" unicode="3" horiz-adv-x="770" 
d="M713 228.01l0.00195312 -90.6514c0 -98.8516 -50.1699 -140.359 -161 -140.359h-362c-35.9639 0 -66.499 6.14062 -89.5146 23.7402c-29.002 22.1777 -43.4854 60.7549 -43.4854 120.26v75h127v-75c0 -11.1123 7.2002 -17 16 -17h352c27.4365 0 34 6.46387 34 15.9287
v87.1416c0 0.603516 -0.591797 2.76074 -3.03809 5.32129c-4.83301 5.05859 -15.5234 10.6084 -30.9629 10.6084h-321v127h321c12.0342 0 20.3604 1.97656 25.4268 4.74902c6.00781 3.28711 8.57324 7.69531 8.57324 14.9082v82.3682
c0 4.60156 -7.04688 14.9756 -34 14.9756h-352c-8.57812 0 -16 -7.80469 -16 -16v-75h-127v75c0 42.5654 6.70312 75.6396 23.627 99.6133c21.4062 30.3232 57.665 43.3877 109.372 43.3877h362c44.9805 0 81.7715 -8.3916 109.072 -26.7148
c34.3994 -23.0869 51.9277 -61.1475 51.9277 -112.671v-85.7754c0 -40.9189 -9.29199 -66.7588 -33.001 -80.6016c24.8379 -15.6787 33.001 -38.6055 33.001 -80.2285z" />
    <glyph glyph-name="four" unicode="4" horiz-adv-x="827" 
d="M255.592 242h283.408v214.896zM57 235.939l487.228 378.061h121.772v-372h104v-127h-104v-115h-127v115h-482v120.939z" />
    <glyph glyph-name="five" unicode="5" horiz-adv-x="712" 
d="M654 249.201c0 -55.3555 1.00098 -38.999 1.00098 -90.2764c0 -108.552 -57.3105 -161.28 -162.011 -161.28l-272.989 0.356445c-42.1836 0 -78.8311 8.99414 -106.798 28.3818c-35.1777 24.3867 -55.2031 64.6299 -55.2031 119.618v37h128v-37
c0 -11.0977 14.8633 -21 34.002 -21l272.998 -0.0644531c22.1123 0 35 14.8867 35 35.3506v87.7471c0 19.2295 -15.748 41.9658 -36 41.9658h-259c-20.9766 0 -48 -24.792 -48 -48v-8h-128.021l1.04297 380h596.979v-116h-470v-99.416
c11.7129 8.50293 30.0693 18.416 52 18.416h255c65.9766 0 109.567 -19.627 134.61 -56.1074c19.8496 -28.9141 27.3896 -67.0186 27.3896 -111.691z" />
    <glyph glyph-name="six" unicode="6" horiz-adv-x="765" 
d="M220 -2c-99.1094 0 -163.001 40.4189 -163.001 142.3c0 24.5146 0.214844 49.2764 0.214844 73.8848c0 12.3896 -0.214844 24.7822 -0.214844 37.2305v216.38c0 50.5146 15.1963 90.6318 49.2129 115.973c27.0596 20.1582 64.8643 30.2305 113.787 30.2305h317
c52.7227 0 91.0527 -8.05371 117.786 -26.793c33.8193 -23.7061 46.2139 -62.9697 46.2139 -116.207v-41h-127v41c0 5.7168 -6.57129 16 -37 16h-317c-23.5186 0 -36 -13.2451 -36 -21.1221v-80.7969c9.07129 5.92871 22.1562 11.9199 38 11.9199h315
c52.3838 0 90.7559 -8.78906 117.524 -28.0938c33.7754 -24.3574 46.4766 -63.9131 46.4766 -116.017v-111.759c0 -100.575 -51.2568 -143.13 -164 -143.13h-317zM183.999 251.508l0.000976562 -108.438c0 -10.2354 12.3408 -18.0732 36 -18.0732h317
c25.2598 0 37 6.70703 37 18.0732v108.439c0 16.1621 -13.3818 29.4873 -37 29.4873h-317c-20.7324 0 -36.001 -12.4316 -36.001 -29.4883z" />
    <glyph glyph-name="seven" unicode="7" horiz-adv-x="771" 
d="M57 487v127h657v-118.283l-329.652 -495.717h-150.225l323.326 487h-500.449z" />
    <glyph glyph-name="eight" unicode="8" horiz-adv-x="768" 
d="M215 125h338c13.7969 0 24 8.92285 24 18.8574v92.3994c0 11.1084 -11.7471 20.7432 -24 20.7432h-338c-12.2529 0 -24 -9.63477 -24 -20.7432v-92.3994c0 -9.93457 10.2031 -18.8574 24 -18.8574zM215 384h338c14.7373 0 24 6.4502 24 13.9189v74.2344
c0 7.59668 -10.6318 14.8467 -24 14.8467h-338c-12.4326 0 -24 -7.44043 -24 -14.8467v-74.2344c0 -7.46875 9.2627 -13.9189 24 -13.9189zM655.092 23.249c-25.5469 -18.0703 -59.9883 -25.249 -102.092 -25.249h-338c-42.1035 0 -76.5449 7.17871 -102.092 25.249
c-32.2197 22.791 -47.9082 61.5361 -47.9082 118.029v95.5195c0 45.3838 11.4648 74.0664 29.3828 88.3701c-16.1113 14.6367 -29.3828 39.9404 -29.3828 71.4775v77.9746c0 48.5703 13.0898 86.7803 44.2871 110.88c24.8164 19.1689 59.8037 28.5 105.713 28.5h338
c45.9092 0 80.8965 -9.33105 105.713 -28.5c31.1973 -24.0996 44.2871 -62.3096 44.2871 -110.88v-77.9746c0 -31.5371 -13.2715 -56.8408 -29.3828 -71.4775c17.918 -14.3037 29.3828 -42.9863 29.3828 -88.3701v-95.5195c0 -56.4932 -15.6885 -95.2383 -47.9082 -118.029z
M695 399z" />
    <glyph glyph-name="nine" unicode="9" horiz-adv-x="781" 
d="M559 340c10.5703 0 30.751 9.26465 30.751 19.916c0 58.4287 0.249023 30.6143 0.249023 110.013c0 6.91602 -9.75977 17.0713 -31 17.0713h-348c-8.29297 0 -20 -9.04395 -20 -17.0713v-110.013c0 -13.4688 10.6426 -19.916 20 -19.916h348zM555 223h-347
c-91.9326 0 -143 49.8857 -143 142.093v108.774c0 55.2695 16.0049 93.1689 47.5684 115.438c25.0273 17.6562 58.4199 24.6953 98.4316 24.6953h348c47.3379 0 83.7832 -10.0137 109.803 -29.5088c32.7002 -24.501 47.1973 -62.8652 47.1973 -109.859v-332.34
c0 -59.5605 -19.0059 -97.8887 -53.8564 -119.386c-27.5459 -16.9902 -63.4863 -22.9062 -105.144 -22.9062h-347c-40.6914 0 -73.9717 7.34668 -98.6582 25.2197c-31.1357 22.543 -46.3418 60.5254 -46.3418 114.78v60h126v-56c0 -10.3369 9.73633 -17 20 -17h348
c20.6162 0 31 9.71191 31 21.2305v86.2715c-8.19824 -6.00781 -19.8398 -11.502 -35 -11.502z" />
    <glyph glyph-name="colon" unicode=":" horiz-adv-x="218" 
d="M173 227v-136h-128v136h128zM173 494v-136h-128v136h128z" />
    <glyph glyph-name="semicolon" unicode=";" horiz-adv-x="410" 
d="M203.395 227h161.605l-186.91 -215h-132.434zM348 494v-136h-128v136h128z" />
    <glyph glyph-name="less" unicode="&#x3c;" horiz-adv-x="771" 
d="M726 185.392v-130.392l-680.605 246l680.605 246v-118.392l-390.183 -127.608z" />
    <glyph glyph-name="equal" unicode="=" horiz-adv-x="547" 
d="M45 112v127h457v-127h-457zM45 278v127h457v-127h-457z" />
    <glyph glyph-name="greater" unicode="&#x3e;" horiz-adv-x="771" 
d="M45 185.392v-130.392l680.605 246l-680.605 246v-118.392l390.183 -127.608z" />
    <glyph glyph-name="question" unicode="?" horiz-adv-x="709" 
d="M279 136h128v-136h-128v136zM537 458c0 16.416 -9.36621 29 -31 29c-49.7412 0 -227.781 2 -308 2c-12.542 0 -26 -14.5537 -26 -26v-62h-127v62c0 99.2861 53.3955 153 151 153c50.5557 0 264.03 -2 310 -2c60.3145 0 103.013 -17.2061 128.705 -50.7373
c20.4336 -26.6689 29.2949 -62.4297 29.2949 -105.263v-75c0 -76.0488 -83.6016 -107.351 -166.464 -139.983c-22.0889 -8.69922 -44.5869 -17.5635 -66.2598 -27.3164c-14.7412 -6.63281 -24.2764 -13.5146 -24.2764 -25.7002v-8h-128v8
c0 23.8018 1.83105 59.7188 49.6572 90.7178c48.9795 31.7471 99.9561 50.1992 139.515 64.5547c24.1963 8.78027 44.1641 16.1455 56.1582 23.3682c9.9375 5.98438 12.6699 10.6836 12.6699 14.3594v75z" />
    <glyph glyph-name="at" unicode="@" horiz-adv-x="995" 
d="M162 321.683v-210.287c0 -90.0088 99.4287 -158.396 180 -158.396h311v-117h-314c-158.533 0 -293.999 102.972 -293.999 274.402v212.075c0 154.75 111.507 297.923 269.999 297.923h388c153.318 0 247 -98.7139 247 -252.802v-198.885
c0 -100.336 -54.3916 -180.714 -155 -180.714c-49.498 0 -98.1758 32.6289 -114.93 45.0615c-12.2627 -12.9678 -45.5146 -42.0615 -97.0703 -42.0615h-206c-93.2041 0 -157 60.6211 -157 165v145c0 96.8115 74.3848 167 157 167h204
c28.1035 0 48.5117 -12.3691 61 -23.2041v21.6045h117v-292.4c0.000976562 -50.3506 29.4248 -59 36 -59c14.1182 0 38 18.6152 38 54.8701v197.336c0 88.6719 -57.0986 136.194 -130 136.194h-388c-70.1963 0 -153 -85.4893 -153 -181.718zM642 156v146.4
c0 4.41504 -4.56738 13.0596 -14.2559 21.0566c-11.8545 9.78516 -29.4678 17.543 -46.7441 17.543h-204c-13.0049 0 -30 -9.99414 -30 -40v-145c0 -23.624 14.2695 -41 30 -41h206c34.9756 0 59 17.4092 59 41z" />
    <glyph glyph-name="A" unicode="A" horiz-adv-x="900" 
d="M303.075 221h296.614l-145.89 245.046zM240 101l-74 -101h-151.264l372.612 614h139.062l359.12 -614h-157.241l-67 101h-421.29z" />
    <glyph glyph-name="B" unicode="B" horiz-adv-x="792" 
d="M192 252v-125h334c26.9834 0 48.2588 1.27051 60.46 4.84473c10.0254 2.93652 11.6582 5.94043 11.6582 9.25293l-0.118164 86.4561c0 3.53418 -0.939453 6.125 -2.88867 8.51758c-3.06152 3.75977 -9.72266 7.67871 -21.5996 10.5518
c-14.7061 3.55762 -36.4805 5.37695 -65.5117 5.37695h-316zM570.844 388.737c0.960938 1.1377 1.4209 2.26855 1.4209 4.22852c0 30.1709 0.735352 33.0996 0.735352 73.5518c0 13.0459 -15.1025 20.4824 -65 20.4824h-316v-108h316
c22.1631 0 38.2588 1.2041 48.708 3.50977c8.49219 1.87305 12.5986 4.40723 14.1357 6.22754zM670.851 317.421c42.9033 -16.9004 55.1494 -53.084 55.1494 -89.3633c0 -35.0332 0.474609 -57.8105 0.474609 -89.6641c0 -58.6641 -16.8457 -96.5518 -58.5898 -117.084
c-32.71 -16.0889 -78.8271 -21.3096 -141.885 -21.3096h-461v614h443c60.9775 0 105.622 -6.78418 137.129 -24.6504c40.0391 -22.7051 55.8711 -62.4746 55.8711 -120.565c0 -48.4609 -1 -34.2451 -1 -76.9941c0 -34.3809 -10.3311 -60.5234 -29.1494 -74.3691z" />
    <glyph glyph-name="C" unicode="C" horiz-adv-x="836" 
d="M65 156.836v299.252c0 112.114 55.4141 157.912 161 157.912h379c42.4961 0 79.9424 -5.66895 108.915 -24.041c36.6572 -23.2451 57.085 -65.7256 57.085 -134.959v-104h-127v104c0 9.14258 -1.57617 16.627 -4.71582 21.6729
c-3.68848 5.92969 -10.0762 10.3271 -24.2842 10.3271h-389c-10.2324 0 -17.96 -2.01172 -23.1768 -5.70215c-6.28906 -4.44922 -10.8232 -12.4121 -10.8232 -27.8242v-294.073c0 -12.9209 2.16016 -21.8672 5.32715 -27.292
c3.7334 -6.39551 8.79492 -9.1084 17.6729 -9.1084h400c21.5117 0 29 12.4004 29 27v108h127v-108c0 -66.2314 -17.4902 -107.593 -53.2207 -130.398c-28.1904 -17.9932 -65.8398 -23.6016 -111.779 -23.6016h-391c-40.7988 0 -75.2568 6.56055 -101.134 25.9434
c-32.5781 24.4014 -48.8662 67.2588 -48.8662 134.893z" />
    <glyph glyph-name="D" unicode="D" horiz-adv-x="856" 
d="M192 487v-360h434c4.11035 0 8.85645 2.07422 13.6699 6.89062c9.66211 9.66699 17.3301 28.8135 17.3301 47.6836v261.383c0 25.3096 -30.5039 44.043 -44 44.043h-421zM65 614h532c113.64 0 187 -54.5859 187 -168.606v-266.066
c0 -48.5898 -9.39258 -89.4131 -31.1064 -120.075c-27.3379 -38.6025 -73.3213 -59.252 -138.894 -59.252h-549v614z" />
    <glyph glyph-name="E" unicode="E" horiz-adv-x="832" 
d="M65 0v614h678v-127h-551v-105h512v-127h-512v-128h575v-127h-702z" />
    <glyph glyph-name="F" unicode="F" horiz-adv-x="764" 
d="M65 0v614h634v-127h-507v-158h475v-127h-475v-202h-127z" />
    <glyph glyph-name="G" unicode="G" horiz-adv-x="839" 
d="M65 156.836v299.252c0 112.114 55.4141 157.912 161 157.912h382c42.4961 0 79.9424 -5.66895 108.915 -24.041c36.6572 -23.2451 57.085 -65.7256 57.085 -134.959v-83h-127v83c0 9.14258 -1.57617 16.627 -4.71582 21.6729
c-3.68848 5.92969 -10.0762 10.3271 -24.2842 10.3271h-392c-10.2324 0 -17.96 -2.01172 -23.1768 -5.70215c-6.28906 -4.44922 -10.8232 -12.4121 -10.8232 -27.8242v-294.073c0 -12.9209 2.16016 -21.8672 5.32715 -27.292
c3.7334 -6.39551 8.79492 -9.1084 17.6729 -9.1084h403c21.5117 0 29 11.2197 29 24.4287v51.5713h-265v116h392v-168.768c0 -64.6113 -17.4902 -104.96 -53.2207 -127.208c-28.1904 -17.5527 -65.8398 -23.0244 -111.779 -23.0244h-394
c-40.7988 0 -75.2568 6.56055 -101.134 25.9434c-32.5781 24.4014 -48.8662 67.2588 -48.8662 134.893z" />
    <glyph glyph-name="H" unicode="H" horiz-adv-x="875" 
d="M65 0v614h127v-256h491v256h127v-614h-127v231h-491v-231h-127z" />
    <glyph glyph-name="I" unicode="I" horiz-adv-x="257" 
d="M65 0v614h127v-614h-127z" />
    <glyph glyph-name="J" unicode="J" horiz-adv-x="802" 
d="M568 -2h-345c-102.976 0 -158 59.7441 -158 159v118h127v-118c0 -16.2168 8.7334 -32 31 -32h361c3.2207 0 7.12695 1.47754 11.1113 4.97949c8.00391 7.03516 14.8887 21.3877 14.8887 37.626v446.395h127v-449.329c0 -67.2354 -17.667 -111.998 -53.876 -138.056
c-28.7451 -20.6875 -67.5908 -28.6152 -115.124 -28.6152z" />
    <glyph glyph-name="K" unicode="K" horiz-adv-x="935" 
d="M372.1 236h-169.1v-236h-138v614h138v-251h168.966l292 251h204.516l-371.114 -312.731l371.765 -301.269h-205.032z" />
    <glyph glyph-name="L" unicode="L" horiz-adv-x="752" 
d="M65 0v614h127v-498h495v-116h-622z" />
    <glyph glyph-name="M" unicode="M" horiz-adv-x="914" 
d="M702.442 614h146.558v-614h-138v368.934l-189.425 -313.934h-123.415l-195.16 315.074v-370.074h-138v614h146.483l249.407 -399.496z" />
    <glyph glyph-name="N" unicode="N" horiz-adv-x="857" 
d="M654 155.083v458.917h138v-614h-158.26l-430.74 421.232v-421.232h-138v614h122.272z" />
    <glyph glyph-name="O" unicode="O" 
d="M211.071 139.148c8.9375 -8.35156 19.2363 -13.1484 26.9287 -13.1484h359c7.69238 0 17.9912 4.79688 26.9287 13.1484c11.1494 10.4209 19.0713 25.2227 19.0713 37.6025v259.498c0 12.3799 -7.92188 27.1816 -19.0713 37.6025
c-8.9375 8.35156 -19.2363 13.1484 -26.9287 13.1484h-359c-7.69238 0 -17.9912 -4.79688 -26.9287 -13.1484c-11.1494 -10.4209 -19.0713 -25.2227 -19.0713 -37.6025v-259.498c0 -12.3799 7.92188 -27.1816 19.0713 -37.6025zM597 -1h-359
c-89.8408 0 -173 60.873 -173 175.436v264.129c0 114.562 83.1592 175.436 173 175.436h359c89.8408 0 173 -60.873 173 -175.436v-264.129c0 -114.562 -83.1592 -175.436 -173 -175.436zM762 142z" />
    <glyph glyph-name="P" unicode="P" horiz-adv-x="740" 
d="M192 487v-181h317c22.0576 0 39 14.1504 39 37.3496v106.301c0 20.627 -16.7793 37.3496 -32 37.3496h-324zM192 -0.0722656l-127 1.14355v612.929h444c46.0762 0 84.168 -9.49512 112.42 -30.7627c35.5088 -26.7295 53.5801 -70.8271 53.5801 -132.239v-108.996
c0 -65.1084 -15.4209 -109.107 -51.6025 -134.817c-28.6719 -20.373 -68.5664 -28.1846 -120.397 -28.1846h-311v-179.072z" />
    <glyph glyph-name="Q" unicode="Q" 
d="M751.715 90.0234l143.492 -90.0234h-192.559c-8.69238 5.5957 -17.3857 11.1914 -26.0781 16.7871c-24.3955 -11.8389 -51.6582 -17.7871 -79.5703 -17.7871h-359c-89.8408 0 -173 60.873 -173 175.436v264.129c0 114.562 83.1592 175.436 173 175.436h359
c89.8408 0 173 -60.8711 173 -175.429v-264.117c0 -32.374 -6.61426 -60.6104 -18.2852 -84.4307zM506.912 126l-76.1191 46.9209h192.559c5.58887 -3.44531 11.1787 -6.89062 16.7676 -10.3359c1.86719 4.85156 2.88086 9.69141 2.88086 14.166v259.498
c0 12.3799 -7.92188 27.1816 -19.0713 37.6025c-8.9375 8.35156 -19.2363 13.1484 -26.9287 13.1484h-359c-7.69238 0 -17.9912 -4.79688 -26.9287 -13.1484c-11.1494 -10.4209 -19.0713 -25.2227 -19.0713 -37.6025v-259.498c0 -12.3799 7.92188 -27.1816 19.0713 -37.6025
c8.9375 -8.35156 19.2363 -13.1484 26.9287 -13.1484h268.912z" />
    <glyph glyph-name="R" unicode="R" horiz-adv-x="759" 
d="M192 487v-159h319c22.0576 0 39 14.0684 39 37.1318v84.7363c0 20.5068 -16.7793 37.1318 -32 37.1318h-326zM687 134.495c0 -26.375 -0.231445 -17.0635 -0.231445 -36.9844c0 -6.2334 0.261719 -44.4131 0.261719 -69.2627
c0 -17.877 -0.0234375 -18.085 -0.0527344 -28.248h-136.978v132.718c0 19.7021 -9.77832 44.6963 -23.6045 58.125c-6.87988 6.68164 -14.1914 10.1572 -21.3955 10.1572h-313v-201.072l-127 1.14355v612.929h446c46.0762 0 84.168 -9.42383 112.42 -30.5332
c35.5088 -26.5293 53.5801 -70.2969 53.5801 -131.251v-86.7393c0 -46.7773 -7.95117 -82.4043 -26.1934 -108.37c19.7598 -16.4404 36.1934 -55.3584 36.1934 -122.611z" />
    <glyph glyph-name="S" unicode="S" horiz-adv-x="802" 
d="M730 408.593h-127v53c0 11.9805 -12.1152 24.8613 -48.0137 24.8613l-330.986 0.545898c-15.2471 0 -32 -12.8154 -32 -25v-59l0.582031 0.552734c5.52637 -4.56738 26.8486 -12.0039 56.7373 -18.1455c37.3174 -7.66699 87.9785 -14.3721 141.295 -18.4307
c239.054 -18.1953 339.386 -53.248 339.386 -162.384v-54c0 -59.8613 -17.9561 -101.165 -55.2227 -125.256c-29.4834 -19.0596 -69.5674 -26.7441 -119.788 -26.7441l-316.989 0.407227c-49.7441 0 -89.3779 7.31445 -118.537 26.1631
c-36.8799 23.8389 -54.4629 65.0771 -54.4629 125.837v49h125v-49c0 -9.88184 2.91504 -15.625 8.73633 -19.4658c4.91309 -3.24121 13.0693 -5.53418 25.2734 -5.53418l330.99 -0.407227c39.1348 0 48 13.6885 48 25l-0.264648 53.082
c-4.48828 3.8877 -23.4092 10.9414 -53.4189 16.9561c-37.4238 7.49902 -91.9199 14.4531 -159.903 19.3906c-210.925 15.3203 -324.413 53.0723 -324.413 162.979v59c0 54.4316 17.3545 95.8682 51.2559 121.604c26.9834 20.4844 63.4424 30.3965 107.744 30.3965h331
c54.499 0 95.1895 -9.1875 123.933 -29.4023c36.2744 -25.5107 51.0674 -67.2881 51.0674 -123.005v-53z" />
    <glyph glyph-name="T" unicode="T" horiz-adv-x="801" 
d="M65 498v116h671v-116h-277v-498h-127v498h-267z" />
    <glyph glyph-name="U" unicode="U" horiz-adv-x="838" 
d="M773 614v-446.387c0 -105.379 -59.3779 -168.613 -165 -168.613h-378c-105.581 0 -165 63.25 -165 168.613v446.387h127v-443.46c0 -26.7314 7.85059 -44.54 29 -44.54h396c21.1494 0 29 17.8086 29 44.54v443.46h127z" />
    <glyph glyph-name="V" unicode="V" 
d="M679.323 614h140.889l-319.104 -614h-171.861l-315 614h139.754l266.099 -484.775z" />
    <glyph glyph-name="W" unicode="W" horiz-adv-x="997" 
d="M431.344 614h134.009l119.976 -413.994l158.369 413.994h139.156l-238.046 -614h-132.526l-114.849 384.401l-143.562 -384.401h-128.35l-211.368 614h139.847l146.829 -413.93z" />
    <glyph glyph-name="X" unicode="X" horiz-adv-x="859" 
d="M844.558 0h-189.138l-225.82 210.918l-230.752 -210.918h-184.229l325.543 301.112l-324.988 312.888h182.827l231.671 -226.628l232.657 226.628h181.951l-325.123 -309.943z" />
    <glyph glyph-name="Y" unicode="Y" horiz-adv-x="844" 
d="M14.2207 614h179.387l229.467 -251.984l234.369 251.984h172.24l-337.623 -376.016l-0.0507812 -237.984h-138.002l0.0527344 236.978z" />
    <glyph glyph-name="Z" unicode="Z" horiz-adv-x="785" 
d="M57 614h671v-122.829l-472.305 -364.171h472.305v-127h-671v122.844l475.195 364.156h-475.195v127z" />
    <glyph glyph-name="bracketleft" unicode="[" horiz-adv-x="433" 
d="M45 639h343v-127.091h-216v-422.842h216v-127.067h-343v677z" />
    <glyph glyph-name="backslash" unicode="\" horiz-adv-x="974" 
d="M45.2734 614h187.811l695.095 -614h-188.264z" />
    <glyph glyph-name="bracketright" unicode="]" horiz-adv-x="433" 
d="M45 513v126h343v-677h-343v127h216v424h-216z" />
    <glyph glyph-name="asciicircum" unicode="^" horiz-adv-x="579" 
d="M209.859 401h-164.907l190.296 213h127.762l170.944 -213h-166.202l-72.207 54.2812z" />
    <glyph glyph-name="underscore" unicode="_" horiz-adv-x="499" 
d="M45 99h409v-99h-409v99z" />
    <glyph glyph-name="grave" unicode="`" horiz-adv-x="516" 
d="M289.514 463h180.54l-223.5 151h-201.554z" />
    <glyph glyph-name="a" unicode="a" horiz-adv-x="900" 
d="M303.075 221h296.614l-145.89 245.046zM240 101l-74 -101h-151.264l372.612 614h139.062l359.12 -614h-157.241l-67 101h-421.29z" />
    <glyph glyph-name="b" unicode="b" horiz-adv-x="792" 
d="M192 252v-125h334c26.9834 0 48.2588 1.27051 60.46 4.84473c10.0254 2.93652 11.6582 5.94043 11.6582 9.25293l-0.118164 86.4561c0 3.53418 -0.939453 6.125 -2.88867 8.51758c-3.06152 3.75977 -9.72266 7.67871 -21.5996 10.5518
c-14.7061 3.55762 -36.4805 5.37695 -65.5117 5.37695h-316zM570.844 388.737c0.960938 1.1377 1.4209 2.26855 1.4209 4.22852c0 30.1709 0.735352 33.0996 0.735352 73.5518c0 13.0459 -15.1025 20.4824 -65 20.4824h-316v-108h316
c22.1631 0 38.2588 1.2041 48.708 3.50977c8.49219 1.87305 12.5986 4.40723 14.1357 6.22754zM670.851 317.421c42.9033 -16.9004 55.1494 -53.084 55.1494 -89.3633c0 -35.0332 0.474609 -57.8105 0.474609 -89.6641c0 -58.6641 -16.8457 -96.5518 -58.5898 -117.084
c-32.71 -16.0889 -78.8271 -21.3096 -141.885 -21.3096h-461v614h443c60.9775 0 105.622 -6.78418 137.129 -24.6504c40.0391 -22.7051 55.8711 -62.4746 55.8711 -120.565c0 -48.4609 -1 -34.2451 -1 -76.9941c0 -34.3809 -10.3311 -60.5234 -29.1494 -74.3691z" />
    <glyph glyph-name="c" unicode="c" horiz-adv-x="836" 
d="M65 156.836v299.252c0 112.114 55.4141 157.912 161 157.912h379c42.4961 0 79.9424 -5.66895 108.915 -24.041c36.6572 -23.2451 57.085 -65.7256 57.085 -134.959v-104h-127v104c0 9.14258 -1.57617 16.627 -4.71582 21.6729
c-3.68848 5.92969 -10.0762 10.3271 -24.2842 10.3271h-389c-10.2324 0 -17.96 -2.01172 -23.1768 -5.70215c-6.28906 -4.44922 -10.8232 -12.4121 -10.8232 -27.8242v-294.073c0 -12.9209 2.16016 -21.8672 5.32715 -27.292
c3.7334 -6.39551 8.79492 -9.1084 17.6729 -9.1084h400c21.5117 0 29 12.4004 29 27v108h127v-108c0 -66.2314 -17.4902 -107.593 -53.2207 -130.398c-28.1904 -17.9932 -65.8398 -23.6016 -111.779 -23.6016h-391c-40.7988 0 -75.2568 6.56055 -101.134 25.9434
c-32.5781 24.4014 -48.8662 67.2588 -48.8662 134.893z" />
    <glyph glyph-name="d" unicode="d" horiz-adv-x="856" 
d="M192 487v-360h434c4.11035 0 8.85645 2.07422 13.6699 6.89062c9.66211 9.66699 17.3301 28.8135 17.3301 47.6836v261.383c0 25.3096 -30.5039 44.043 -44 44.043h-421zM65 614h532c113.64 0 187 -54.5859 187 -168.606v-266.066
c0 -48.5898 -9.39258 -89.4131 -31.1064 -120.075c-27.3379 -38.6025 -73.3213 -59.252 -138.894 -59.252h-549v614z" />
    <glyph glyph-name="e" unicode="e" horiz-adv-x="832" 
d="M65 0v614h678v-127h-551v-105h512v-127h-512v-128h575v-127h-702z" />
    <glyph glyph-name="f" unicode="f" horiz-adv-x="764" 
d="M65 0v614h634v-127h-507v-158h475v-127h-475v-202h-127z" />
    <glyph glyph-name="g" unicode="g" horiz-adv-x="839" 
d="M65 156.836v299.252c0 112.114 55.4141 157.912 161 157.912h382c42.4961 0 79.9424 -5.66895 108.915 -24.041c36.6572 -23.2451 57.085 -65.7256 57.085 -134.959v-83h-127v83c0 9.14258 -1.57617 16.627 -4.71582 21.6729
c-3.68848 5.92969 -10.0762 10.3271 -24.2842 10.3271h-392c-10.2324 0 -17.96 -2.01172 -23.1768 -5.70215c-6.28906 -4.44922 -10.8232 -12.4121 -10.8232 -27.8242v-294.073c0 -12.9209 2.16016 -21.8672 5.32715 -27.292
c3.7334 -6.39551 8.79492 -9.1084 17.6729 -9.1084h403c21.5117 0 29 11.2197 29 24.4287v51.5713h-265v116h392v-168.768c0 -64.6113 -17.4902 -104.96 -53.2207 -127.208c-28.1904 -17.5527 -65.8398 -23.0244 -111.779 -23.0244h-394
c-40.7988 0 -75.2568 6.56055 -101.134 25.9434c-32.5781 24.4014 -48.8662 67.2588 -48.8662 134.893z" />
    <glyph glyph-name="h" unicode="h" horiz-adv-x="875" 
d="M65 0v614h127v-256h491v256h127v-614h-127v231h-491v-231h-127z" />
    <glyph glyph-name="i" unicode="i" horiz-adv-x="257" 
d="M65 0v614h127v-614h-127z" />
    <glyph glyph-name="j" unicode="j" horiz-adv-x="802" 
d="M568 -2h-345c-102.976 0 -158 59.7441 -158 159v118h127v-118c0 -16.2168 8.7334 -32 31 -32h361c3.2207 0 7.12695 1.47754 11.1113 4.97949c8.00391 7.03516 14.8887 21.3877 14.8887 37.626v446.395h127v-449.329c0 -67.2354 -17.667 -111.998 -53.876 -138.056
c-28.7451 -20.6875 -67.5908 -28.6152 -115.124 -28.6152z" />
    <glyph glyph-name="k" unicode="k" horiz-adv-x="935" 
d="M372.1 236h-169.1v-236h-138v614h138v-251h168.966l292 251h204.516l-371.114 -312.731l371.765 -301.269h-205.032z" />
    <glyph glyph-name="l" unicode="l" horiz-adv-x="752" 
d="M65 0v614h127v-498h495v-116h-622z" />
    <glyph glyph-name="m" unicode="m" horiz-adv-x="914" 
d="M702.442 614h146.558v-614h-138v368.934l-189.425 -313.934h-123.415l-195.16 315.074v-370.074h-138v614h146.483l249.407 -399.496z" />
    <glyph glyph-name="n" unicode="n" horiz-adv-x="857" 
d="M654 155.083v458.917h138v-614h-158.26l-430.74 421.232v-421.232h-138v614h122.272z" />
    <glyph glyph-name="o" unicode="o" 
d="M211.071 139.148c8.9375 -8.35156 19.2363 -13.1484 26.9287 -13.1484h359c7.69238 0 17.9912 4.79688 26.9287 13.1484c11.1494 10.4209 19.0713 25.2227 19.0713 37.6025v259.498c0 12.3799 -7.92188 27.1816 -19.0713 37.6025
c-8.9375 8.35156 -19.2363 13.1484 -26.9287 13.1484h-359c-7.69238 0 -17.9912 -4.79688 -26.9287 -13.1484c-11.1494 -10.4209 -19.0713 -25.2227 -19.0713 -37.6025v-259.498c0 -12.3799 7.92188 -27.1816 19.0713 -37.6025zM597 -1h-359
c-89.8408 0 -173 60.873 -173 175.436v264.129c0 114.562 83.1592 175.436 173 175.436h359c89.8408 0 173 -60.873 173 -175.436v-264.129c0 -114.562 -83.1592 -175.436 -173 -175.436zM762 142z" />
    <glyph glyph-name="p" unicode="p" horiz-adv-x="740" 
d="M192 487v-181h317c22.0576 0 39 14.1504 39 37.3496v106.301c0 20.627 -16.7793 37.3496 -32 37.3496h-324zM192 -0.0722656l-127 1.14355v612.929h444c46.0762 0 84.168 -9.49512 112.42 -30.7627c35.5088 -26.7295 53.5801 -70.8271 53.5801 -132.239v-108.996
c0 -65.1084 -15.4209 -109.107 -51.6025 -134.817c-28.6719 -20.373 -68.5664 -28.1846 -120.397 -28.1846h-311v-179.072z" />
    <glyph glyph-name="q" unicode="q" 
d="M751.715 90.0234l143.492 -90.0234h-192.559c-8.69238 5.5957 -17.3857 11.1914 -26.0781 16.7871c-24.3955 -11.8389 -51.6582 -17.7871 -79.5703 -17.7871h-359c-89.8408 0 -173 60.873 -173 175.436v264.129c0 114.562 83.1592 175.436 173 175.436h359
c89.8408 0 173 -60.8711 173 -175.429v-264.117c0 -32.374 -6.61426 -60.6104 -18.2852 -84.4307zM506.912 126l-76.1191 46.9209h192.559c5.58887 -3.44531 11.1787 -6.89062 16.7676 -10.3359c1.86719 4.85156 2.88086 9.69141 2.88086 14.166v259.498
c0 12.3799 -7.92188 27.1816 -19.0713 37.6025c-8.9375 8.35156 -19.2363 13.1484 -26.9287 13.1484h-359c-7.69238 0 -17.9912 -4.79688 -26.9287 -13.1484c-11.1494 -10.4209 -19.0713 -25.2227 -19.0713 -37.6025v-259.498c0 -12.3799 7.92188 -27.1816 19.0713 -37.6025
c8.9375 -8.35156 19.2363 -13.1484 26.9287 -13.1484h268.912z" />
    <glyph glyph-name="r" unicode="r" horiz-adv-x="759" 
d="M192 487v-159h319c22.0576 0 39 14.0684 39 37.1318v84.7363c0 20.5068 -16.7793 37.1318 -32 37.1318h-326zM687 134.495c0 -26.375 -0.231445 -17.0635 -0.231445 -36.9844c0 -6.2334 0.261719 -44.4131 0.261719 -69.2627
c0 -17.877 -0.0234375 -18.085 -0.0527344 -28.248h-136.978v132.718c0 19.7021 -9.77832 44.6963 -23.6045 58.125c-6.87988 6.68164 -14.1914 10.1572 -21.3955 10.1572h-313v-201.072l-127 1.14355v612.929h446c46.0762 0 84.168 -9.42383 112.42 -30.5332
c35.5088 -26.5293 53.5801 -70.2969 53.5801 -131.251v-86.7393c0 -46.7773 -7.95117 -82.4043 -26.1934 -108.37c19.7598 -16.4404 36.1934 -55.3584 36.1934 -122.611z" />
    <glyph glyph-name="s" unicode="s" horiz-adv-x="802" 
d="M730 408.593h-127v53c0 11.9805 -12.1152 24.8613 -48.0137 24.8613l-330.986 0.545898c-15.2471 0 -32 -12.8154 -32 -25v-59l0.582031 0.552734c5.52637 -4.56738 26.8486 -12.0039 56.7373 -18.1455c37.3174 -7.66699 87.9785 -14.3721 141.295 -18.4307
c239.054 -18.1953 339.386 -53.248 339.386 -162.384v-54c0 -59.8613 -17.9561 -101.165 -55.2227 -125.256c-29.4834 -19.0596 -69.5674 -26.7441 -119.788 -26.7441l-316.989 0.407227c-49.7441 0 -89.3779 7.31445 -118.537 26.1631
c-36.8799 23.8389 -54.4629 65.0771 -54.4629 125.837v49h125v-49c0 -9.88184 2.91504 -15.625 8.73633 -19.4658c4.91309 -3.24121 13.0693 -5.53418 25.2734 -5.53418l330.99 -0.407227c39.1348 0 48 13.6885 48 25l-0.264648 53.082
c-4.48828 3.8877 -23.4092 10.9414 -53.4189 16.9561c-37.4238 7.49902 -91.9199 14.4531 -159.903 19.3906c-210.925 15.3203 -324.413 53.0723 -324.413 162.979v59c0 54.4316 17.3545 95.8682 51.2559 121.604c26.9834 20.4844 63.4424 30.3965 107.744 30.3965h331
c54.499 0 95.1895 -9.1875 123.933 -29.4023c36.2744 -25.5107 51.0674 -67.2881 51.0674 -123.005v-53z" />
    <glyph glyph-name="t" unicode="t" horiz-adv-x="801" 
d="M65 498v116h671v-116h-277v-498h-127v498h-267z" />
    <glyph glyph-name="u" unicode="u" horiz-adv-x="838" 
d="M773 614v-446.387c0 -105.379 -59.3779 -168.613 -165 -168.613h-378c-105.581 0 -165 63.25 -165 168.613v446.387h127v-443.46c0 -26.7314 7.85059 -44.54 29 -44.54h396c21.1494 0 29 17.8086 29 44.54v443.46h127z" />
    <glyph glyph-name="v" unicode="v" 
d="M679.323 614h140.889l-319.104 -614h-171.861l-315 614h139.754l266.099 -484.775z" />
    <glyph glyph-name="w" unicode="w" horiz-adv-x="997" 
d="M431.344 614h134.009l119.976 -413.994l158.369 413.994h139.156l-238.046 -614h-132.526l-114.849 384.401l-143.562 -384.401h-128.35l-211.368 614h139.847l146.829 -413.93z" />
    <glyph glyph-name="x" unicode="x" horiz-adv-x="859" 
d="M844.558 0h-189.138l-225.82 210.918l-230.752 -210.918h-184.229l325.543 301.112l-324.988 312.888h182.827l231.671 -226.628l232.657 226.628h181.951l-325.123 -309.943z" />
    <glyph glyph-name="y" unicode="y" horiz-adv-x="844" 
d="M14.2207 614h179.387l229.467 -251.984l234.369 251.984h172.24l-337.623 -376.016l-0.0507812 -237.984h-138.002l0.0527344 236.978z" />
    <glyph glyph-name="z" unicode="z" horiz-adv-x="785" 
d="M57 614h671v-122.829l-472.305 -364.171h472.305v-127h-671v122.844l475.195 364.156h-475.195v127z" />
    <glyph glyph-name="braceleft" unicode="{" horiz-adv-x="541" 
d="M53 240h-8v122h8c17.0176 0 49.3223 9.6582 77.1162 23.9277c22.3193 11.458 41.3857 25.8213 48.7178 38.251c32.96 55.874 60.6426 136.703 108.047 175.129c45.2227 36.6562 133.267 40.2852 176.149 40.2852c23.9346 0 21.6865 -0.376953 32.9697 -1.06738v-119.601
l-8.86621 0.93457s-11.3789 1.2168 -27.9482 1.2168c-25.8418 0 -62.5312 -3.5459 -82.5684 -17.4121c-31.2139 -21.5996 -46.0869 -48.1787 -69.9688 -91.2646c-2.74805 -4.95703 -5.61035 -10.1211 -8.625 -15.5039c-4.55664 -8.13477 -9.43262 -19.582 -14.5938 -31.7793
c-6.76855 -15.9941 -14.0312 -33.2949 -22.7422 -47.1475c-4.02246 -6.39648 -8.4541 -12.3643 -13.6777 -16.9688c5.22363 -4.60449 9.65527 -10.5723 13.6777 -16.9688c8.71094 -13.8525 15.9736 -31.1533 22.7422 -47.1475
c5.16113 -12.1973 10.0371 -23.6445 14.5938 -31.7793c3.01465 -5.38281 5.87695 -10.5469 8.625 -15.5039c23.8818 -43.0859 38.7549 -69.6641 69.9688 -91.2646c20.0371 -13.8662 56.7266 -17.4121 82.5684 -17.4121c16.5693 0 27.9482 1.2168 27.9482 1.2168
l8.86621 0.93457v-119.601c-11.3408 -0.694336 -8.9541 -1.06738 -32.9697 -1.06738c-42.8828 0 -130.927 3.62891 -176.149 40.2852c-47.4375 38.4521 -75.0498 119.192 -108.047 175.129c-7.33203 12.4297 -26.3984 26.793 -48.7178 38.251
c-27.7939 14.2695 -60.0986 23.9277 -77.1162 23.9277z" />
    <glyph glyph-name="bar" unicode="|" horiz-adv-x="217" 
d="M45 -130v744h127v-744h-127z" />
    <glyph glyph-name="braceright" unicode="}" horiz-adv-x="541" 
d="M496 240h-8c-17.0176 0 -49.3223 -9.6582 -77.1162 -23.9277c-22.3193 -11.458 -41.3857 -25.8213 -48.7178 -38.251c-32.96 -55.874 -60.6426 -136.703 -108.047 -175.129c-45.2227 -36.6562 -133.267 -40.2852 -176.149 -40.2852
c-23.9346 0 -21.6865 0.376953 -32.9697 1.06738v119.601l8.86621 -0.93457s11.3789 -1.2168 27.9482 -1.2168c25.8418 0 62.5312 3.5459 82.5684 17.4121c31.2139 21.5996 46.0869 48.1787 69.9688 91.2646c2.74805 4.95703 5.61035 10.1211 8.625 15.5039
c4.55664 8.13477 9.43262 19.582 14.5938 31.7793c6.76855 15.9941 14.0312 33.2949 22.7422 47.1475c4.02246 6.39648 8.4541 12.3643 13.6777 16.9688c-5.22363 4.60449 -9.65527 10.5723 -13.6777 16.9688c-8.71094 13.8525 -15.9736 31.1533 -22.7422 47.1475
c-5.16113 12.1973 -10.0371 23.6445 -14.5938 31.7793c-3.01465 5.38281 -5.87695 10.5469 -8.625 15.5039c-23.8818 43.0859 -38.7549 69.6641 -69.9688 91.2646c-20.0371 13.8662 -56.7266 17.4121 -82.5684 17.4121c-16.5693 0 -27.9482 -1.2168 -27.9482 -1.2168
l-8.86621 -0.93457v119.601c11.3408 0.694336 8.9541 1.06738 32.9697 1.06738c42.8828 0 130.927 -3.62891 176.149 -40.2852c47.4375 -38.4521 75.0498 -119.192 108.047 -175.129c7.33203 -12.4297 26.3984 -26.793 48.7178 -38.251
c27.7939 -14.2695 60.0986 -23.9277 77.1162 -23.9277h8v-122z" />
    <glyph glyph-name="asciitilde" unicode="~" horiz-adv-x="544" 
d="M168.5 358c38.7354 0 144.725 -37.4639 195.953 -51.7051c10.1338 -2.81641 18.0322 -4.29492 18.5469 -4.29492c15.4248 0 32.5342 44.6729 33.918 49.375l81.3408 -17.3857l-2.62207 -8.37793c-10.0254 -32.0352 -54.2686 -131.611 -119.137 -131.611
c-22.6299 0 -75.9834 16.6875 -126.15 31.7676c-23.6455 7.10742 -46.2871 13.9102 -63.54 18.5c-13.7168 3.64941 -24.5625 5.73242 -27.3096 5.73242c-14.6953 0 -32.1562 -36.4873 -33.3652 -39.3955l-2.22949 -7.10352l-78.3818 18.5156l1.65625 7.67578
c8.77246 40.6562 47.4131 128.308 121.32 128.308z" />
    <glyph glyph-name="Euro" unicode="&#x20ac;" horiz-adv-x="777" 
d="M65 417v41.3223c0 110.527 55.4141 155.678 161 155.678h320c42.4961 0 79.9424 -5.66895 108.915 -24.041c36.6572 -23.2451 57.085 -65.7256 57.085 -134.959v-84h-127v84c0 9.14258 -1.57617 16.627 -4.71582 21.6729
c-3.68848 5.92969 -10.0762 10.3271 -24.2842 10.3271h-330c-10.2324 0 -17.96 -1.88477 -23.1768 -5.3418c-6.28906 -4.16895 -10.8232 -11.6289 -10.8232 -26.0684v-38.5898h292v-98h-292v-33h292v-98h-292v-31.1641c0 -12.0107 2.16016 -20.3262 5.32715 -25.3691
c3.7334 -5.94531 8.79492 -8.4668 17.6729 -8.4668h341c21.5117 0 29 12.4004 29 27v86h127v-86c0 -66.2314 -17.4902 -107.593 -53.2207 -130.398c-28.1904 -17.9932 -65.8398 -23.6016 -111.779 -23.6016h-332c-40.7988 0 -75.2568 6.46094 -101.134 25.5498
c-32.5781 24.0322 -48.8662 66.2412 -48.8662 132.851v33.5996h-89v98h89v33h-89v98h89z" />
    <glyph glyph-name="quotesinglbase" unicode="&#x201a;" horiz-adv-x="410" 
d="M202.948 83h161.605l-186.91 -199h-132.434z" />
    <glyph glyph-name="florin" unicode="&#x192;" horiz-adv-x="507" 
d="M428 342h-135v-397c0 -38.6006 -19.3174 -66.0488 -46.0166 -84.4795c-52.9512 -36.5518 -135.144 -40.5205 -168.983 -40.5205h-8v127h8c14.1729 0 88 15.0566 88 30v365h-101v127h101.083c1.44043 64.5586 21.4336 102.679 53.209 123.446
c26.1328 17.0791 58.5703 21.5537 91.708 21.5537h131v-127h-131c-12.5127 0 -16.1143 -5.37598 -17.5234 -18h134.523v-127z" />
    <glyph glyph-name="quotedblbase" unicode="&#x201e;" horiz-adv-x="621" 
d="M256.21 -116l157.738 199h161.605l-186.91 -199h-132.434zM45.21 -116l157.738 199h161.605l-186.91 -199h-132.434z" />
    <glyph glyph-name="ellipsis" unicode="&#x2026;" horiz-adv-x="616" 
d="M571 136v-136h-128v136h128zM372 136v-136h-128v136h128zM173 136v-136h-128v136h128z" />
    <glyph glyph-name="circumflex" unicode="&#x2c6;" horiz-adv-x="586" 
d="M212.192 447h-166.326l193.958 167h126.603l174.234 -167h-167.064l-45.5967 11.5078l-28.208 30.1191l-24.792 -28.2715zM522 447z" />
    <glyph glyph-name="perthousand" unicode="&#x2030;" horiz-adv-x="1488" 
d="M1193 111h104c22.5957 0 34 12.8018 34 38.2207v34.4912c0 11.9424 -2.51074 20.6602 -6.6748 26.3623c-5.01172 6.86328 -13.124 10.9258 -27.3252 10.9258h-104c-14.2012 0 -22.3135 -4.0625 -27.3252 -10.9258c-4.16406 -5.70215 -6.6748 -14.4199 -6.6748 -26.3623
v-34.4912c0 -25.4189 11.4043 -38.2207 34 -38.2207zM1193 333h104c53.3535 0 93.1143 -15.9648 117.539 -47.6641c19.4219 -25.2051 28.4609 -59.2686 28.4609 -100.77v-36.1328c0 -41.501 -9.03906 -75.5645 -28.4609 -100.77
c-24.4248 -31.6992 -64.1855 -47.6641 -117.539 -47.6641h-104c-53.3535 0 -93.1143 15.9648 -117.539 47.6641c-19.4219 25.2051 -28.4609 59.2686 -28.4609 100.77v36.1328c0 41.501 9.03906 75.5645 28.4609 100.77c24.4248 31.6992 64.1855 47.6641 117.539 47.6641z
M768 111h104c22.5957 0 34 12.8018 34 38.2207v34.4912c0 11.9424 -2.51074 20.6602 -6.6748 26.3623c-5.01172 6.86328 -13.124 10.9258 -27.3252 10.9258h-104c-14.2012 0 -22.3135 -4.0625 -27.3252 -10.9258c-4.16406 -5.70215 -6.6748 -14.4199 -6.6748 -26.3623
v-34.4912c0 -25.4189 11.4043 -38.2207 34 -38.2207zM768 333h104c53.3535 0 93.1143 -15.9648 117.539 -47.6641c19.4219 -25.2051 28.4609 -59.2686 28.4609 -100.77v-36.1328c0 -41.501 -9.03906 -75.5645 -28.4609 -100.77
c-24.4248 -31.6992 -64.1855 -47.6641 -117.539 -47.6641h-104c-53.3535 0 -93.1143 15.9648 -117.539 47.6641c-19.4219 25.2051 -28.4609 59.2686 -28.4609 100.77v36.1328c0 41.501 9.03906 75.5645 28.4609 100.77c24.4248 31.6992 64.1855 47.6641 117.539 47.6641z
M191 392h104c22.5957 0 34 12.8018 34 38.2207v34.4912c0 11.9424 -2.51074 20.6602 -6.6748 26.3623c-5.01172 6.86328 -13.124 10.9258 -27.3252 10.9258h-104c-14.2012 0 -22.3135 -4.0625 -27.3252 -10.9258c-4.16406 -5.70215 -6.6748 -14.4199 -6.6748 -26.3623
v-34.4912c0 -25.4189 11.4043 -38.2207 34 -38.2207zM191 614h104c53.3535 0 93.1143 -15.9648 117.539 -47.6641c19.4219 -25.2051 28.4609 -59.2686 28.4609 -100.77v-36.1328c0 -41.501 -9.03906 -75.5645 -28.4609 -100.77
c-24.4248 -31.6992 -64.1855 -47.6641 -117.539 -47.6641h-104c-53.3535 0 -93.1143 15.9648 -117.539 47.6641c-19.4219 25.2051 -28.4609 59.2686 -28.4609 100.77v36.1328c0 41.501 9.03906 75.5645 28.4609 100.77c24.4248 31.6992 64.1855 47.6641 117.539 47.6641z
M927.111 614l-620.766 -614h-164.457l620.766 614h164.457z" />
    <glyph glyph-name="Scaron" unicode="&#x160;" horiz-adv-x="802" 
d="M320.5 842h-166.326l193.958 -167h126.603l174.234 167h-167.064l-45.5967 -11.5078l-28.208 -30.1191l-24.792 28.2715zM730 408.593h-127v53c0 11.9805 -12.1152 24.8613 -48.0137 24.8613l-330.986 0.545898c-15.2471 0 -32 -12.8154 -32 -25v-59l0.582031 0.552734
c5.52637 -4.56738 26.8486 -12.0039 56.7373 -18.1455c37.3174 -7.66699 87.9785 -14.3721 141.295 -18.4307c239.054 -18.1953 339.386 -53.248 339.386 -162.384v-54c0 -59.8613 -17.9561 -101.165 -55.2227 -125.256
c-29.4834 -19.0596 -69.5674 -26.7441 -119.788 -26.7441l-316.989 0.407227c-49.7441 0 -89.3779 7.31445 -118.537 26.1631c-36.8799 23.8389 -54.4629 65.0771 -54.4629 125.837v49h125v-49c0 -9.88184 2.91504 -15.625 8.73633 -19.4658
c4.91309 -3.24121 13.0693 -5.53418 25.2734 -5.53418l330.99 -0.407227c39.1348 0 48 13.6885 48 25l-0.264648 53.082c-4.48828 3.8877 -23.4092 10.9414 -53.4189 16.9561c-37.4238 7.49902 -91.9199 14.4531 -159.903 19.3906
c-210.925 15.3203 -324.413 53.0723 -324.413 162.979v59c0 54.4316 17.3545 95.8682 51.2559 121.604c26.9834 20.4844 63.4424 30.3965 107.744 30.3965h331c54.499 0 95.1895 -9.1875 123.933 -29.4023c36.2744 -25.5107 51.0674 -67.2881 51.0674 -123.005v-53z" />
    <glyph glyph-name="guilsinglleft" unicode="&#x2039;" horiz-adv-x="714" 
d="M443.604 553h224.511l-405.378 -255l405.378 -254h-224.511l-398.157 254z" />
    <glyph glyph-name="OE" unicode="&#x152;" horiz-adv-x="1458" 
d="M691 24.1699c-27.7314 -16.6543 -60.3984 -25.1699 -94 -25.1699h-359c-89.8408 0 -173 60.873 -173 175.436v264.129c0 114.562 83.1592 175.436 173 175.436h359c33.6016 0 66.2686 -8.51562 94 -25.1699v25.1699h678v-127h-551v-105h512v-127h-512v-128h575v-127h-702
v24.1699zM211.071 139.148c8.9375 -8.35156 19.2363 -13.1484 26.9287 -13.1484h359c7.69238 0 17.9912 4.79688 26.9287 13.1484c11.1494 10.4209 19.0713 25.2227 19.0713 37.6025v259.498c0 12.3799 -7.92188 27.1816 -19.0713 37.6025
c-8.9375 8.35156 -19.2363 13.1484 -26.9287 13.1484h-359c-7.69238 0 -17.9912 -4.79688 -26.9287 -13.1484c-11.1494 -10.4209 -19.0713 -25.2227 -19.0713 -37.6025v-259.498c0 -12.3799 7.92188 -27.1816 19.0713 -37.6025z" />
    <glyph glyph-name="Zcaron" unicode="&#x17d;" horiz-adv-x="785" 
d="M331.5 841h-166.326l193.958 -167h126.603l174.234 167h-167.064l-45.5967 -11.5078l-28.208 -30.1191l-24.792 28.2715zM57 614h671v-122.829l-472.305 -364.171h472.305v-127h-671v122.844l475.195 364.156h-475.195v127z" />
    <glyph glyph-name="quoteleft" unicode="&#x2018;" horiz-adv-x="410" 
d="M207 614h-161.605l186.91 -199h132.434z" />
    <glyph glyph-name="quoteright" unicode="&#x2019;" horiz-adv-x="410" 
d="M203 614h161.605l-186.91 -199h-132.434z" />
    <glyph glyph-name="quotedblleft" unicode="&#x201c;" horiz-adv-x="621" 
d="M364.738 415l-157.738 199h-161.605l186.91 -199h132.434zM575.738 415l-157.738 199h-161.605l186.91 -199h132.434z" />
    <glyph glyph-name="quotedblright" unicode="&#x201d;" horiz-adv-x="621" 
d="M256.262 415l157.738 199h161.605l-186.91 -199h-132.434zM45.2617 415l157.738 199h161.605l-186.91 -199h-132.434z" />
    <glyph glyph-name="bullet" unicode="&#x2022;" horiz-adv-x="273" 
d="M136.557 373.679c3.62598 0 7.24902 -0.214844 10.8506 -0.649414c34.2529 -4.12402 61.251 -27.0625 73.1152 -54.8418c4.84863 -11.3545 7.33301 -23.6396 7.33301 -35.9844c0 -3.62598 -0.214844 -7.24902 -0.649414 -10.8506
c-4.12402 -34.2539 -27.0645 -61.25 -54.8418 -73.1152c-11.3545 -4.84863 -23.6396 -7.33301 -35.9844 -7.33301c-3.62598 0 -7.24902 0.214844 -10.8506 0.649414c-34.25 4.12402 -61.25 27.0654 -73.1152 54.8418c-4.84863 11.3545 -7.33301 23.6396 -7.33301 35.9844
c0 3.62598 0.214844 7.24902 0.649414 10.8506c4.12402 34.251 27.0635 61.251 54.8418 73.1152c11.3545 4.84863 23.6396 7.33301 35.9844 7.33301z" />
    <glyph glyph-name="endash" unicode="&#x2013;" horiz-adv-x="622" 
d="M45 216v127h532v-127h-532z" />
    <glyph glyph-name="emdash" unicode="&#x2014;" horiz-adv-x="725" 
d="M45 216v127h635v-127h-635z" />
    <glyph glyph-name="tilde" unicode="&#x2dc;" horiz-adv-x="472" 
d="M64.6348 551.744c11.2861 29.9941 30.292 62.2559 64.3652 62.2559c52.2549 0 144.766 -33.8193 203.138 -49.0176c5.70508 9.67969 13.7568 40.4609 14.6719 49.0176h79.9043l-0.743164 -7.86133c-0.0283203 -0.298828 -3.99219 -43.0273 -19.0908 -81.8252
c-11.708 -30.085 -31.5215 -62.0938 -66.5801 -62.0938c-46.2783 0 -143.456 34.1387 -198.21 49.0713c-6.37402 1.73828 -12.6328 -39.5938 -12.7881 -49.291h-84.0156l0.743164 7.8623c0.0273438 0.288086 3.99707 43.0625 18.6055 81.8818z" />
    <glyph glyph-name="trademark" unicode="&#x2122;" horiz-adv-x="830" 
d="M45 547v67h316.75v-67h-124.65v-209.3h-71.9492v209.3h-120.15zM493.4 337.7h-76.9004v276.3h77.4648l107.984 -172.433l104.584 172.433h77.5664v-276.3h-76.8994v145.451l-73.6094 -121.102h-63.9434l-76.2471 122.222v-146.571z" />
    <glyph glyph-name="scaron" unicode="&#x161;" horiz-adv-x="802" 
d="M320.5 842h-166.326l193.958 -167h126.603l174.234 167h-167.064l-45.5967 -11.5078l-28.208 -30.1191l-24.792 28.2715zM730 408.593h-127v53c0 11.9805 -12.1152 24.8613 -48.0137 24.8613l-330.986 0.545898c-15.2471 0 -32 -12.8154 -32 -25v-59l0.582031 0.552734
c5.52637 -4.56738 26.8486 -12.0039 56.7373 -18.1455c37.3174 -7.66699 87.9785 -14.3721 141.295 -18.4307c239.054 -18.1953 339.386 -53.248 339.386 -162.384v-54c0 -59.8613 -17.9561 -101.165 -55.2227 -125.256
c-29.4834 -19.0596 -69.5674 -26.7441 -119.788 -26.7441l-316.989 0.407227c-49.7441 0 -89.3779 7.31445 -118.537 26.1631c-36.8799 23.8389 -54.4629 65.0771 -54.4629 125.837v49h125v-49c0 -9.88184 2.91504 -15.625 8.73633 -19.4658
c4.91309 -3.24121 13.0693 -5.53418 25.2734 -5.53418l330.99 -0.407227c39.1348 0 48 13.6885 48 25l-0.264648 53.082c-4.48828 3.8877 -23.4092 10.9414 -53.4189 16.9561c-37.4238 7.49902 -91.9199 14.4531 -159.903 19.3906
c-210.925 15.3203 -324.413 53.0723 -324.413 162.979v59c0 54.4316 17.3545 95.8682 51.2559 121.604c26.9834 20.4844 63.4424 30.3965 107.744 30.3965h331c54.499 0 95.1895 -9.1875 123.933 -29.4023c36.2744 -25.5107 51.0674 -67.2881 51.0674 -123.005v-53z" />
    <glyph glyph-name="guilsinglright" unicode="&#x203a;" horiz-adv-x="714" 
d="M270.396 553h-224.511l405.378 -255l-405.378 -254h224.511l398.157 254z" />
    <glyph glyph-name="zcaron" unicode="&#x17e;" horiz-adv-x="785" 
d="M331.5 841h-166.326l193.958 -167h126.603l174.234 167h-167.064l-45.5967 -11.5078l-28.208 -30.1191l-24.792 28.2715zM57 614h671v-122.829l-472.305 -364.171h472.305v-127h-671v122.844l475.195 364.156h-475.195v127z" />
    <glyph glyph-name="Ydieresis" unicode="&#x178;" horiz-adv-x="844" 
d="M575.475 794v-136h-128v136h128zM376.475 794v-136h-128v136h128zM14.2207 614h179.387l229.467 -251.984l234.369 251.984h172.24l-337.623 -376.016l-0.0507812 -237.984h-138.002l0.0527344 236.978z" />
    <glyph glyph-name="exclamdown" unicode="&#xa1;" horiz-adv-x="218" 
d="M45 478v136h128v-136h-128zM173 0h-127v290.146l6.28223 141.854h114.436l6.28223 -141.854v-290.146z" />
    <glyph glyph-name="cent" unicode="&#xa2;" horiz-adv-x="770" 
d="M705 206v-46c0 -64.2109 -18.4795 -109.641 -55.2285 -136.91c-29.2119 -21.6758 -68.6719 -31.0898 -116.771 -31.0898h-88.9893v-99h-116v99h-91.0107c-48.25 0 -87.8086 10.6973 -116.966 33.7412c-36.6035 28.9287 -55.0342 76.043 -55.0342 140.259v128
c0 64.7529 18.415 112.112 55.0225 141.161c29.1611 23.1406 68.7285 33.8389 116.978 33.8389h91.0107v97h116v-97h88.9893c48.125 0 87.6016 -9.62793 116.805 -31.5322c36.7246 -27.5459 55.1953 -73.2568 55.1953 -137.468v-49h-127v49c0 27.1709 -18.4072 42 -45 42
h-88.9893v-223h88.9893c26.8213 0 45 13.9785 45 41v46h127zM328.011 119v223h-91.0107c-25.332 0 -45 -19.9707 -45 -48v-128c0 -27.8906 19.4707 -47 45 -47h91.0107z" />
    <glyph glyph-name="sterling" unicode="&#xa3;" horiz-adv-x="737" 
d="M692 380h-127.398l-0.0107422 80c0 10.166 -2.80078 16.5791 -8.77246 20.8154c-4.99805 3.5459 -13.4609 6.18457 -26.8184 6.18457h-278c-23.2451 0 -38 -11.4326 -38 -31.5693v-51.4307c0 -32.2344 22.7764 -67.498 30.0967 -78h356.903v-98h-353v-29
c0 -37.6709 -17.5508 -56.7949 -31.0361 -72.0781l476.036 0.0791016v-127.001h-647v123.064l3.29102 2.40234s22.2939 8.26367 42.1475 28.4521c16.1162 16.3887 28.5615 34.502 28.5615 45.0811v29h-74v98h67.2061c-10.207 16.8701 -26.2061 48.0811 -26.2061 78v51.4307
c0 97.8496 62.0869 158.569 161 158.569h282c100.593 0 163 -58.6143 163 -154v-80z" />
    <glyph glyph-name="currency" unicode="&#xa4;" horiz-adv-x="477" 
d="M45.8604 174.963l54.6133 50.7852c-9.75 18.5918 -16.1387 42.8066 -16.1387 65.5518c0 5.78906 0.357422 11.5762 1.08203 17.3262c2.03711 16.167 6.93652 31.9492 14.3721 46.5645l-53.9287 50.1484l63.7871 66.8672l56.001 -46.1943
c19.6406 10.3809 46.2764 17.5801 71.2314 17.5801c6.04297 0 12.084 -0.357422 18.0869 -1.08203c18.8994 -2.28125 37.2969 -8.15137 54.04 -17.1523l56.1787 46.5371l66.1162 -65.6318l-56.8125 -52.6611c9.10352 -18.3965 14.6318 -41.0342 14.6318 -62.5928
c0 -5.78809 -0.357422 -11.5752 -1.08203 -17.3242c-2.02734 -16.082 -6.88574 -31.7822 -14.2549 -46.3311l57.5176 -53.3145l-66.1162 -65.6318l-57.5635 47.8809c-19.6182 -10.3369 -46.1768 -17.4824 -71.0459 -17.4824c-6.04297 0 -12.084 0.357422 -18.0869 1.08203
c-17.9199 2.16309 -35.3848 7.55273 -51.4189 15.7783l-57.4229 -47.5703zM184.328 268.808c7.97461 -18.6709 26.6475 -34.5859 52.3311 -34.5859c8.82227 0 15.7588 1.71484 22.46 4.57715c18.6826 7.97949 34.5859 26.6582 34.5859 52.3311
c0 21.1396 -10.0723 36.1211 -22.7793 45.6523c-9.33496 7.00195 -19.7705 11.3936 -34.1289 11.3936c-8.82129 0 -15.7656 -1.71777 -22.46 -4.57715c-17.2773 -7.37988 -31.4795 -24.0752 -34.1484 -45.3115c-0.164062 -2.29102 -0.4375 -4.65723 -0.4375 -7.01953
c0 -8.8252 1.71289 -15.7539 4.57715 -22.46z" />
    <glyph glyph-name="yen" unicode="&#xa5;" horiz-adv-x="844" 
d="M14.2207 614l179.387 0.000976562l229.467 -251.984l234.369 251.984h172.24l-231.657 -258h95.9736v-98h-183.968l-17.9717 -20.0156c0 -5.99512 -0.00390625 -11.9902 -0.00390625 -17.9854h201.943v-98h-201.964l-0.0263672 -122h-138.002l0.0273438 122h-201.035v98
h201.057c0 5.65918 0.00390625 11.3184 0.00390625 16.9775l-18.9492 21.0225h-182.111v98h93.7764z" />
    <glyph glyph-name="brokenbar" unicode="&#xa6;" horiz-adv-x="217" 
d="M172 614v-349h-127v349h127zM45 -130v349h127v-349h-127z" />
    <glyph glyph-name="section" unicode="&#xa7;" horiz-adv-x="802" 
d="M545.513 125.604l9.48828 -0.00878906c38.999 -0.0478516 48 13.6885 48 25l-0.259766 52.0234c0 0.352539 -0.00488281 0.705078 -0.00488281 1.05762c-4.48828 3.8877 -23.4092 10.9414 -53.4189 16.9561c-6.18262 1.23926 -12.832 2.46289 -19.9307 3.66504
c-35.8682 6.07617 -83.2207 11.6035 -139.973 15.7256c-98.1768 7.12988 -175.243 19.1211 -229.582 40.9854l-9.44531 0.015625c-12.3857 0.0205078 -32 -12.8154 -32 -25v-56.0234v-2.97656l0.582031 0.552734c5.52637 -4.56738 26.8486 -12.0039 56.7373 -18.1455
c4.57129 -0.939453 9.34277 -1.86426 14.2949 -2.77148c35.4736 -6.49902 80.2139 -12.0986 126.999 -15.6602c99.0977 -7.54395 174.357 -17.9824 228.513 -35.3955zM655.56 15.127c0.553711 -5.30566 0.827148 -10.8066 0.827148 -16.5088v-54
c0 -59.8613 -17.9561 -101.165 -55.2227 -125.256c-29.4834 -19.0596 -69.5674 -26.7441 -119.788 -26.7441l-316.989 0.407227c-49.7441 0 -89.3779 7.31445 -118.537 26.1631c-36.8799 23.8389 -54.4629 65.0771 -54.4629 125.837v49h125v-49
c0 -9.88184 2.91504 -15.625 8.73633 -19.4658c4.91309 -3.24121 13.0693 -5.53418 25.2734 -5.53418l330.99 -0.407227c39.1348 0 48 13.6885 48 25l-0.264648 53.082c-0.337891 0.291992 -0.756836 0.602539 -1.25684 0.928711
c-6.1416 4.01367 -24.4102 10.4648 -52.1621 16.0273c-37.4238 7.49902 -91.9199 14.4531 -159.903 19.3906c-104.261 7.57324 -184.714 20.627 -239.422 45.167c-55.9688 25.1055 -84.9912 62.2324 -84.9912 117.812v59c0 54.4316 17.3545 95.8672 51.2559 121.604
c6.97559 5.2959 14.585 9.88477 22.7988 13.7783c-0.292969 3.77344 -0.44043 7.6377 -0.44043 11.5957v59c0 54.4316 17.3545 95.8682 51.2559 121.604c26.9834 20.4844 63.4424 30.3965 107.744 30.3965h331c54.499 0 95.1895 -9.1875 123.933 -29.4023
c36.2744 -25.5107 51.0674 -67.2881 51.0674 -123.005v-53h-127v53c0 11.9805 -12.1152 24.8613 -48.0137 24.8613l-330.986 0.545898c-15.2471 0 -32 -12.8154 -32 -25v-53.9766v-5.02344l0.582031 0.552734c5.52637 -4.56738 26.8486 -12.0039 56.7373 -18.1455
c37.3174 -7.66699 87.9785 -14.3721 141.295 -18.4307c117.505 -8.94336 201.492 -21.96 256.522 -45.8457c56.9248 -24.708 82.8633 -61.0459 82.8633 -116.537v-54c0 -59.8613 -17.9561 -101.165 -55.2227 -125.256
c-5.97266 -3.86133 -12.3799 -7.25586 -19.2188 -10.2139zM118.387 200.001z" />
    <glyph glyph-name="dieresis" unicode="&#xa8;" horiz-adv-x="417" 
d="M372 614v-136h-128v136h128zM173 614v-136h-128v136h128z" />
    <glyph glyph-name="copyright" unicode="&#xa9;" horiz-adv-x="606" 
d="M371.261 344.82h-132.261c-2.58789 0 -2.58789 0.0732422 -2.55957 -1.99023v-82.9678c0 -1.2793 0.107422 -2.18457 0.229492 -2.80176h134.591c0.373047 0 0.650391 0.0107422 0.856445 0.0273438c0 0.0478516 0.00292969 0.0986328 0.00292969 0.152344v32.7197
h61.1797v-32.7197c0 -23.8936 -6.53516 -41.8896 -22.2617 -51.9268c-11.9658 -7.63867 -26.6055 -9.43262 -42.8379 -9.43262h-132.939c-14.7197 0 -28.6045 2.06934 -39.7734 9.77539c-14.3564 9.9043 -20.2266 26.5928 -20.2266 48.8828v93.7178
c0 20.9062 6.39746 37.1572 20.7627 47.0361c11.2764 7.75586 25.9424 10.707 42.9766 10.707h128.86c15.1543 0 29.7061 -1.87109 41.8418 -9.56738c15.8584 -10.0576 23.5977 -28.2988 23.5977 -53.4922v-31.3604h-61.1797v31.3604
c0 1.22754 0.249023 1.87988 -0.859375 1.87988zM372.719 248.218c-0.00195312 -0.00585938 0 0 0 0zM120.343 301.177c0 -24.624 4.99414 -49.3135 14.668 -71.9668c12.5186 -29.3047 32.8965 -55.2588 58.374 -74.3643c25.4824 -19.1104 56.1299 -31.417 87.7705 -35.2256
c7.17676 -0.866211 14.4092 -1.2959 21.6377 -1.2959c24.623 0 49.3115 4.99316 71.9648 14.667c29.3027 12.5186 55.2588 32.8945 74.3691 58.374c19.1055 25.4766 31.4121 56.1309 35.2197 87.7686c0.866211 7.17773 1.2959 14.4111 1.2959 21.6396
c0 24.625 -4.99316 49.3125 -14.666 71.9639c-12.5186 29.3047 -32.8955 55.2607 -58.3721 74.3691c-25.4805 19.1074 -56.1338 31.4102 -87.7715 35.2227c-7.17578 0.865234 -14.4043 1.29492 -21.6318 1.29492c-24.627 0 -49.3174 -4.99414 -71.9736 -14.668
c-29.2998 -12.5137 -55.2578 -32.8955 -74.3604 -58.3701c-19.1133 -25.4795 -31.418 -56.1328 -35.2285 -87.7744c-0.866211 -7.17578 -1.2959 -14.4072 -1.2959 -21.6348zM303.264 558.581c10.208 0 20.4131 -0.606445 30.5508 -1.8291
c44.668 -5.37988 87.7539 -22.6719 123.758 -49.668c35.9951 -27 64.6816 -63.5459 82.3516 -104.913c13.6562 -31.9805 20.6758 -66.6924 20.6758 -101.46c0 -10.2109 -0.606445 -20.417 -1.8291 -30.5566c-5.37598 -44.6689 -22.6699 -87.7568 -49.665 -123.755
c-27.0029 -35.999 -63.5488 -64.6846 -104.913 -82.3555c-31.9814 -13.6553 -66.6924 -20.6768 -101.459 -20.6768c-10.2109 0 -20.418 0.606445 -30.5586 1.83008c-44.6719 5.37695 -87.751 22.6699 -123.755 49.6709c-35.999 26.9951 -64.6846 63.542 -82.3555 104.907
c-13.6572 31.9824 -20.6787 66.6963 -20.6787 101.465c0 10.209 0.605469 20.4141 1.8291 30.5527c5.37891 44.6719 22.6689 87.7549 49.6738 123.757c26.9932 35.9971 63.543 64.6855 104.905 82.3525c31.9844 13.6572 66.6992 20.6787 101.47 20.6787z" />
    <glyph glyph-name="guillemotleft" unicode="&#xab;" horiz-adv-x="1076" 
d="M408.487 298l398.128 254.013l224.287 -0.150391l-405.165 -253.862l405.165 -254h-224.287zM45.4873 298l398.128 254.013l224.287 -0.150391l-405.165 -253.862l405.165 -254h-224.287z" />
    <glyph glyph-name="logicalnot" unicode="&#xac;" horiz-adv-x="547" 
d="M45 220v127h457v-193h-127v66h-330z" />
    <glyph glyph-name="registered" unicode="&#xae;" horiz-adv-x="606" 
d="M252.181 346.818v-27.0586h99.46c3.44141 0 4.25977 0.842773 4.25977 2.7207v21.6191c0 1.23828 -1.39258 2.47754 -2.1084 2.71875h-101.611zM355.9 199.239v46.9961c0 3.56641 -3.07422 11.2021 -6.44629 12.3447h-97.2734v-59.4463l-61.1807 0.550781v208.315
h160.641c16.833 0 31.8545 -3.12012 43.6016 -11.2012c15.0078 -10.3223 21.8379 -27.085 21.8379 -47.7246v-27.1504c0 -12.6953 -1.85742 -23.7119 -6.79688 -32.875c6.6543 -8.47852 10.1973 -21.6172 10.1973 -39.4258
c0 -7.81445 -0.0791016 -5.0166 -0.0791016 -11.5752c0 -6.25098 0.0898438 -14.7471 0.0898438 -21.6807c0 -7.3623 -0.0224609 -10.2529 -0.0439453 -17.1279h-64.5469zM349.394 258.599c-0.0117188 0.00292969 -0.0195312 0.00292969 -0.0292969 0.00292969
c0.00976562 0 0.0195312 -0.00292969 0.0292969 -0.00292969zM120.343 301.177c0 -24.624 4.99414 -49.3135 14.668 -71.9668c12.5186 -29.3047 32.8965 -55.2588 58.374 -74.3643c25.4824 -19.1104 56.1299 -31.417 87.7705 -35.2256
c7.17676 -0.866211 14.4092 -1.2959 21.6377 -1.2959c24.623 0 49.3115 4.99316 71.9648 14.667c29.3027 12.5186 55.2588 32.8945 74.3691 58.374c19.1055 25.4766 31.4121 56.1309 35.2197 87.7686c0.866211 7.17773 1.2959 14.4111 1.2959 21.6396
c0 24.625 -4.99316 49.3125 -14.666 71.9639c-12.5186 29.3047 -32.8955 55.2607 -58.3721 74.3691c-25.4805 19.1074 -56.1338 31.4102 -87.7715 35.2227c-7.17578 0.865234 -14.4043 1.29492 -21.6318 1.29492c-24.627 0 -49.3174 -4.99414 -71.9736 -14.668
c-29.2998 -12.5137 -55.2578 -32.8955 -74.3604 -58.3701c-19.1133 -25.4795 -31.418 -56.1328 -35.2285 -87.7744c-0.866211 -7.17578 -1.2959 -14.4072 -1.2959 -21.6348zM303.264 558.581c10.208 0 20.4131 -0.606445 30.5508 -1.8291
c44.668 -5.37988 87.7539 -22.6719 123.758 -49.668c35.9951 -27 64.6816 -63.5459 82.3516 -104.913c13.6562 -31.9805 20.6758 -66.6924 20.6758 -101.46c0 -10.2109 -0.606445 -20.417 -1.8291 -30.5566c-5.37598 -44.6689 -22.6699 -87.7568 -49.665 -123.755
c-27.0029 -35.999 -63.5488 -64.6846 -104.913 -82.3555c-31.9814 -13.6553 -66.6924 -20.6768 -101.459 -20.6768c-10.2109 0 -20.418 0.606445 -30.5586 1.83008c-44.6719 5.37695 -87.751 22.6699 -123.755 49.6709c-35.999 26.9951 -64.6846 63.542 -82.3555 104.907
c-13.6572 31.9824 -20.6787 66.6963 -20.6787 101.465c0 10.209 0.605469 20.4141 1.8291 30.5527c5.37891 44.6719 22.6689 87.7549 49.6738 123.757c26.9932 35.9971 63.543 64.6855 104.905 82.3525c31.9844 13.6572 66.6992 20.6787 101.47 20.6787z" />
    <glyph glyph-name="macron" unicode="&#xaf;" horiz-adv-x="604" 
d="M45 614h514v-100.016l-514 1.03125v98.9844z" />
    <glyph glyph-name="degree" unicode="&#xb0;" horiz-adv-x="314" 
d="M125.445 502.801c0 -17.917 13.6523 -31.5098 31.3896 -31.5098c17.916 0 31.5088 13.6504 31.5088 31.3896c0 17.9189 -13.6504 31.5098 -31.3887 31.5098c-17.916 0 -31.5098 -13.6514 -31.5098 -31.3896zM157 614c4.41895 0 8.83496 -0.262695 13.2217 -0.790039
c41.6924 -5.02246 74.5703 -32.9697 89.0088 -66.7754c5.91309 -13.8477 8.92383 -28.7441 8.92383 -43.7988c0 -4.41699 -0.261719 -8.83203 -0.789062 -13.2217c-5.02344 -41.6943 -32.9717 -74.5645 -66.7773 -89.0098
c-13.8457 -5.91211 -28.7432 -8.92285 -43.7969 -8.92285c-4.41797 0 -8.83301 0.261719 -13.2236 0.789062c-41.6885 5.02344 -74.5635 32.9736 -89.0059 66.7764c-5.91504 13.8467 -8.92578 28.7441 -8.92578 43.7979c0 4.41797 0.260742 8.83301 0.790039 13.2227
c5.02246 41.6875 32.9688 74.5693 66.7754 89.0078c13.8467 5.91309 28.7441 8.9248 43.7988 8.9248z" />
    <glyph glyph-name="plusminus" unicode="&#xb1;" horiz-adv-x="497" 
d="M452 168v-127h-407v127h407zM180 179v87h-135v127h135v149h127v-149h145v-127h-145v-87h-127z" />
    <glyph glyph-name="acute" unicode="&#xb4;" horiz-adv-x="516" 
d="M226.486 463h-180.54l223.5 151h201.554z" />
    <glyph glyph-name="mu" unicode="&#xb5;" horiz-adv-x="776" 
d="M544 -8h-312c-14.1836 0 -27.5146 0.87207 -40 2.7002v-117.7h-127v298.028l1.02832 285.972h127l-1.02832 -286c0 -31.1055 16.6514 -56 40 -56h312c23.3486 0 40 24.8662 40 55.9717l-1.02832 286.028h127l1.02832 -286
c0 -56.4854 -10.5596 -99.0703 -32.9873 -129.189c-28.2275 -37.9111 -73.8604 -53.8105 -134.013 -53.8105z" />
    <glyph glyph-name="paragraph" unicode="&#xb6;" horiz-adv-x="460" 
d="M45 399.128c0 138.194 111.786 169.872 204 169.872h166v-530h-69v461h-36v-461h-69v199.124c-70.2246 2.25781 -196 34.542 -196 161.004z" />
    <glyph glyph-name="periodcentered" unicode="&#xb7;" horiz-adv-x="202" 
d="M170 331v-136h-128v136h128z" />
    <glyph glyph-name="cedilla" unicode="&#xb8;" horiz-adv-x="397" 
d="M45.5283 -27v128.92h75.4717v-39.7451c16.6387 7.19434 48.957 18.8252 84 18.8252c60.3047 0 147 -31.6865 147 -110.867c0 -22.4131 -11.3096 -41.6338 -27.9697 -56.8564c-33.2051 -30.3398 -88.585 -46.877 -133.03 -46.877
c-38.9082 0 -107.374 8.76758 -130.378 29.6807l-4.31152 3.91895l30.7588 67.9258l8.0791 -6.80371c6.14062 -5.1709 21.9961 -10.3789 39.4824 -13.5947c21.7129 -3.99414 45.5898 -5.52734 56.3691 -5.52734c20.3408 0 44.5771 4.81445 61.2246 11.9785
c14.0508 6.0459 19.7354 12.7383 19.7354 16.4365c0 5.30273 -3.55566 10.9238 -11.3652 16.4287c-15.6025 10.998 -45.1797 18.5566 -69.5947 18.5566c-38.4863 0 -106.014 -31.8359 -107.213 -32.3994h-38.2588z" />
    <glyph glyph-name="ordmasculine" unicode="&#xba;" horiz-adv-x="313" 
d="M188.171 483.398c0 38.4004 -16.6328 53.3691 -31.2988 53.3691c-14.7695 0 -31.3887 -14.9766 -31.3887 -53.3691c0 -36.417 16.4707 -51.5303 31.5088 -51.5303c14.6572 0 31.1787 15.085 31.1787 51.5303zM242.764 390.9
c-20.3877 -27.127 -51.4492 -38.8418 -85.7275 -38.8418c-34.4941 0 -65.6621 11.7031 -86.1035 38.834c-16.2402 21.5547 -25.2598 51.9873 -25.2598 92.3838c0 42.084 8.98438 73.1133 25.2246 94.8408c20.4639 27.3779 51.6621 38.46 85.9297 38.46
s65.4658 -11.082 85.9297 -38.46c16.2402 -21.7275 25.2246 -52.7568 25.2246 -94.8408c0 -40.3975 -9.01953 -70.8252 -25.2178 -92.376z" />
    <glyph glyph-name="guillemotright" unicode="&#xbb;" horiz-adv-x="1076" 
d="M667.513 298l-398.128 254.013l-224.287 -0.150391l405.165 -253.862l-405.165 -254h224.287zM1030.51 298l-398.128 254.013l-224.287 -0.150391l405.165 -253.862l-405.165 -254h224.287z" />
    <glyph glyph-name="questiondown" unicode="&#xbf;" horiz-adv-x="709" 
d="M430 478v136h-128v-136h128zM172 156v75c0 3.67578 2.73242 8.375 12.6699 14.3594c11.9941 7.22266 31.9619 14.5879 56.1582 23.3682c39.5586 14.3555 90.5352 32.8076 139.515 64.5547c47.8262 30.999 49.6572 66.916 49.6572 90.7178v8h-128v-8
c0 -12.1855 -9.53516 -19.0674 -24.2764 -25.7002c-21.6729 -9.75293 -44.1709 -18.6172 -66.2598 -27.3164c-82.8623 -32.6328 -166.464 -63.9346 -166.464 -139.983v-75c0 -42.833 8.86133 -78.5938 29.2949 -105.263c25.6924 -33.5312 68.3906 -50.7373 128.705 -50.7373
c45.9697 0 259.444 -2 310 -2c97.6045 0 151 53.7139 151 153v62h-127v-62c0 -11.4463 -13.458 -26 -26 -26c-80.2188 0 -258.259 2 -308 2c-21.6338 0 -31 12.584 -31 29z" />
    <glyph glyph-name="Agrave" unicode="&#xc0;" horiz-adv-x="900" 
d="M366.61 674h180.54l-223.5 151h-201.554zM303.075 221h296.614l-145.89 245.046zM240 101l-74 -101h-151.264l372.612 614h139.062l359.12 -614h-157.241l-67 101h-421.29z" />
    <glyph glyph-name="Aacute" unicode="&#xc1;" horiz-adv-x="900" 
d="M547.15 674h-180.54l223.5 151h201.554zM303.075 221h296.614l-145.89 245.046zM240 101l-74 -101h-151.264l372.612 614h139.062l359.12 -614h-157.241l-67 101h-421.29z" />
    <glyph glyph-name="Acircumflex" unicode="&#xc2;" horiz-adv-x="900" 
d="M375.809 674h-166.326l193.958 167h126.603l174.234 -167h-167.064l-45.5967 11.5078l-28.208 30.1191l-24.792 -28.2715zM303.075 221h296.614l-145.89 245.046zM240 101l-74 -101h-151.264l372.612 614h139.062l359.12 -614h-157.241l-67 101h-421.29z" />
    <glyph glyph-name="Atilde" unicode="&#xc3;" horiz-adv-x="900" 
d="M285.515 763.744c11.2861 29.9941 30.292 62.2559 64.3652 62.2559c52.2549 0 144.766 -33.8193 203.138 -49.0176c5.70508 9.67969 13.7568 40.4609 14.6719 49.0176h79.9043l-0.743164 -7.86133c-0.0283203 -0.298828 -3.99219 -43.0273 -19.0908 -81.8252
c-11.708 -30.085 -31.5215 -62.0938 -66.5801 -62.0938c-46.2783 0 -143.456 34.1387 -198.21 49.0713c-6.37402 1.73828 -12.6328 -39.5938 -12.7881 -49.291h-84.0156l0.743164 7.8623c0.0273438 0.288086 3.99707 43.0625 18.6055 81.8818zM303.075 221h296.614
l-145.89 245.046zM240 101l-74 -101h-151.264l372.612 614h139.062l359.12 -614h-157.241l-67 101h-421.29z" />
    <glyph glyph-name="Adieresis" unicode="&#xc4;" horiz-adv-x="900" 
d="M620.38 810v-136h-128v136h128zM421.38 810v-136h-128v136h128zM303.075 221h296.614l-145.89 245.046zM240 101l-74 -101h-151.264l372.612 614h139.062l359.12 -614h-157.241l-67 101h-421.29z" />
    <glyph glyph-name="Aring" unicode="&#xc5;" horiz-adv-x="900" 
d="M431.645 705.612c0 -10.5703 7.94824 -18.4717 18.3906 -18.4717c10.5703 0 18.4707 7.94727 18.4707 18.3906c0 10.5723 -7.94629 18.4717 -18.3896 18.4717c-10.5703 0 -18.4717 -7.94727 -18.4717 -18.3906zM450.146 782.756
c3.06738 0 6.13184 -0.182617 9.17676 -0.548828c28.9346 -3.48535 51.7227 -22.8564 61.7461 -46.3262c4.10254 -9.60645 6.19043 -19.9346 6.19043 -30.3799c0 -3.06738 -0.182617 -6.13281 -0.547852 -9.17676c-3.48633 -28.9355 -22.8604 -51.7188 -46.3271 -61.7471
c-9.60645 -4.10156 -19.9346 -6.18945 -30.3789 -6.18945c-3.06836 0 -6.13477 0.182617 -9.17871 0.547852c-28.9316 3.48633 -51.7188 22.8604 -61.7441 46.3262c-4.10352 9.60645 -6.19141 19.9355 -6.19141 30.3799c0 3.06836 0.182617 6.13281 0.548828 9.17773
c3.48535 28.9307 22.8564 51.7217 46.3262 61.7461c9.60645 4.10254 19.9346 6.19043 30.3799 6.19043zM303.075 221h296.614l-145.89 245.046zM240 101l-74 -101h-151.264l372.612 614h139.062l359.12 -614h-157.241l-67 101h-421.29z" />
    <glyph glyph-name="AE" unicode="&#xc6;" horiz-adv-x="1345" 
d="M577.411 614h678v-127h-551v-90.1367v-14.8633h8.69336h503.307v-127h-429.025h-82.9746v-128h157.84h417.16v-127h-450.411h-49.71h-201.879v101h-286.411l-74 -101h-151.264l372.612 614h139.062zM517.7 487l-163.625 -266h223.336v266.083zM779.29 0z" />
    <glyph glyph-name="Ccedilla" unicode="&#xc7;" horiz-adv-x="836" 
d="M372.765 -125.069v128.92h75.4717v-39.7451c16.6387 7.19434 48.957 18.8252 84 18.8252c60.3047 0 147 -31.6865 147 -110.867c0 -22.4131 -11.3096 -41.6338 -27.9697 -56.8564c-33.2051 -30.3398 -88.585 -46.877 -133.03 -46.877
c-38.9082 0 -107.374 8.76758 -130.378 29.6807l-4.31152 3.91895l30.7588 67.9258l8.0791 -6.80371c6.14062 -5.1709 21.9961 -10.3789 39.4824 -13.5947c21.7129 -3.99414 45.5898 -5.52734 56.3691 -5.52734c20.3408 0 44.5771 4.81445 61.2246 11.9785
c14.0508 6.0459 19.7354 12.7383 19.7354 16.4365c0 5.30273 -3.55566 10.9238 -11.3652 16.4287c-15.6025 10.998 -45.1797 18.5566 -69.5947 18.5566c-38.4863 0 -106.014 -31.8359 -107.213 -32.3994h-38.2588zM65 156.836v299.252
c0 112.114 55.4141 157.912 161 157.912h379c42.4961 0 79.9424 -5.66895 108.915 -24.041c36.6572 -23.2451 57.085 -65.7256 57.085 -134.959v-104h-127v104c0 9.14258 -1.57617 16.627 -4.71582 21.6729c-3.68848 5.92969 -10.0762 10.3271 -24.2842 10.3271h-389
c-10.2324 0 -17.96 -2.01172 -23.1768 -5.70215c-6.28906 -4.44922 -10.8232 -12.4121 -10.8232 -27.8242v-294.073c0 -12.9209 2.16016 -21.8672 5.32715 -27.292c3.7334 -6.39551 8.79492 -9.1084 17.6729 -9.1084h400c21.5117 0 29 12.4004 29 27v108h127v-108
c0 -66.2314 -17.4902 -107.593 -53.2207 -130.398c-28.1904 -17.9932 -65.8398 -23.6016 -111.779 -23.6016h-391c-40.7988 0 -75.2568 6.56055 -101.134 25.9434c-32.5781 24.4014 -48.8662 67.2588 -48.8662 134.893z" />
    <glyph glyph-name="Egrave" unicode="&#xc8;" horiz-adv-x="832" 
d="M313.729 674h180.54l-223.5 151h-201.554zM65 0v614h678v-127h-551v-105h512v-127h-512v-128h575v-127h-702z" />
    <glyph glyph-name="Eacute" unicode="&#xc9;" horiz-adv-x="832" 
d="M494.271 674h-180.54l223.5 151h201.554zM65 0v614h678v-127h-551v-105h512v-127h-512v-128h575v-127h-702z" />
    <glyph glyph-name="Ecircumflex" unicode="&#xca;" horiz-adv-x="832" 
d="M322.929 674h-166.326l193.958 167h126.603l174.234 -167h-167.064l-45.5967 11.5078l-28.208 30.1191l-24.792 -28.2715zM65 0v614h678v-127h-551v-105h512v-127h-512v-128h575v-127h-702z" />
    <glyph glyph-name="Edieresis" unicode="&#xcb;" horiz-adv-x="832" 
d="M567.5 810v-136h-128v136h128zM368.5 810v-136h-128v136h128zM65 0v614h678v-127h-551v-105h512v-127h-512v-128h575v-127h-702z" />
    <glyph glyph-name="Igrave" unicode="&#xcc;" horiz-adv-x="257" 
d="M38.2295 674h180.54l-223.5 151h-201.554zM65 0v614h127v-614h-127z" />
    <glyph glyph-name="Iacute" unicode="&#xcd;" horiz-adv-x="257" 
d="M218.77 674h-180.54l223.5 151h201.554zM65 0v614h127v-614h-127z" />
    <glyph glyph-name="Icircumflex" unicode="&#xce;" horiz-adv-x="257" 
d="M47.4287 674h-166.326l193.958 167h126.603l174.234 -167h-167.064l-45.5967 11.5078l-28.208 30.1191l-24.792 -28.2715zM65 0v614h127v-614h-127z" />
    <glyph glyph-name="Idieresis" unicode="&#xcf;" horiz-adv-x="257" 
d="M292 810v-136h-128v136h128zM93 810v-136h-128v136h128zM65 0v614h127v-614h-127z" />
    <glyph glyph-name="Eth" unicode="&#xd0;" horiz-adv-x="856" 
d="M65 614h532c113.64 0 187 -54.5859 187 -168.606v-266.066c0 -48.5898 -9.39258 -89.4131 -31.1064 -120.075c-27.3379 -38.6025 -73.3213 -59.252 -138.894 -59.252h-549v322h-102v116h102v176zM192 487v-49h180v-116h-180v-195h434
c4.11035 0 8.85645 2.07422 13.6699 6.89062c9.66211 9.66699 17.3301 28.8135 17.3301 47.6836v261.383c0 25.3096 -30.5039 44.043 -44 44.043h-421z" />
    <glyph glyph-name="Ntilde" unicode="&#xd1;" horiz-adv-x="857" 
d="M257.135 763.744c11.2861 29.9941 30.292 62.2559 64.3652 62.2559c52.2549 0 144.766 -33.8193 203.138 -49.0176c5.70508 9.67969 13.7568 40.4609 14.6719 49.0176h79.9043l-0.743164 -7.86133c-0.0283203 -0.298828 -3.99219 -43.0273 -19.0908 -81.8252
c-11.708 -30.085 -31.5215 -62.0938 -66.5801 -62.0938c-46.2783 0 -143.456 34.1387 -198.21 49.0713c-6.37402 1.73828 -12.6328 -39.5938 -12.7881 -49.291h-84.0156l0.743164 7.8623c0.0273438 0.288086 3.99707 43.0625 18.6055 81.8818zM654 155.083v458.917h138v-614
h-158.26l-430.74 421.232v-421.232h-138v614h122.272z" />
    <glyph glyph-name="Ograve" unicode="&#xd2;" 
d="M327.229 674h180.54l-223.5 151h-201.554zM211.071 139.148c8.9375 -8.35156 19.2363 -13.1484 26.9287 -13.1484h359c7.69238 0 17.9912 4.79688 26.9287 13.1484c11.1494 10.4209 19.0713 25.2227 19.0713 37.6025v259.498
c0 12.3799 -7.92188 27.1816 -19.0713 37.6025c-8.9375 8.35156 -19.2363 13.1484 -26.9287 13.1484h-359c-7.69238 0 -17.9912 -4.79688 -26.9287 -13.1484c-11.1494 -10.4209 -19.0713 -25.2227 -19.0713 -37.6025v-259.498c0 -12.3799 7.92188 -27.1816 19.0713 -37.6025
zM597 -1h-359c-89.8408 0 -173 60.873 -173 175.436v264.129c0 114.562 83.1592 175.436 173 175.436h359c89.8408 0 173 -60.873 173 -175.436v-264.129c0 -114.562 -83.1592 -175.436 -173 -175.436zM762 142z" />
    <glyph glyph-name="Oacute" unicode="&#xd3;" 
d="M507.771 674h-180.54l223.5 151h201.554zM211.071 139.148c8.9375 -8.35156 19.2363 -13.1484 26.9287 -13.1484h359c7.69238 0 17.9912 4.79688 26.9287 13.1484c11.1494 10.4209 19.0713 25.2227 19.0713 37.6025v259.498c0 12.3799 -7.92188 27.1816 -19.0713 37.6025
c-8.9375 8.35156 -19.2363 13.1484 -26.9287 13.1484h-359c-7.69238 0 -17.9912 -4.79688 -26.9287 -13.1484c-11.1494 -10.4209 -19.0713 -25.2227 -19.0713 -37.6025v-259.498c0 -12.3799 7.92188 -27.1816 19.0713 -37.6025zM597 -1h-359
c-89.8408 0 -173 60.873 -173 175.436v264.129c0 114.562 83.1592 175.436 173 175.436h359c89.8408 0 173 -60.873 173 -175.436v-264.129c0 -114.562 -83.1592 -175.436 -173 -175.436zM762 142z" />
    <glyph glyph-name="Ocircumflex" unicode="&#xd4;" 
d="M336.429 674h-166.326l193.958 167h126.603l174.234 -167h-167.064l-45.5967 11.5078l-28.208 30.1191l-24.792 -28.2715zM211.071 139.148c8.9375 -8.35156 19.2363 -13.1484 26.9287 -13.1484h359c7.69238 0 17.9912 4.79688 26.9287 13.1484
c11.1494 10.4209 19.0713 25.2227 19.0713 37.6025v259.498c0 12.3799 -7.92188 27.1816 -19.0713 37.6025c-8.9375 8.35156 -19.2363 13.1484 -26.9287 13.1484h-359c-7.69238 0 -17.9912 -4.79688 -26.9287 -13.1484
c-11.1494 -10.4209 -19.0713 -25.2227 -19.0713 -37.6025v-259.498c0 -12.3799 7.92188 -27.1816 19.0713 -37.6025zM597 -1h-359c-89.8408 0 -173 60.873 -173 175.436v264.129c0 114.562 83.1592 175.436 173 175.436h359c89.8408 0 173 -60.873 173 -175.436v-264.129
c0 -114.562 -83.1592 -175.436 -173 -175.436zM762 142z" />
    <glyph glyph-name="Otilde" unicode="&#xd5;" 
d="M246.135 763.744c11.2861 29.9941 30.292 62.2559 64.3652 62.2559c52.2549 0 144.766 -33.8193 203.138 -49.0176c5.70508 9.67969 13.7568 40.4609 14.6719 49.0176h79.9043l-0.743164 -7.86133c-0.0283203 -0.298828 -3.99219 -43.0273 -19.0908 -81.8252
c-11.708 -30.085 -31.5215 -62.0938 -66.5801 -62.0938c-46.2783 0 -143.456 34.1387 -198.21 49.0713c-6.37402 1.73828 -12.6328 -39.5938 -12.7881 -49.291h-84.0156l0.743164 7.8623c0.0273438 0.288086 3.99707 43.0625 18.6055 81.8818zM211.071 139.148
c8.9375 -8.35156 19.2363 -13.1484 26.9287 -13.1484h359c7.69238 0 17.9912 4.79688 26.9287 13.1484c11.1494 10.4209 19.0713 25.2227 19.0713 37.6025v259.498c0 12.3799 -7.92188 27.1816 -19.0713 37.6025c-8.9375 8.35156 -19.2363 13.1484 -26.9287 13.1484h-359
c-7.69238 0 -17.9912 -4.79688 -26.9287 -13.1484c-11.1494 -10.4209 -19.0713 -25.2227 -19.0713 -37.6025v-259.498c0 -12.3799 7.92188 -27.1816 19.0713 -37.6025zM597 -1h-359c-89.8408 0 -173 60.873 -173 175.436v264.129c0 114.562 83.1592 175.436 173 175.436h359
c89.8408 0 173 -60.873 173 -175.436v-264.129c0 -114.562 -83.1592 -175.436 -173 -175.436zM762 142z" />
    <glyph glyph-name="Odieresis" unicode="&#xd6;" 
d="M581 810v-136h-128v136h128zM382 810v-136h-128v136h128zM211.071 139.148c8.9375 -8.35156 19.2363 -13.1484 26.9287 -13.1484h359c7.69238 0 17.9912 4.79688 26.9287 13.1484c11.1494 10.4209 19.0713 25.2227 19.0713 37.6025v259.498
c0 12.3799 -7.92188 27.1816 -19.0713 37.6025c-8.9375 8.35156 -19.2363 13.1484 -26.9287 13.1484h-359c-7.69238 0 -17.9912 -4.79688 -26.9287 -13.1484c-11.1494 -10.4209 -19.0713 -25.2227 -19.0713 -37.6025v-259.498c0 -12.3799 7.92188 -27.1816 19.0713 -37.6025
zM597 -1h-359c-89.8408 0 -173 60.873 -173 175.436v264.129c0 114.562 83.1592 175.436 173 175.436h359c89.8408 0 173 -60.873 173 -175.436v-264.129c0 -114.562 -83.1592 -175.436 -173 -175.436zM762 142z" />
    <glyph glyph-name="multiply" unicode="&#xd7;" horiz-adv-x="518" 
d="M182.303 283.43l-136.009 129.854l76.7061 83.7168l136.39 -125.242l136.888 125.242l76.7061 -83.7168l-136.507 -129.854l136.009 -129.854l-76.7061 -83.7168l-136.39 125.242l-136.888 -125.242l-76.7061 83.7168z" />
    <glyph glyph-name="Oslash" unicode="&#xd8;" horiz-adv-x="819" 
d="M723 675l146.999 0.000976562l-141.79 -134.654c16.1738 -26.0635 25.79 -58.915 25.79 -98.3457v-271c0 -113.032 -79.0234 -172 -165 -172h-359c-21.0205 0 -41.625 3.52441 -60.7607 10.5029l-74.2383 -70.5029h-146l141.333 134.395
c-15.8975 25.9443 -25.333 58.5469 -25.333 97.6045v271c0 113.032 79.0234 172 165 172h359c20.502 0 40.6084 -3.35254 59.3418 -9.99219zM542.118 503.001h-312.12c-24.29 0 -54 -32.3545 -54 -61v-271c0 -4.64062 0.780273 -9.37891 2.19043 -14.0615zM275.06 110.001
h313.939c24.29 0 54 32.3545 54 61v271c0 4.96777 -0.893555 10.0479 -2.49805 15.0508z" />
    <glyph glyph-name="Ugrave" unicode="&#xd9;" horiz-adv-x="838" 
d="M328.729 674h180.54l-223.5 151h-201.554zM773 614v-446.387c0 -105.379 -59.3779 -168.613 -165 -168.613h-378c-105.581 0 -165 63.25 -165 168.613v446.387h127v-443.46c0 -26.7314 7.85059 -44.54 29 -44.54h396c21.1494 0 29 17.8086 29 44.54v443.46h127z" />
    <glyph glyph-name="Uacute" unicode="&#xda;" horiz-adv-x="838" 
d="M509.271 674h-180.54l223.5 151h201.554zM773 614v-446.387c0 -105.379 -59.3779 -168.613 -165 -168.613h-378c-105.581 0 -165 63.25 -165 168.613v446.387h127v-443.46c0 -26.7314 7.85059 -44.54 29 -44.54h396c21.1494 0 29 17.8086 29 44.54v443.46h127z" />
    <glyph glyph-name="Ucircumflex" unicode="&#xdb;" horiz-adv-x="838" 
d="M337.929 674h-166.326l193.958 167h126.603l174.234 -167h-167.064l-45.5967 11.5078l-28.208 30.1191l-24.792 -28.2715zM773 614v-446.387c0 -105.379 -59.3779 -168.613 -165 -168.613h-378c-105.581 0 -165 63.25 -165 168.613v446.387h127v-443.46
c0 -26.7314 7.85059 -44.54 29 -44.54h396c21.1494 0 29 17.8086 29 44.54v443.46h127z" />
    <glyph glyph-name="Udieresis" unicode="&#xdc;" horiz-adv-x="838" 
d="M582.5 810v-136h-128v136h128zM383.5 810v-136h-128v136h128zM773 614v-446.387c0 -105.379 -59.3779 -168.613 -165 -168.613h-378c-105.581 0 -165 63.25 -165 168.613v446.387h127v-443.46c0 -26.7314 7.85059 -44.54 29 -44.54h396c21.1494 0 29 17.8086 29 44.54
v443.46h127z" />
    <glyph glyph-name="Yacute" unicode="&#xdd;" horiz-adv-x="844" 
d="M512.325 690h-180.54l223.5 151h201.554zM14.2207 614h179.387l229.467 -251.984l234.369 251.984h172.24l-337.623 -376.016l-0.0507812 -237.984h-138.002l0.0527344 236.978z" />
    <glyph glyph-name="Thorn" unicode="&#xde;" horiz-adv-x="700" 
d="M172 213h317c22.0576 0 39 14.7764 39 39v111c0 21.5381 -16.7793 39 -32 39h-324v-189zM172 0h-127v614h127v-85h317c46.0762 0 84.168 -9.66992 112.42 -31.3291c35.5088 -27.2207 53.5801 -72.1289 53.5801 -134.671v-111
c0 -66.3066 -15.4209 -111.114 -51.6025 -137.297c-28.6719 -20.748 -68.5664 -28.7031 -120.397 -28.7031h-311v-86z" />
    <glyph glyph-name="germandbls" unicode="&#xdf;" horiz-adv-x="729" 
d="M323.909 217c0.108398 -9.52051 0.134766 -12.3164 0.134766 -25.5898c0 -14.8613 -0.0439453 -36.959 -0.0439453 -51.4102c0 -16.6094 7.64551 -24 16 -24h194c11.8789 0 23.0107 8.5332 23.0107 22.0518v41.2266c0 2.21875 -2.73047 6.84473 -12.4424 12.7188
c-11.5098 6.96094 -29.7969 14.2158 -49.7002 22.0166c-26.8281 10.5146 -56.6836 22.082 -78.7383 37.5996c-17.4971 12.3115 -31.1191 28.0459 -31.1191 48.4688c0 8.32129 6.61426 13.6211 12.5254 18.167c18.9971 14.6113 52.7168 30.2695 70.5547 45.1729
c8.44727 7.05762 11.9199 12.9961 11.9199 16.2383v78.6182c0 16.3936 -14.2305 29.7217 -31.0107 29.7217h-239c-20.252 0 -38 -17.0029 -38 -51.3174c0 -231.116 0.984375 -425.723 1.03711 -436.683h-127.02l-1.01758 439.564c0 72.4053 21.8848 119.093 57.7588 145.964
c28.5518 21.3867 64.7979 29.4717 103.241 29.4717h243c80.5664 0 158.011 -46.8877 158.011 -153.994v-79.9199c0 -45.3008 -49.4219 -65.1582 -76.415 -76.7119c-7.8623 -3.36523 -14.2393 -6.53418 -17.3359 -8.2832c1.85645 -1.73535 5.7002 -4.59863 11.5195 -7.60352
c9.66309 -4.99023 23.585 -10.5537 39.0439 -16.6992c27.8535 -11.0732 60.7686 -24.0361 85.3057 -41.2432c19.4219 -13.6221 34.8818 -30.9004 34.8818 -53.1602v-41.9092c0 -49.9893 -13.4238 -87.04 -44.9023 -109.628
c-24.959 -17.9092 -59.7773 -25.8477 -105.108 -25.8477h-194c-41.1895 0 -74.2354 9.33594 -98.3213 28.4648c-30.2539 24.0283 -44.6787 62.2852 -44.6787 111.535v77h126.909z" />
    <glyph glyph-name="agrave" unicode="&#xe0;" horiz-adv-x="900" 
d="M366.61 674h180.54l-223.5 151h-201.554zM303.075 221h296.614l-145.89 245.046zM240 101l-74 -101h-151.264l372.612 614h139.062l359.12 -614h-157.241l-67 101h-421.29z" />
    <glyph glyph-name="aacute" unicode="&#xe1;" horiz-adv-x="900" 
d="M547.15 674h-180.54l223.5 151h201.554zM303.075 221h296.614l-145.89 245.046zM240 101l-74 -101h-151.264l372.612 614h139.062l359.12 -614h-157.241l-67 101h-421.29z" />
    <glyph glyph-name="acircumflex" unicode="&#xe2;" horiz-adv-x="900" 
d="M375.809 674h-166.326l193.958 167h126.603l174.234 -167h-167.064l-45.5967 11.5078l-28.208 30.1191l-24.792 -28.2715zM303.075 221h296.614l-145.89 245.046zM240 101l-74 -101h-151.264l372.612 614h139.062l359.12 -614h-157.241l-67 101h-421.29z" />
    <glyph glyph-name="atilde" unicode="&#xe3;" horiz-adv-x="900" 
d="M285.515 763.744c11.2861 29.9941 30.292 62.2559 64.3652 62.2559c52.2549 0 144.766 -33.8193 203.138 -49.0176c5.70508 9.67969 13.7568 40.4609 14.6719 49.0176h79.9043l-0.743164 -7.86133c-0.0283203 -0.298828 -3.99219 -43.0273 -19.0908 -81.8252
c-11.708 -30.085 -31.5215 -62.0938 -66.5801 -62.0938c-46.2783 0 -143.456 34.1387 -198.21 49.0713c-6.37402 1.73828 -12.6328 -39.5938 -12.7881 -49.291h-84.0156l0.743164 7.8623c0.0273438 0.288086 3.99707 43.0625 18.6055 81.8818zM303.075 221h296.614
l-145.89 245.046zM240 101l-74 -101h-151.264l372.612 614h139.062l359.12 -614h-157.241l-67 101h-421.29z" />
    <glyph glyph-name="adieresis" unicode="&#xe4;" horiz-adv-x="900" 
d="M620.38 810v-136h-128v136h128zM421.38 810v-136h-128v136h128zM303.075 221h296.614l-145.89 245.046zM240 101l-74 -101h-151.264l372.612 614h139.062l359.12 -614h-157.241l-67 101h-421.29z" />
    <glyph glyph-name="aring" unicode="&#xe5;" horiz-adv-x="900" 
d="M431.645 705.612c0 -10.5703 7.94824 -18.4717 18.3906 -18.4717c10.5703 0 18.4707 7.94727 18.4707 18.3906c0 10.5723 -7.94629 18.4717 -18.3896 18.4717c-10.5703 0 -18.4717 -7.94727 -18.4717 -18.3906zM450.146 782.756
c3.06738 0 6.13184 -0.182617 9.17676 -0.548828c28.9346 -3.48535 51.7227 -22.8564 61.7461 -46.3262c4.10254 -9.60645 6.19043 -19.9346 6.19043 -30.3799c0 -3.06738 -0.182617 -6.13281 -0.547852 -9.17676c-3.48633 -28.9355 -22.8604 -51.7188 -46.3271 -61.7471
c-9.60645 -4.10156 -19.9346 -6.18945 -30.3789 -6.18945c-3.06836 0 -6.13477 0.182617 -9.17871 0.547852c-28.9316 3.48633 -51.7188 22.8604 -61.7441 46.3262c-4.10352 9.60645 -6.19141 19.9355 -6.19141 30.3799c0 3.06836 0.182617 6.13281 0.548828 9.17773
c3.48535 28.9307 22.8564 51.7217 46.3262 61.7461c9.60645 4.10254 19.9346 6.19043 30.3799 6.19043zM303.075 221h296.614l-145.89 245.046zM240 101l-74 -101h-151.264l372.612 614h139.062l359.12 -614h-157.241l-67 101h-421.29z" />
    <glyph glyph-name="ccedilla" unicode="&#xe7;" horiz-adv-x="836" 
d="M385.765 -125.069v128.92h75.4717v-39.7451c16.6387 7.19434 48.957 18.8252 84 18.8252c60.3047 0 147 -31.6865 147 -110.867c0 -22.4131 -11.3096 -41.6338 -27.9697 -56.8564c-33.2051 -30.3398 -88.585 -46.877 -133.03 -46.877
c-38.9082 0 -107.374 8.76758 -130.378 29.6807l-4.31152 3.91895l30.7588 67.9258l8.0791 -6.80371c6.14062 -5.1709 21.9961 -10.3789 39.4824 -13.5947c21.7129 -3.99414 45.5898 -5.52734 56.3691 -5.52734c20.3408 0 44.5771 4.81445 61.2246 11.9785
c14.0508 6.0459 19.7354 12.7383 19.7354 16.4365c0 5.30273 -3.55566 10.9238 -11.3652 16.4287c-15.6025 10.998 -45.1797 18.5566 -69.5947 18.5566c-38.4863 0 -106.014 -31.8359 -107.213 -32.3994h-38.2588zM65 156.836v299.252
c0 112.114 55.4141 157.912 161 157.912h379c42.4961 0 79.9424 -5.66895 108.915 -24.041c36.6572 -23.2451 57.085 -65.7256 57.085 -134.959v-104h-127v104c0 9.14258 -1.57617 16.627 -4.71582 21.6729c-3.68848 5.92969 -10.0762 10.3271 -24.2842 10.3271h-389
c-10.2324 0 -17.96 -2.01172 -23.1768 -5.70215c-6.28906 -4.44922 -10.8232 -12.4121 -10.8232 -27.8242v-294.073c0 -12.9209 2.16016 -21.8672 5.32715 -27.292c3.7334 -6.39551 8.79492 -9.1084 17.6729 -9.1084h400c21.5117 0 29 12.4004 29 27v108h127v-108
c0 -66.2314 -17.4902 -107.593 -53.2207 -130.398c-28.1904 -17.9932 -65.8398 -23.6016 -111.779 -23.6016h-391c-40.7988 0 -75.2568 6.56055 -101.134 25.9434c-32.5781 24.4014 -48.8662 67.2588 -48.8662 134.893z" />
    <glyph glyph-name="egrave" unicode="&#xe8;" horiz-adv-x="832" 
d="M313.729 674h180.54l-223.5 151h-201.554zM65 0v614h678v-127h-551v-105h512v-127h-512v-128h575v-127h-702z" />
    <glyph glyph-name="eacute" unicode="&#xe9;" horiz-adv-x="832" 
d="M494.271 674h-180.54l223.5 151h201.554zM65 0v614h678v-127h-551v-105h512v-127h-512v-128h575v-127h-702z" />
    <glyph glyph-name="ecircumflex" unicode="&#xea;" horiz-adv-x="832" 
d="M335.192 674h-166.326l193.958 167h126.603l174.234 -167h-167.064l-45.5967 11.5078l-28.208 30.1191l-24.792 -28.2715zM65 0v614h678v-127h-551v-105h512v-127h-512v-128h575v-127h-702z" />
    <glyph glyph-name="edieresis" unicode="&#xeb;" horiz-adv-x="832" 
d="M567.5 794v-136h-128v136h128zM368.5 794v-136h-128v136h128zM65 0v614h678v-127h-551v-105h512v-127h-512v-128h575v-127h-702z" />
    <glyph glyph-name="igrave" unicode="&#xec;" horiz-adv-x="257" 
d="M37.7295 674h180.54l-223.5 151h-201.554zM65 0v614h127v-614h-127z" />
    <glyph glyph-name="iacute" unicode="&#xed;" horiz-adv-x="257" 
d="M218.27 674h-180.54l223.5 151h201.554zM65 0v614h127v-614h-127z" />
    <glyph glyph-name="icircumflex" unicode="&#xee;" horiz-adv-x="257" 
d="M47.4287 674h-166.326l193.958 167h126.603l174.234 -167h-167.064l-45.5967 11.5078l-28.208 30.1191l-24.792 -28.2715zM65 0v614h127v-614h-127z" />
    <glyph glyph-name="idieresis" unicode="&#xef;" horiz-adv-x="257" 
d="M292 810v-136h-128v136h128zM93 810v-136h-128v136h128zM65 0v614h127v-614h-127z" />
    <glyph glyph-name="eth" unicode="&#xf0;" horiz-adv-x="792" 
d="M555 127c24.2568 0 45 24.0186 45 56v103c0 31.9814 -20.7432 56 -45 56h-318c-24.2568 0 -45 -24.0186 -45 -56v-103c0 -31.9814 20.7432 -56 45 -56h318zM137 500v71h111.751l-73.2373 43h207.916c3.22461 -2.1582 30.0498 -12.0576 74.8125 -43h159.758v-71h-59.2129
c8.41699 -6.09863 15.8184 -11.4541 24.8115 -17.8242c56.3027 -39.8838 143.401 -100.521 143.401 -196.176v-103c0 -54.4307 -11.6562 -96.8154 -35.1572 -127.245c-29.5176 -38.2178 -76.4971 -55.7549 -136.843 -55.7549h-318
c-60.3457 0 -107.325 17.5371 -136.843 55.7549c-23.501 30.4297 -35.1572 72.8145 -35.1572 127.245v103c0 54.8623 11.6484 97.3047 35.1641 127.665c29.5371 38.1338 76.5283 55.335 136.836 55.335h157.637l-44.2568 31h-213.38z" />
    <glyph glyph-name="ntilde" unicode="&#xf1;" horiz-adv-x="857" 
d="M257.135 763.744c11.2861 29.9941 30.292 62.2559 64.3652 62.2559c52.2549 0 144.766 -33.8193 203.138 -49.0176c5.70508 9.67969 13.7568 40.4609 14.6719 49.0176h79.9043l-0.743164 -7.86133c-0.0283203 -0.298828 -3.99219 -43.0273 -19.0908 -81.8252
c-11.708 -30.085 -31.5215 -62.0938 -66.5801 -62.0938c-46.2783 0 -143.456 34.1387 -198.21 49.0713c-6.37402 1.73828 -12.6328 -39.5938 -12.7881 -49.291h-84.0156l0.743164 7.8623c0.0273438 0.288086 3.99707 43.0625 18.6055 81.8818zM654 155.083v458.917h138v-614
h-158.26l-430.74 421.232v-421.232h-138v614h122.272z" />
    <glyph glyph-name="ograve" unicode="&#xf2;" 
d="M327.229 674h180.54l-223.5 151h-201.554zM211.071 139.148c8.9375 -8.35156 19.2363 -13.1484 26.9287 -13.1484h359c7.69238 0 17.9912 4.79688 26.9287 13.1484c11.1494 10.4209 19.0713 25.2227 19.0713 37.6025v259.498
c0 12.3799 -7.92188 27.1816 -19.0713 37.6025c-8.9375 8.35156 -19.2363 13.1484 -26.9287 13.1484h-359c-7.69238 0 -17.9912 -4.79688 -26.9287 -13.1484c-11.1494 -10.4209 -19.0713 -25.2227 -19.0713 -37.6025v-259.498c0 -12.3799 7.92188 -27.1816 19.0713 -37.6025
zM597 -1h-359c-89.8408 0 -173 60.873 -173 175.436v264.129c0 114.562 83.1592 175.436 173 175.436h359c89.8408 0 173 -60.873 173 -175.436v-264.129c0 -114.562 -83.1592 -175.436 -173 -175.436zM762 142z" />
    <glyph glyph-name="oacute" unicode="&#xf3;" 
d="M507.771 674h-180.54l223.5 151h201.554zM211.071 139.148c8.9375 -8.35156 19.2363 -13.1484 26.9287 -13.1484h359c7.69238 0 17.9912 4.79688 26.9287 13.1484c11.1494 10.4209 19.0713 25.2227 19.0713 37.6025v259.498c0 12.3799 -7.92188 27.1816 -19.0713 37.6025
c-8.9375 8.35156 -19.2363 13.1484 -26.9287 13.1484h-359c-7.69238 0 -17.9912 -4.79688 -26.9287 -13.1484c-11.1494 -10.4209 -19.0713 -25.2227 -19.0713 -37.6025v-259.498c0 -12.3799 7.92188 -27.1816 19.0713 -37.6025zM597 -1h-359
c-89.8408 0 -173 60.873 -173 175.436v264.129c0 114.562 83.1592 175.436 173 175.436h359c89.8408 0 173 -60.873 173 -175.436v-264.129c0 -114.562 -83.1592 -175.436 -173 -175.436zM762 142z" />
    <glyph glyph-name="ocircumflex" unicode="&#xf4;" 
d="M336.429 674h-166.326l193.958 167h126.603l174.234 -167h-167.064l-45.5967 11.5078l-28.208 30.1191l-24.792 -28.2715zM211.071 139.148c8.9375 -8.35156 19.2363 -13.1484 26.9287 -13.1484h359c7.69238 0 17.9912 4.79688 26.9287 13.1484
c11.1494 10.4209 19.0713 25.2227 19.0713 37.6025v259.498c0 12.3799 -7.92188 27.1816 -19.0713 37.6025c-8.9375 8.35156 -19.2363 13.1484 -26.9287 13.1484h-359c-7.69238 0 -17.9912 -4.79688 -26.9287 -13.1484
c-11.1494 -10.4209 -19.0713 -25.2227 -19.0713 -37.6025v-259.498c0 -12.3799 7.92188 -27.1816 19.0713 -37.6025zM597 -1h-359c-89.8408 0 -173 60.873 -173 175.436v264.129c0 114.562 83.1592 175.436 173 175.436h359c89.8408 0 173 -60.873 173 -175.436v-264.129
c0 -114.562 -83.1592 -175.436 -173 -175.436zM762 142z" />
    <glyph glyph-name="otilde" unicode="&#xf5;" 
d="M246.135 763.744c11.2861 29.9941 30.292 62.2559 64.3652 62.2559c52.2549 0 144.766 -33.8193 203.138 -49.0176c5.70508 9.67969 13.7568 40.4609 14.6719 49.0176h79.9043l-0.743164 -7.86133c-0.0283203 -0.298828 -3.99219 -43.0273 -19.0908 -81.8252
c-11.708 -30.085 -31.5215 -62.0938 -66.5801 -62.0938c-46.2783 0 -143.456 34.1387 -198.21 49.0713c-6.37402 1.73828 -12.6328 -39.5938 -12.7881 -49.291h-84.0156l0.743164 7.8623c0.0273438 0.288086 3.99707 43.0625 18.6055 81.8818zM211.071 139.148
c8.9375 -8.35156 19.2363 -13.1484 26.9287 -13.1484h359c7.69238 0 17.9912 4.79688 26.9287 13.1484c11.1494 10.4209 19.0713 25.2227 19.0713 37.6025v259.498c0 12.3799 -7.92188 27.1816 -19.0713 37.6025c-8.9375 8.35156 -19.2363 13.1484 -26.9287 13.1484h-359
c-7.69238 0 -17.9912 -4.79688 -26.9287 -13.1484c-11.1494 -10.4209 -19.0713 -25.2227 -19.0713 -37.6025v-259.498c0 -12.3799 7.92188 -27.1816 19.0713 -37.6025zM597 -1h-359c-89.8408 0 -173 60.873 -173 175.436v264.129c0 114.562 83.1592 175.436 173 175.436h359
c89.8408 0 173 -60.873 173 -175.436v-264.129c0 -114.562 -83.1592 -175.436 -173 -175.436zM762 142z" />
    <glyph glyph-name="odieresis" unicode="&#xf6;" 
d="M581 810v-136h-128v136h128zM382 810v-136h-128v136h128zM211.071 139.148c8.9375 -8.35156 19.2363 -13.1484 26.9287 -13.1484h359c7.69238 0 17.9912 4.79688 26.9287 13.1484c11.1494 10.4209 19.0713 25.2227 19.0713 37.6025v259.498
c0 12.3799 -7.92188 27.1816 -19.0713 37.6025c-8.9375 8.35156 -19.2363 13.1484 -26.9287 13.1484h-359c-7.69238 0 -17.9912 -4.79688 -26.9287 -13.1484c-11.1494 -10.4209 -19.0713 -25.2227 -19.0713 -37.6025v-259.498c0 -12.3799 7.92188 -27.1816 19.0713 -37.6025
zM597 -1h-359c-89.8408 0 -173 60.873 -173 175.436v264.129c0 114.562 83.1592 175.436 173 175.436h359c89.8408 0 173 -60.873 173 -175.436v-264.129c0 -114.562 -83.1592 -175.436 -173 -175.436zM762 142z" />
    <glyph glyph-name="divide" unicode="&#xf7;" horiz-adv-x="497" 
d="M452 343v-101h-407v101h407zM179 227h128v-136h-128v136zM179 494h128v-136h-128v136z" />
    <glyph glyph-name="ugrave" unicode="&#xf9;" horiz-adv-x="838" 
d="M328.729 674h180.54l-223.5 151h-201.554zM773 614v-446.387c0 -105.379 -59.3779 -168.613 -165 -168.613h-378c-105.581 0 -165 63.25 -165 168.613v446.387h127v-443.46c0 -26.7314 7.85059 -44.54 29 -44.54h396c21.1494 0 29 17.8086 29 44.54v443.46h127z" />
    <glyph glyph-name="uacute" unicode="&#xfa;" horiz-adv-x="838" 
d="M509.271 674h-180.54l223.5 151h201.554zM773 614v-446.387c0 -105.379 -59.3779 -168.613 -165 -168.613h-378c-105.581 0 -165 63.25 -165 168.613v446.387h127v-443.46c0 -26.7314 7.85059 -44.54 29 -44.54h396c21.1494 0 29 17.8086 29 44.54v443.46h127z" />
    <glyph glyph-name="ucircumflex" unicode="&#xfb;" horiz-adv-x="838" 
d="M337.929 674h-166.326l193.958 167h126.603l174.234 -167h-167.064l-45.5967 11.5078l-28.208 30.1191l-24.792 -28.2715zM773 614v-446.387c0 -105.379 -59.3779 -168.613 -165 -168.613h-378c-105.581 0 -165 63.25 -165 168.613v446.387h127v-443.46
c0 -26.7314 7.85059 -44.54 29 -44.54h396c21.1494 0 29 17.8086 29 44.54v443.46h127z" />
    <glyph glyph-name="udieresis" unicode="&#xfc;" horiz-adv-x="838" 
d="M582.5 810v-136h-128v136h128zM383.5 810v-136h-128v136h128zM773 614v-446.387c0 -105.379 -59.3779 -168.613 -165 -168.613h-378c-105.581 0 -165 63.25 -165 168.613v446.387h127v-443.46c0 -26.7314 7.85059 -44.54 29 -44.54h396c21.1494 0 29 17.8086 29 44.54
v443.46h127z" />
    <glyph glyph-name="yacute" unicode="&#xfd;" horiz-adv-x="844" 
d="M512.325 690h-180.54l223.5 151h201.554zM14.2207 614h179.387l229.467 -251.984l234.369 251.984h172.24l-337.623 -376.016l-0.0507812 -237.984h-138.002l0.0527344 236.978z" />
    <glyph glyph-name="thorn" unicode="&#xfe;" horiz-adv-x="764" 
d="M282 119h244c27.1738 0 46 17.7109 46 34v148c0 21.249 -17.9639 41 -46 41h-244c-46.0166 0 -81.5596 -34.2344 -90 -43.1084v-133.406c5.2002 -4.71875 18.2373 -16.0059 34.8291 -26.4404c17.251 -10.8496 37.7422 -20.0449 55.1709 -20.0449zM65 614h127v-174.485
c17.0322 11.9102 49.0947 29.4854 90 29.4854h244c117.261 0 173 -72.3154 173 -168v-148c0 -99.9336 -76.5713 -161 -173 -161h-244c-41.3135 0 -73.0088 19.0576 -90 32.2471v-145.247h-127v735z" />
    <glyph glyph-name="ydieresis" unicode="&#xff;" horiz-adv-x="844" 
d="M585.452 810v-136h-128v136h128zM386.452 810v-136h-128v136h128zM14.2207 614h179.387l229.467 -251.984l234.369 251.984h172.24l-337.623 -376.016l-0.0507812 -237.984h-138.002l0.0527344 236.978z" />
    <glyph glyph-name="breve" unicode="&#x2d8;" horiz-adv-x="444" 
d="M151 792c0 -32.5098 38.1377 -46 72 -46c34.5957 0 74 16.5303 74 46v8h102v-8c0 -88.7598 -65.291 -148 -176 -148c-48.7012 0 -89.3154 9.64355 -119.617 29.4775c-38.0713 24.9199 -58.3828 65.2354 -58.3828 118.522v8h106v-8z" />
    <glyph glyph-name="uni02C9" unicode="&#x2c9;" horiz-adv-x="464" 
d="M45 800h374v-100.022l-374 1.04492v98.9775z" />
    <glyph glyph-name="ogonek" unicode="&#x2db;" horiz-adv-x="358" 
d="M181.057 -38.5342c15.3125 -1.41797 35.9658 -1.77441 59.2627 -1.77441c21.1104 0 43.0469 0.308594 64.6807 0.308594h8v-82h-8c-78.7812 0 -148.347 5.64551 -195.656 18.6553c-36.8096 10.1221 -64.3438 25.8203 -64.3438 51.1396
c0 24.7422 25.1699 43.6699 49.2549 57.1709c32.1094 18 64.4824 27.4414 66.4385 28.0342h147.652l-42.6113 -12.7393s-35.0156 -10.4727 -66.0518 -23.9209c-13.7139 -5.94238 -26.5381 -12.4854 -34.6582 -18.458c-6.75488 -4.96875 -9.02441 -8.96094 -9.02441 -10.5498
c0 0 3.05078 -3.82812 25.0566 -5.86621z" />
    <glyph glyph-name="ring" unicode="&#x2da;" horiz-adv-x="246" 
d="M104.498 536.856c0 -10.5703 7.94824 -18.4717 18.3906 -18.4717c10.5703 0 18.4707 7.94727 18.4707 18.3906c0 10.5723 -7.94629 18.4717 -18.3896 18.4717c-10.5703 0 -18.4717 -7.94727 -18.4717 -18.3906zM123 614c3.06738 0 6.13184 -0.182617 9.17676 -0.548828
c28.9346 -3.48535 51.7227 -22.8564 61.7461 -46.3262c4.10254 -9.60645 6.19043 -19.9346 6.19043 -30.3799c0 -3.06738 -0.182617 -6.13281 -0.547852 -9.17676c-3.48633 -28.9355 -22.8604 -51.7188 -46.3271 -61.7471
c-9.60645 -4.10156 -19.9346 -6.18945 -30.3789 -6.18945c-3.06836 0 -6.13477 0.182617 -9.17871 0.547852c-28.9316 3.48633 -51.7188 22.8604 -61.7441 46.3262c-4.10352 9.60645 -6.19141 19.9355 -6.19141 30.3799c0 3.06836 0.182617 6.13281 0.548828 9.17773
c3.48535 28.9307 22.8564 51.7217 46.3262 61.7461c9.60645 4.10254 19.9346 6.19043 30.3799 6.19043z" />
    <glyph glyph-name="caron" unicode="&#x2c7;" horiz-adv-x="586" 
d="M212 614h-166.326l193.958 -167h126.603l174.234 167h-167.064l-45.5967 -11.5078l-28.208 -30.1191l-24.792 28.2715zM521.808 614z" />
    <glyph glyph-name="Amacron" unicode="&#x100;" horiz-adv-x="900" 
d="M269.88 774.022h374v-100.022l-374 1.04492v98.9775zM303.075 221h296.614l-145.89 245.046zM240 101l-74 -101h-151.264l372.612 614h139.062l359.12 -614h-157.241l-67 101h-421.29z" />
    <glyph glyph-name="amacron" unicode="&#x101;" horiz-adv-x="900" 
d="M269.88 774.022h374v-100.022l-374 1.04492v98.9775zM303.075 221h296.614l-145.89 245.046zM240 101l-74 -101h-151.264l372.612 614h139.062l359.12 -614h-157.241l-67 101h-421.29z" />
    <glyph glyph-name="Abreve" unicode="&#x102;" horiz-adv-x="900" 
d="M385.88 822c0 -32.5098 38.1377 -46 72 -46c34.5957 0 74 16.5303 74 46v8h102v-8c0 -88.7598 -65.291 -148 -176 -148c-48.7012 0 -89.3154 9.64355 -119.617 29.4775c-38.0713 24.9199 -58.3828 65.2354 -58.3828 118.522v8h106v-8zM303.075 221h296.614
l-145.89 245.046zM240 101l-74 -101h-151.264l372.612 614h139.062l359.12 -614h-157.241l-67 101h-421.29z" />
    <glyph glyph-name="abreve" unicode="&#x103;" horiz-adv-x="900" 
d="M385.88 822c0 -32.5098 38.1377 -46 72 -46c34.5957 0 74 16.5303 74 46v8h102v-8c0 -88.7598 -65.291 -148 -176 -148c-48.7012 0 -89.3154 9.64355 -119.617 29.4775c-38.0713 24.9199 -58.3828 65.2354 -58.3828 118.522v8h106v-8zM303.075 221h296.614
l-145.89 245.046zM240 101l-74 -101h-151.264l372.612 614h139.062l359.12 -614h-157.241l-67 101h-421.29z" />
    <glyph glyph-name="Aogonek" unicode="&#x104;" horiz-adv-x="900" 
d="M470.497 -66.3672c15.3125 -1.41797 35.9658 -1.77441 59.2627 -1.77441c21.1104 0 43.0469 0.308594 64.6807 0.308594h8v-82h-8c-78.7812 0 -148.347 5.64551 -195.656 18.6553c-36.8096 10.1221 -64.3438 25.8203 -64.3438 51.1396
c0 24.7422 25.1699 43.6699 49.2549 57.1709c32.1094 18 64.4824 27.4414 66.4385 28.0342h147.652l-42.6113 -12.7393s-35.0156 -10.4727 -66.0518 -23.9209c-13.7139 -5.94238 -26.5381 -12.4854 -34.6582 -18.458c-6.75488 -4.96875 -9.02441 -8.96094 -9.02441 -10.5498
c0 0 3.05078 -3.82812 25.0566 -5.86621zM303.075 221h296.614l-145.89 245.046zM240 101l-74 -101h-151.264l372.612 614h139.062l359.12 -614h-157.241l-67 101h-421.29z" />
    <glyph glyph-name="aogonek" unicode="&#x105;" horiz-adv-x="900" 
d="M470.497 -66.3672c15.3125 -1.41797 35.9658 -1.77441 59.2627 -1.77441c21.1104 0 43.0469 0.308594 64.6807 0.308594h8v-82h-8c-78.7812 0 -148.347 5.64551 -195.656 18.6553c-36.8096 10.1221 -64.3438 25.8203 -64.3438 51.1396
c0 24.7422 25.1699 43.6699 49.2549 57.1709c32.1094 18 64.4824 27.4414 66.4385 28.0342h147.652l-42.6113 -12.7393s-35.0156 -10.4727 -66.0518 -23.9209c-13.7139 -5.94238 -26.5381 -12.4854 -34.6582 -18.458c-6.75488 -4.96875 -9.02441 -8.96094 -9.02441 -10.5498
c0 0 3.05078 -3.82812 25.0566 -5.86621zM303.075 221h296.614l-145.89 245.046zM240 101l-74 -101h-151.264l372.612 614h139.062l359.12 -614h-157.241l-67 101h-421.29z" />
    <glyph glyph-name="Cacute" unicode="&#x106;" horiz-adv-x="836" 
d="M505.873 690h-180.54l223.5 151h201.554zM65 156.836v299.252c0 112.114 55.4141 157.912 161 157.912h379c42.4961 0 79.9424 -5.66895 108.915 -24.041c36.6572 -23.2451 57.085 -65.7256 57.085 -134.959v-104h-127v104c0 9.14258 -1.57617 16.627 -4.71582 21.6729
c-3.68848 5.92969 -10.0762 10.3271 -24.2842 10.3271h-389c-10.2324 0 -17.96 -2.01172 -23.1768 -5.70215c-6.28906 -4.44922 -10.8232 -12.4121 -10.8232 -27.8242v-294.073c0 -12.9209 2.16016 -21.8672 5.32715 -27.292
c3.7334 -6.39551 8.79492 -9.1084 17.6729 -9.1084h400c21.5117 0 29 12.4004 29 27v108h127v-108c0 -66.2314 -17.4902 -107.593 -53.2207 -130.398c-28.1904 -17.9932 -65.8398 -23.6016 -111.779 -23.6016h-391c-40.7988 0 -75.2568 6.56055 -101.134 25.9434
c-32.5781 24.4014 -48.8662 67.2588 -48.8662 134.893z" />
    <glyph glyph-name="cacute" unicode="&#x107;" horiz-adv-x="836" 
d="M505.873 690h-180.54l223.5 151h201.554zM65 156.836v299.252c0 112.114 55.4141 157.912 161 157.912h379c42.4961 0 79.9424 -5.66895 108.915 -24.041c36.6572 -23.2451 57.085 -65.7256 57.085 -134.959v-104h-127v104c0 9.14258 -1.57617 16.627 -4.71582 21.6729
c-3.68848 5.92969 -10.0762 10.3271 -24.2842 10.3271h-389c-10.2324 0 -17.96 -2.01172 -23.1768 -5.70215c-6.28906 -4.44922 -10.8232 -12.4121 -10.8232 -27.8242v-294.073c0 -12.9209 2.16016 -21.8672 5.32715 -27.292
c3.7334 -6.39551 8.79492 -9.1084 17.6729 -9.1084h400c21.5117 0 29 12.4004 29 27v108h127v-108c0 -66.2314 -17.4902 -107.593 -53.2207 -130.398c-28.1904 -17.9932 -65.8398 -23.6016 -111.779 -23.6016h-391c-40.7988 0 -75.2568 6.56055 -101.134 25.9434
c-32.5781 24.4014 -48.8662 67.2588 -48.8662 134.893z" />
    <glyph glyph-name="Ccircumflex" unicode="&#x108;" horiz-adv-x="836" 
d="M334.429 674h-166.326l193.958 167h126.603l174.234 -167h-167.064l-45.5967 11.5078l-28.208 30.1191l-24.792 -28.2715zM65 156.836v299.252c0 112.114 55.4141 157.912 161 157.912h379c42.4961 0 79.9424 -5.66895 108.915 -24.041
c36.6572 -23.2451 57.085 -65.7256 57.085 -134.959v-104h-127v104c0 9.14258 -1.57617 16.627 -4.71582 21.6729c-3.68848 5.92969 -10.0762 10.3271 -24.2842 10.3271h-389c-10.2324 0 -17.96 -2.01172 -23.1768 -5.70215
c-6.28906 -4.44922 -10.8232 -12.4121 -10.8232 -27.8242v-294.073c0 -12.9209 2.16016 -21.8672 5.32715 -27.292c3.7334 -6.39551 8.79492 -9.1084 17.6729 -9.1084h400c21.5117 0 29 12.4004 29 27v108h127v-108c0 -66.2314 -17.4902 -107.593 -53.2207 -130.398
c-28.1904 -17.9932 -65.8398 -23.6016 -111.779 -23.6016h-391c-40.7988 0 -75.2568 6.56055 -101.134 25.9434c-32.5781 24.4014 -48.8662 67.2588 -48.8662 134.893z" />
    <glyph glyph-name="ccircumflex" unicode="&#x109;" horiz-adv-x="836" 
d="M334.429 674h-166.326l193.958 167h126.603l174.234 -167h-167.064l-45.5967 11.5078l-28.208 30.1191l-24.792 -28.2715zM65 156.836v299.252c0 112.114 55.4141 157.912 161 157.912h379c42.4961 0 79.9424 -5.66895 108.915 -24.041
c36.6572 -23.2451 57.085 -65.7256 57.085 -134.959v-104h-127v104c0 9.14258 -1.57617 16.627 -4.71582 21.6729c-3.68848 5.92969 -10.0762 10.3271 -24.2842 10.3271h-389c-10.2324 0 -17.96 -2.01172 -23.1768 -5.70215
c-6.28906 -4.44922 -10.8232 -12.4121 -10.8232 -27.8242v-294.073c0 -12.9209 2.16016 -21.8672 5.32715 -27.292c3.7334 -6.39551 8.79492 -9.1084 17.6729 -9.1084h400c21.5117 0 29 12.4004 29 27v108h127v-108c0 -66.2314 -17.4902 -107.593 -53.2207 -130.398
c-28.1904 -17.9932 -65.8398 -23.6016 -111.779 -23.6016h-391c-40.7988 0 -75.2568 6.56055 -101.134 25.9434c-32.5781 24.4014 -48.8662 67.2588 -48.8662 134.893z" />
    <glyph glyph-name="Ccaron" unicode="&#x10c;" horiz-adv-x="836" 
d="M334.429 841h-166.326l193.958 -167h126.603l174.234 167h-167.064l-45.5967 -11.5078l-28.208 -30.1191l-24.792 28.2715zM65 156.836v299.252c0 112.114 55.4141 157.912 161 157.912h379c42.4961 0 79.9424 -5.66895 108.915 -24.041
c36.6572 -23.2451 57.085 -65.7256 57.085 -134.959v-104h-127v104c0 9.14258 -1.57617 16.627 -4.71582 21.6729c-3.68848 5.92969 -10.0762 10.3271 -24.2842 10.3271h-389c-10.2324 0 -17.96 -2.01172 -23.1768 -5.70215
c-6.28906 -4.44922 -10.8232 -12.4121 -10.8232 -27.8242v-294.073c0 -12.9209 2.16016 -21.8672 5.32715 -27.292c3.7334 -6.39551 8.79492 -9.1084 17.6729 -9.1084h400c21.5117 0 29 12.4004 29 27v108h127v-108c0 -66.2314 -17.4902 -107.593 -53.2207 -130.398
c-28.1904 -17.9932 -65.8398 -23.6016 -111.779 -23.6016h-391c-40.7988 0 -75.2568 6.56055 -101.134 25.9434c-32.5781 24.4014 -48.8662 67.2588 -48.8662 134.893z" />
    <glyph glyph-name="ccaron" unicode="&#x10d;" horiz-adv-x="836" 
d="M334.429 841h-166.326l193.958 -167h126.603l174.234 167h-167.064l-45.5967 -11.5078l-28.208 -30.1191l-24.792 28.2715zM65 156.836v299.252c0 112.114 55.4141 157.912 161 157.912h379c42.4961 0 79.9424 -5.66895 108.915 -24.041
c36.6572 -23.2451 57.085 -65.7256 57.085 -134.959v-104h-127v104c0 9.14258 -1.57617 16.627 -4.71582 21.6729c-3.68848 5.92969 -10.0762 10.3271 -24.2842 10.3271h-389c-10.2324 0 -17.96 -2.01172 -23.1768 -5.70215
c-6.28906 -4.44922 -10.8232 -12.4121 -10.8232 -27.8242v-294.073c0 -12.9209 2.16016 -21.8672 5.32715 -27.292c3.7334 -6.39551 8.79492 -9.1084 17.6729 -9.1084h400c21.5117 0 29 12.4004 29 27v108h127v-108c0 -66.2314 -17.4902 -107.593 -53.2207 -130.398
c-28.1904 -17.9932 -65.8398 -23.6016 -111.779 -23.6016h-391c-40.7988 0 -75.2568 6.56055 -101.134 25.9434c-32.5781 24.4014 -48.8662 67.2588 -48.8662 134.893z" />
    <glyph glyph-name="Dcaron" unicode="&#x10e;" horiz-adv-x="856" 
d="M343.429 841h-166.326l193.958 -167h126.603l174.234 167h-167.064l-45.5967 -11.5078l-28.208 -30.1191l-24.792 28.2715zM192 487v-360h434c4.11035 0 8.85645 2.07422 13.6699 6.89062c9.66211 9.66699 17.3301 28.8135 17.3301 47.6836v261.383
c0 25.3096 -30.5039 44.043 -44 44.043h-421zM65 614h532c113.64 0 187 -54.5859 187 -168.606v-266.066c0 -48.5898 -9.39258 -89.4131 -31.1064 -120.075c-27.3379 -38.6025 -73.3213 -59.252 -138.894 -59.252h-549v614z" />
    <glyph glyph-name="Emacron" unicode="&#x112;" horiz-adv-x="832" 
d="M217 774.022h374v-100.022l-374 1.04492v98.9775zM65 0v614h678v-127h-551v-105h512v-127h-512v-128h575v-127h-702z" />
    <glyph glyph-name="emacron" unicode="&#x113;" horiz-adv-x="832" 
d="M217 774.022h374v-100.022l-374 1.04492v98.9775zM65 0v614h678v-127h-551v-105h512v-127h-512v-128h575v-127h-702z" />
    <glyph glyph-name="Ebreve" unicode="&#x114;" horiz-adv-x="832" 
d="M333 822c0 -32.5098 38.1377 -46 72 -46c34.5957 0 74 16.5303 74 46v8h102v-8c0 -88.7598 -65.291 -148 -176 -148c-48.7012 0 -89.3154 9.64355 -119.617 29.4775c-38.0713 24.9199 -58.3828 65.2354 -58.3828 118.522v8h106v-8zM65 0v614h678v-127h-551v-105h512v-127
h-512v-128h575v-127h-702z" />
    <glyph glyph-name="ebreve" unicode="&#x115;" horiz-adv-x="832" 
d="M333 822c0 -32.5098 38.1377 -46 72 -46c34.5957 0 74 16.5303 74 46v8h102v-8c0 -88.7598 -65.291 -148 -176 -148c-48.7012 0 -89.3154 9.64355 -119.617 29.4775c-38.0713 24.9199 -58.3828 65.2354 -58.3828 118.522v8h106v-8zM65 0v614h678v-127h-551v-105h512v-127
h-512v-128h575v-127h-702z" />
    <glyph glyph-name="dotlessi" unicode="&#x131;" horiz-adv-x="257" 
d="M65 0v614h127v-614h-127z" />
    <glyph glyph-name="hungarumlaut" unicode="&#x2dd;" horiz-adv-x="797" 
d="M507.04 463h-180.54l223.5 151h201.554zM226.486 463h-180.54l223.5 151h201.554z" />
    <glyph glyph-name="dotaccent" unicode="&#x2d9;" horiz-adv-x="252" 
d="M126 614c3.19727 0 6.39258 -0.19043 9.56738 -0.572266c30.1904 -3.63477 53.9854 -23.8535 64.4424 -48.3369c4.27344 -10.0098 6.46191 -20.832 6.46191 -31.7129c0 -3.19727 -0.189453 -6.3916 -0.572266 -9.56641
c-3.63477 -30.1904 -23.8555 -53.9844 -48.3369 -64.4424c-10.0088 -4.27441 -20.832 -6.46289 -31.7129 -6.46289c-3.19727 0 -6.38965 0.189453 -9.56641 0.573242c-30.1875 3.63379 -53.9854 23.8564 -64.4414 48.3359
c-4.27539 10.0088 -6.46387 20.832 -6.46387 31.7129c0 3.19727 0.189453 6.39062 0.573242 9.56738c3.63379 30.1875 23.8555 53.9854 48.3369 64.4424c10.0088 4.27344 20.8311 6.46191 31.7119 6.46191z" />
    <glyph glyph-name="Edotaccent" unicode="&#x116;" horiz-adv-x="832" 
d="M404.075 835.094c3.19727 0 6.39258 -0.19043 9.56738 -0.572266c30.1904 -3.63477 53.9854 -23.8535 64.4424 -48.3369c4.27344 -10.0098 6.46191 -20.832 6.46191 -31.7129c0 -3.19727 -0.189453 -6.3916 -0.572266 -9.56641
c-3.63477 -30.1904 -23.8555 -53.9844 -48.3369 -64.4424c-10.0088 -4.27441 -20.832 -6.46289 -31.7129 -6.46289c-3.19727 0 -6.38965 0.189453 -9.56641 0.573242c-30.1875 3.63379 -53.9854 23.8564 -64.4414 48.3359
c-4.27539 10.0088 -6.46387 20.832 -6.46387 31.7129c0 3.19727 0.189453 6.39062 0.573242 9.56738c3.63379 30.1875 23.8555 53.9854 48.3369 64.4424c10.0088 4.27344 20.8311 6.46191 31.7119 6.46191zM65 0v614h678v-127h-551v-105h512v-127h-512v-128h575v-127h-702z
" />
    <glyph glyph-name="edotaccent" unicode="&#x117;" horiz-adv-x="832" 
d="M404.075 835.094c3.19727 0 6.39258 -0.19043 9.56738 -0.572266c30.1904 -3.63477 53.9854 -23.8535 64.4424 -48.3369c4.27344 -10.0098 6.46191 -20.832 6.46191 -31.7129c0 -3.19727 -0.189453 -6.3916 -0.572266 -9.56641
c-3.63477 -30.1904 -23.8555 -53.9844 -48.3369 -64.4424c-10.0088 -4.27441 -20.832 -6.46289 -31.7129 -6.46289c-3.19727 0 -6.38965 0.189453 -9.56641 0.573242c-30.1875 3.63379 -53.9854 23.8564 -64.4414 48.3359
c-4.27539 10.0088 -6.46387 20.832 -6.46387 31.7129c0 3.19727 0.189453 6.39062 0.573242 9.56738c3.63379 30.1875 23.8555 53.9854 48.3369 64.4424c10.0088 4.27344 20.8311 6.46191 31.7119 6.46191zM65 0v614h678v-127h-551v-105h512v-127h-512v-128h575v-127h-702z
" />
    <glyph glyph-name="Eogonek" unicode="&#x118;" horiz-adv-x="832" 
d="M384.557 -66.3672c15.3125 -1.41797 35.9658 -1.77441 59.2627 -1.77441c21.1104 0 43.0469 0.308594 64.6807 0.308594h8v-82h-8c-78.7812 0 -148.347 5.64551 -195.656 18.6553c-36.8096 10.1221 -64.3438 25.8203 -64.3438 51.1396
c0 24.7422 25.1699 43.6699 49.2549 57.1709c32.1094 18 64.4824 27.4414 66.4385 28.0342h147.652l-42.6113 -12.7393s-35.0156 -10.4727 -66.0518 -23.9209c-13.7139 -5.94238 -26.5381 -12.4854 -34.6582 -18.458c-6.75488 -4.96875 -9.02441 -8.96094 -9.02441 -10.5498
c0 0 3.05078 -3.82812 25.0566 -5.86621zM65 0v614h678v-127h-551v-105h512v-127h-512v-128h575v-127h-702z" />
    <glyph glyph-name="eogonek" unicode="&#x119;" horiz-adv-x="832" 
d="M384.557 -66.3672c15.3125 -1.41797 35.9658 -1.77441 59.2627 -1.77441c21.1104 0 43.0469 0.308594 64.6807 0.308594h8v-82h-8c-78.7812 0 -148.347 5.64551 -195.656 18.6553c-36.8096 10.1221 -64.3438 25.8203 -64.3438 51.1396
c0 24.7422 25.1699 43.6699 49.2549 57.1709c32.1094 18 64.4824 27.4414 66.4385 28.0342h147.652l-42.6113 -12.7393s-35.0156 -10.4727 -66.0518 -23.9209c-13.7139 -5.94238 -26.5381 -12.4854 -34.6582 -18.458c-6.75488 -4.96875 -9.02441 -8.96094 -9.02441 -10.5498
c0 0 3.05078 -3.82812 25.0566 -5.86621zM65 0v614h678v-127h-551v-105h512v-127h-512v-128h575v-127h-702z" />
    <glyph glyph-name="Ecaron" unicode="&#x11a;" horiz-adv-x="832" 
d="M322.929 841h-166.326l193.958 -167h126.603l174.234 167h-167.064l-45.5967 -11.5078l-28.208 -30.1191l-24.792 28.2715zM65 0v614h678v-127h-551v-105h512v-127h-512v-128h575v-127h-702z" />
    <glyph glyph-name="ecaron" unicode="&#x11b;" horiz-adv-x="832" 
d="M322.929 841h-166.326l193.958 -167h126.603l174.234 167h-167.064l-45.5967 -11.5078l-28.208 -30.1191l-24.792 28.2715zM65 0v614h678v-127h-551v-105h512v-127h-512v-128h575v-127h-702z" />
    <glyph glyph-name="Gcircumflex" unicode="&#x11c;" horiz-adv-x="839" 
d="M335.929 674h-166.326l193.958 167h126.603l174.234 -167h-167.064l-45.5967 11.5078l-28.208 30.1191l-24.792 -28.2715zM65 156.836v299.252c0 112.114 55.4141 157.912 161 157.912h382c42.4961 0 79.9424 -5.66895 108.915 -24.041
c36.6572 -23.2451 57.085 -65.7256 57.085 -134.959v-83h-127v83c0 9.14258 -1.57617 16.627 -4.71582 21.6729c-3.68848 5.92969 -10.0762 10.3271 -24.2842 10.3271h-392c-10.2324 0 -17.96 -2.01172 -23.1768 -5.70215
c-6.28906 -4.44922 -10.8232 -12.4121 -10.8232 -27.8242v-294.073c0 -12.9209 2.16016 -21.8672 5.32715 -27.292c3.7334 -6.39551 8.79492 -9.1084 17.6729 -9.1084h403c21.5117 0 29 11.2197 29 24.4287v51.5713h-265v116h392v-168.768
c0 -64.6113 -17.4902 -104.96 -53.2207 -127.208c-28.1904 -17.5527 -65.8398 -23.0244 -111.779 -23.0244h-394c-40.7988 0 -75.2568 6.56055 -101.134 25.9434c-32.5781 24.4014 -48.8662 67.2588 -48.8662 134.893z" />
    <glyph glyph-name="gcircumflex" unicode="&#x11d;" horiz-adv-x="839" 
d="M335.929 674h-166.326l193.958 167h126.603l174.234 -167h-167.064l-45.5967 11.5078l-28.208 30.1191l-24.792 -28.2715zM65 156.836v299.252c0 112.114 55.4141 157.912 161 157.912h382c42.4961 0 79.9424 -5.66895 108.915 -24.041
c36.6572 -23.2451 57.085 -65.7256 57.085 -134.959v-83h-127v83c0 9.14258 -1.57617 16.627 -4.71582 21.6729c-3.68848 5.92969 -10.0762 10.3271 -24.2842 10.3271h-392c-10.2324 0 -17.96 -2.01172 -23.1768 -5.70215
c-6.28906 -4.44922 -10.8232 -12.4121 -10.8232 -27.8242v-294.073c0 -12.9209 2.16016 -21.8672 5.32715 -27.292c3.7334 -6.39551 8.79492 -9.1084 17.6729 -9.1084h403c21.5117 0 29 11.2197 29 24.4287v51.5713h-265v116h392v-168.768
c0 -64.6113 -17.4902 -104.96 -53.2207 -127.208c-28.1904 -17.5527 -65.8398 -23.0244 -111.779 -23.0244h-394c-40.7988 0 -75.2568 6.56055 -101.134 25.9434c-32.5781 24.4014 -48.8662 67.2588 -48.8662 134.893z" />
    <glyph glyph-name="Gbreve" unicode="&#x11e;" horiz-adv-x="839" 
d="M346 822c0 -32.5098 38.1377 -46 72 -46c34.5957 0 74 16.5303 74 46v8h102v-8c0 -88.7598 -65.291 -148 -176 -148c-48.7012 0 -89.3154 9.64355 -119.617 29.4775c-38.0713 24.9199 -58.3828 65.2354 -58.3828 118.522v8h106v-8zM65 156.836v299.252
c0 112.114 55.4141 157.912 161 157.912h382c42.4961 0 79.9424 -5.66895 108.915 -24.041c36.6572 -23.2451 57.085 -65.7256 57.085 -134.959v-83h-127v83c0 9.14258 -1.57617 16.627 -4.71582 21.6729c-3.68848 5.92969 -10.0762 10.3271 -24.2842 10.3271h-392
c-10.2324 0 -17.96 -2.01172 -23.1768 -5.70215c-6.28906 -4.44922 -10.8232 -12.4121 -10.8232 -27.8242v-294.073c0 -12.9209 2.16016 -21.8672 5.32715 -27.292c3.7334 -6.39551 8.79492 -9.1084 17.6729 -9.1084h403c21.5117 0 29 11.2197 29 24.4287v51.5713h-265v116
h392v-168.768c0 -64.6113 -17.4902 -104.96 -53.2207 -127.208c-28.1904 -17.5527 -65.8398 -23.0244 -111.779 -23.0244h-394c-40.7988 0 -75.2568 6.56055 -101.134 25.9434c-32.5781 24.4014 -48.8662 67.2588 -48.8662 134.893z" />
    <glyph glyph-name="gbreve" unicode="&#x11f;" horiz-adv-x="839" 
d="M346 822c0 -32.5098 38.1377 -46 72 -46c34.5957 0 74 16.5303 74 46v8h102v-8c0 -88.7598 -65.291 -148 -176 -148c-48.7012 0 -89.3154 9.64355 -119.617 29.4775c-38.0713 24.9199 -58.3828 65.2354 -58.3828 118.522v8h106v-8zM65 156.836v299.252
c0 112.114 55.4141 157.912 161 157.912h382c42.4961 0 79.9424 -5.66895 108.915 -24.041c36.6572 -23.2451 57.085 -65.7256 57.085 -134.959v-83h-127v83c0 9.14258 -1.57617 16.627 -4.71582 21.6729c-3.68848 5.92969 -10.0762 10.3271 -24.2842 10.3271h-392
c-10.2324 0 -17.96 -2.01172 -23.1768 -5.70215c-6.28906 -4.44922 -10.8232 -12.4121 -10.8232 -27.8242v-294.073c0 -12.9209 2.16016 -21.8672 5.32715 -27.292c3.7334 -6.39551 8.79492 -9.1084 17.6729 -9.1084h403c21.5117 0 29 11.2197 29 24.4287v51.5713h-265v116
h392v-168.768c0 -64.6113 -17.4902 -104.96 -53.2207 -127.208c-28.1904 -17.5527 -65.8398 -23.0244 -111.779 -23.0244h-394c-40.7988 0 -75.2568 6.56055 -101.134 25.9434c-32.5781 24.4014 -48.8662 67.2588 -48.8662 134.893z" />
    <glyph glyph-name="Gdotaccent" unicode="&#x120;" horiz-adv-x="839" 
d="M417.075 835.094c3.19727 0 6.39258 -0.19043 9.56738 -0.572266c30.1904 -3.63477 53.9854 -23.8535 64.4424 -48.3369c4.27344 -10.0098 6.46191 -20.832 6.46191 -31.7129c0 -3.19727 -0.189453 -6.3916 -0.572266 -9.56641
c-3.63477 -30.1904 -23.8555 -53.9844 -48.3369 -64.4424c-10.0088 -4.27441 -20.832 -6.46289 -31.7129 -6.46289c-3.19727 0 -6.38965 0.189453 -9.56641 0.573242c-30.1875 3.63379 -53.9854 23.8564 -64.4414 48.3359
c-4.27539 10.0088 -6.46387 20.832 -6.46387 31.7129c0 3.19727 0.189453 6.39062 0.573242 9.56738c3.63379 30.1875 23.8555 53.9854 48.3369 64.4424c10.0088 4.27344 20.8311 6.46191 31.7119 6.46191zM65 156.836v299.252c0 112.114 55.4141 157.912 161 157.912h382
c42.4961 0 79.9424 -5.66895 108.915 -24.041c36.6572 -23.2451 57.085 -65.7256 57.085 -134.959v-83h-127v83c0 9.14258 -1.57617 16.627 -4.71582 21.6729c-3.68848 5.92969 -10.0762 10.3271 -24.2842 10.3271h-392c-10.2324 0 -17.96 -2.01172 -23.1768 -5.70215
c-6.28906 -4.44922 -10.8232 -12.4121 -10.8232 -27.8242v-294.073c0 -12.9209 2.16016 -21.8672 5.32715 -27.292c3.7334 -6.39551 8.79492 -9.1084 17.6729 -9.1084h403c21.5117 0 29 11.2197 29 24.4287v51.5713h-265v116h392v-168.768
c0 -64.6113 -17.4902 -104.96 -53.2207 -127.208c-28.1904 -17.5527 -65.8398 -23.0244 -111.779 -23.0244h-394c-40.7988 0 -75.2568 6.56055 -101.134 25.9434c-32.5781 24.4014 -48.8662 67.2588 -48.8662 134.893z" />
    <glyph glyph-name="gdotaccent" unicode="&#x121;" horiz-adv-x="839" 
d="M417.075 835.094c3.19727 0 6.39258 -0.19043 9.56738 -0.572266c30.1904 -3.63477 53.9854 -23.8535 64.4424 -48.3369c4.27344 -10.0098 6.46191 -20.832 6.46191 -31.7129c0 -3.19727 -0.189453 -6.3916 -0.572266 -9.56641
c-3.63477 -30.1904 -23.8555 -53.9844 -48.3369 -64.4424c-10.0088 -4.27441 -20.832 -6.46289 -31.7129 -6.46289c-3.19727 0 -6.38965 0.189453 -9.56641 0.573242c-30.1875 3.63379 -53.9854 23.8564 -64.4414 48.3359
c-4.27539 10.0088 -6.46387 20.832 -6.46387 31.7129c0 3.19727 0.189453 6.39062 0.573242 9.56738c3.63379 30.1875 23.8555 53.9854 48.3369 64.4424c10.0088 4.27344 20.8311 6.46191 31.7119 6.46191zM65 156.836v299.252c0 112.114 55.4141 157.912 161 157.912h382
c42.4961 0 79.9424 -5.66895 108.915 -24.041c36.6572 -23.2451 57.085 -65.7256 57.085 -134.959v-83h-127v83c0 9.14258 -1.57617 16.627 -4.71582 21.6729c-3.68848 5.92969 -10.0762 10.3271 -24.2842 10.3271h-392c-10.2324 0 -17.96 -2.01172 -23.1768 -5.70215
c-6.28906 -4.44922 -10.8232 -12.4121 -10.8232 -27.8242v-294.073c0 -12.9209 2.16016 -21.8672 5.32715 -27.292c3.7334 -6.39551 8.79492 -9.1084 17.6729 -9.1084h403c21.5117 0 29 11.2197 29 24.4287v51.5713h-265v116h392v-168.768
c0 -64.6113 -17.4902 -104.96 -53.2207 -127.208c-28.1904 -17.5527 -65.8398 -23.0244 -111.779 -23.0244h-394c-40.7988 0 -75.2568 6.56055 -101.134 25.9434c-32.5781 24.4014 -48.8662 67.2588 -48.8662 134.893z" />
    <glyph glyph-name="Hcircumflex" unicode="&#x124;" horiz-adv-x="875" 
d="M356.429 674h-166.326l193.958 167h126.603l174.234 -167h-167.064l-45.5967 11.5078l-28.208 30.1191l-24.792 -28.2715zM65 0v614h127v-256h491v256h127v-614h-127v231h-491v-231h-127z" />
    <glyph glyph-name="hcircumflex" unicode="&#x125;" horiz-adv-x="875" 
d="M356.429 674h-166.326l193.958 167h126.603l174.234 -167h-167.064l-45.5967 11.5078l-28.208 30.1191l-24.792 -28.2715zM65 0v614h127v-256h491v256h127v-614h-127v231h-491v-231h-127z" />
    <glyph glyph-name="itilde" unicode="&#x129;" horiz-adv-x="257" 
d="M-43.3652 763.744c11.2861 29.9941 30.292 62.2559 64.3652 62.2559c52.2549 0 144.766 -33.8193 203.138 -49.0176c5.70508 9.67969 13.7568 40.4609 14.6719 49.0176h79.9043l-0.743164 -7.86133c-0.0283203 -0.298828 -3.99219 -43.0273 -19.0908 -81.8252
c-11.708 -30.085 -31.5215 -62.0938 -66.5801 -62.0938c-46.2783 0 -143.456 34.1387 -198.21 49.0713c-6.37402 1.73828 -12.6328 -39.5938 -12.7881 -49.291h-84.0156l0.743164 7.8623c0.0273438 0.288086 3.99707 43.0625 18.6055 81.8818zM65 0v614h127v-614h-127z" />
    <glyph glyph-name="Imacron" unicode="&#x12a;" horiz-adv-x="257" 
d="M-58.5 774.022h374v-100.022l-374 1.04492v98.9775zM65 0v614h127v-614h-127z" />
    <glyph glyph-name="imacron" unicode="&#x12b;" horiz-adv-x="257" 
d="M-59 774.022h374v-100.022l-374 1.04492v98.9775zM65 0v614h127v-614h-127z" />
    <glyph glyph-name="Ibreve" unicode="&#x12c;" horiz-adv-x="257" 
d="M57.5 822c0 -32.5098 38.1377 -46 72 -46c34.5957 0 74 16.5303 74 46v8h102v-8c0 -88.7598 -65.291 -148 -176 -148c-48.7012 0 -89.3154 9.64355 -119.617 29.4775c-38.0713 24.9199 -58.3828 65.2354 -58.3828 118.522v8h106v-8zM65 0v614h127v-614h-127z" />
    <glyph glyph-name="ibreve" unicode="&#x12d;" horiz-adv-x="257" 
d="M57 822c0 -32.5098 38.1377 -46 72 -46c34.5957 0 74 16.5303 74 46v8h102v-8c0 -88.7598 -65.291 -148 -176 -148c-48.7012 0 -89.3154 9.64355 -119.617 29.4775c-38.0713 24.9199 -58.3828 65.2354 -58.3828 118.522v8h106v-8zM65 0v614h127v-614h-127z" />
    <glyph glyph-name="Iogonek" unicode="&#x12e;" horiz-adv-x="257" 
d="M75.0371 -66.3672c15.3125 -1.41797 35.9658 -1.77441 59.2627 -1.77441c21.1104 0 43.0469 0.308594 64.6807 0.308594h8v-82h-8c-78.7812 0 -148.347 5.64551 -195.656 18.6553c-36.8096 10.1221 -64.3438 25.8203 -64.3438 51.1396
c0 24.7422 25.1699 43.6699 49.2549 57.1709c32.1094 18 64.4824 27.4414 66.4385 28.0342h147.652l-42.6113 -12.7393s-35.0156 -10.4727 -66.0518 -23.9209c-13.7139 -5.94238 -26.5381 -12.4854 -34.6582 -18.458c-6.75488 -4.96875 -9.02441 -8.96094 -9.02441 -10.5498
c0 0 3.05078 -3.82812 25.0566 -5.86621zM65 0v614h127v-614h-127z" />
    <glyph glyph-name="iogonek" unicode="&#x12f;" horiz-adv-x="257" 
d="M75.0371 -66.3672c15.3125 -1.41797 35.9658 -1.77441 59.2627 -1.77441c21.1104 0 43.0469 0.308594 64.6807 0.308594h8v-82h-8c-78.7812 0 -148.347 5.64551 -195.656 18.6553c-36.8096 10.1221 -64.3438 25.8203 -64.3438 51.1396
c0 24.7422 25.1699 43.6699 49.2549 57.1709c32.1094 18 64.4824 27.4414 66.4385 28.0342h147.652l-42.6113 -12.7393s-35.0156 -10.4727 -66.0518 -23.9209c-13.7139 -5.94238 -26.5381 -12.4854 -34.6582 -18.458c-6.75488 -4.96875 -9.02441 -8.96094 -9.02441 -10.5498
c0 0 3.05078 -3.82812 25.0566 -5.86621zM65 0v614h127v-614h-127z" />
    <glyph glyph-name="Idotaccent" unicode="&#x130;" horiz-adv-x="257" 
d="M128.575 835.094c3.19727 0 6.39258 -0.19043 9.56738 -0.572266c30.1904 -3.63477 53.9854 -23.8535 64.4424 -48.3369c4.27344 -10.0098 6.46191 -20.832 6.46191 -31.7129c0 -3.19727 -0.189453 -6.3916 -0.572266 -9.56641
c-3.63477 -30.1904 -23.8555 -53.9844 -48.3369 -64.4424c-10.0088 -4.27441 -20.832 -6.46289 -31.7129 -6.46289c-3.19727 0 -6.38965 0.189453 -9.56641 0.573242c-30.1875 3.63379 -53.9854 23.8564 -64.4414 48.3359
c-4.27539 10.0088 -6.46387 20.832 -6.46387 31.7129c0 3.19727 0.189453 6.39062 0.573242 9.56738c3.63379 30.1875 23.8555 53.9854 48.3369 64.4424c10.0088 4.27344 20.8311 6.46191 31.7119 6.46191zM65 0v614h127v-614h-127z" />
    <glyph glyph-name="Jcircumflex" unicode="&#x134;" horiz-adv-x="802" 
d="M592.429 674h-166.326l193.958 167h126.603l174.234 -167h-167.064l-45.5967 11.5078l-28.208 30.1191l-24.792 -28.2715zM568 -2h-345c-102.976 0 -158 59.7441 -158 159v118h127v-118c0 -16.2168 8.7334 -32 31 -32h361c3.2207 0 7.12695 1.47754 11.1113 4.97949
c8.00391 7.03516 14.8887 21.3877 14.8887 37.626v446.395h127v-449.329c0 -67.2354 -17.667 -111.998 -53.876 -138.056c-28.7451 -20.6875 -67.5908 -28.6152 -115.124 -28.6152z" />
    <glyph glyph-name="jcircumflex" unicode="&#x135;" horiz-adv-x="802" 
d="M592.429 674h-166.326l193.958 167h126.603l174.234 -167h-167.064l-45.5967 11.5078l-28.208 30.1191l-24.792 -28.2715zM568 -2h-345c-102.976 0 -158 59.7441 -158 159v118h127v-118c0 -16.2168 8.7334 -32 31 -32h361c3.2207 0 7.12695 1.47754 11.1113 4.97949
c8.00391 7.03516 14.8887 21.3877 14.8887 37.626v446.395h127v-449.329c0 -67.2354 -17.667 -111.998 -53.876 -138.056c-28.7451 -20.6875 -67.5908 -28.6152 -115.124 -28.6152z" />
    <glyph glyph-name="Itilde" unicode="&#x128;" horiz-adv-x="257" 
d="M-42.8652 763.744c11.2861 29.9941 30.292 62.2559 64.3652 62.2559c52.2549 0 144.766 -33.8193 203.138 -49.0176c5.70508 9.67969 13.7568 40.4609 14.6719 49.0176h79.9043l-0.743164 -7.86133c-0.0283203 -0.298828 -3.99219 -43.0273 -19.0908 -81.8252
c-11.708 -30.085 -31.5215 -62.0938 -66.5801 -62.0938c-46.2783 0 -143.456 34.1387 -198.21 49.0713c-6.37402 1.73828 -12.6328 -39.5938 -12.7881 -49.291h-84.0156l0.743164 7.8623c0.0273438 0.288086 3.99707 43.0625 18.6055 81.8818zM65 0v614h127v-614h-127z" />
    <glyph glyph-name="Lacute" unicode="&#x139;" horiz-adv-x="752" 
d="M218.27 674h-180.54l223.5 151h201.554zM65 0v614h127v-498h495v-116h-622z" />
    <glyph glyph-name="lacute" unicode="&#x13a;" horiz-adv-x="752" 
d="M218.27 674h-180.54l223.5 151h201.554zM65 0v614h127v-498h495v-116h-622z" />
    <glyph glyph-name="Nacute" unicode="&#x143;" horiz-adv-x="857" 
d="M518.771 674h-180.54l223.5 151h201.554zM654 155.083v458.917h138v-614h-158.26l-430.74 421.232v-421.232h-138v614h122.272z" />
    <glyph glyph-name="nacute" unicode="&#x144;" horiz-adv-x="857" 
d="M518.771 674h-180.54l223.5 151h201.554zM654 155.083v458.917h138v-614h-158.26l-430.74 421.232v-421.232h-138v614h122.272z" />
    <glyph glyph-name="Ncaron" unicode="&#x147;" horiz-adv-x="857" 
d="M347.429 841h-166.326l193.958 -167h126.603l174.234 167h-167.064l-45.5967 -11.5078l-28.208 -30.1191l-24.792 28.2715zM654 155.083v458.917h138v-614h-158.26l-430.74 421.232v-421.232h-138v614h122.272z" />
    <glyph glyph-name="ncaron" unicode="&#x148;" horiz-adv-x="857" 
d="M347.429 841h-166.326l193.958 -167h126.603l174.234 167h-167.064l-45.5967 -11.5078l-28.208 -30.1191l-24.792 28.2715zM654 155.083v458.917h138v-614h-158.26l-430.74 421.232v-421.232h-138v614h122.272z" />
    <glyph glyph-name="Omacron" unicode="&#x14c;" 
d="M230.5 774.022h374v-100.022l-374 1.04492v98.9775zM211.071 139.148c8.9375 -8.35156 19.2363 -13.1484 26.9287 -13.1484h359c7.69238 0 17.9912 4.79688 26.9287 13.1484c11.1494 10.4209 19.0713 25.2227 19.0713 37.6025v259.498
c0 12.3799 -7.92188 27.1816 -19.0713 37.6025c-8.9375 8.35156 -19.2363 13.1484 -26.9287 13.1484h-359c-7.69238 0 -17.9912 -4.79688 -26.9287 -13.1484c-11.1494 -10.4209 -19.0713 -25.2227 -19.0713 -37.6025v-259.498c0 -12.3799 7.92188 -27.1816 19.0713 -37.6025
zM597 -1h-359c-89.8408 0 -173 60.873 -173 175.436v264.129c0 114.562 83.1592 175.436 173 175.436h359c89.8408 0 173 -60.873 173 -175.436v-264.129c0 -114.562 -83.1592 -175.436 -173 -175.436zM762 142z" />
    <glyph glyph-name="omacron" unicode="&#x14d;" 
d="M230.5 774.022h374v-100.022l-374 1.04492v98.9775zM211.071 139.148c8.9375 -8.35156 19.2363 -13.1484 26.9287 -13.1484h359c7.69238 0 17.9912 4.79688 26.9287 13.1484c11.1494 10.4209 19.0713 25.2227 19.0713 37.6025v259.498
c0 12.3799 -7.92188 27.1816 -19.0713 37.6025c-8.9375 8.35156 -19.2363 13.1484 -26.9287 13.1484h-359c-7.69238 0 -17.9912 -4.79688 -26.9287 -13.1484c-11.1494 -10.4209 -19.0713 -25.2227 -19.0713 -37.6025v-259.498c0 -12.3799 7.92188 -27.1816 19.0713 -37.6025
zM597 -1h-359c-89.8408 0 -173 60.873 -173 175.436v264.129c0 114.562 83.1592 175.436 173 175.436h359c89.8408 0 173 -60.873 173 -175.436v-264.129c0 -114.562 -83.1592 -175.436 -173 -175.436zM762 142z" />
    <glyph glyph-name="Obreve" unicode="&#x14e;" 
d="M346.5 822c0 -32.5098 38.1377 -46 72 -46c34.5957 0 74 16.5303 74 46v8h102v-8c0 -88.7598 -65.291 -148 -176 -148c-48.7012 0 -89.3154 9.64355 -119.617 29.4775c-38.0713 24.9199 -58.3828 65.2354 -58.3828 118.522v8h106v-8zM211.071 139.148
c8.9375 -8.35156 19.2363 -13.1484 26.9287 -13.1484h359c7.69238 0 17.9912 4.79688 26.9287 13.1484c11.1494 10.4209 19.0713 25.2227 19.0713 37.6025v259.498c0 12.3799 -7.92188 27.1816 -19.0713 37.6025c-8.9375 8.35156 -19.2363 13.1484 -26.9287 13.1484h-359
c-7.69238 0 -17.9912 -4.79688 -26.9287 -13.1484c-11.1494 -10.4209 -19.0713 -25.2227 -19.0713 -37.6025v-259.498c0 -12.3799 7.92188 -27.1816 19.0713 -37.6025zM597 -1h-359c-89.8408 0 -173 60.873 -173 175.436v264.129c0 114.562 83.1592 175.436 173 175.436h359
c89.8408 0 173 -60.873 173 -175.436v-264.129c0 -114.562 -83.1592 -175.436 -173 -175.436zM762 142z" />
    <glyph glyph-name="obreve" unicode="&#x14f;" 
d="M346.5 822c0 -32.5098 38.1377 -46 72 -46c34.5957 0 74 16.5303 74 46v8h102v-8c0 -88.7598 -65.291 -148 -176 -148c-48.7012 0 -89.3154 9.64355 -119.617 29.4775c-38.0713 24.9199 -58.3828 65.2354 -58.3828 118.522v8h106v-8zM211.071 139.148
c8.9375 -8.35156 19.2363 -13.1484 26.9287 -13.1484h359c7.69238 0 17.9912 4.79688 26.9287 13.1484c11.1494 10.4209 19.0713 25.2227 19.0713 37.6025v259.498c0 12.3799 -7.92188 27.1816 -19.0713 37.6025c-8.9375 8.35156 -19.2363 13.1484 -26.9287 13.1484h-359
c-7.69238 0 -17.9912 -4.79688 -26.9287 -13.1484c-11.1494 -10.4209 -19.0713 -25.2227 -19.0713 -37.6025v-259.498c0 -12.3799 7.92188 -27.1816 19.0713 -37.6025zM597 -1h-359c-89.8408 0 -173 60.873 -173 175.436v264.129c0 114.562 83.1592 175.436 173 175.436h359
c89.8408 0 173 -60.873 173 -175.436v-264.129c0 -114.562 -83.1592 -175.436 -173 -175.436zM762 142z" />
    <glyph glyph-name="Ohungarumlaut" unicode="&#x150;" 
d="M648.047 674h-180.54l223.5 151h201.554zM367.493 674h-180.54l223.5 151h201.554zM211.071 139.148c8.9375 -8.35156 19.2363 -13.1484 26.9287 -13.1484h359c7.69238 0 17.9912 4.79688 26.9287 13.1484c11.1494 10.4209 19.0713 25.2227 19.0713 37.6025v259.498
c0 12.3799 -7.92188 27.1816 -19.0713 37.6025c-8.9375 8.35156 -19.2363 13.1484 -26.9287 13.1484h-359c-7.69238 0 -17.9912 -4.79688 -26.9287 -13.1484c-11.1494 -10.4209 -19.0713 -25.2227 -19.0713 -37.6025v-259.498c0 -12.3799 7.92188 -27.1816 19.0713 -37.6025
zM597 -1h-359c-89.8408 0 -173 60.873 -173 175.436v264.129c0 114.562 83.1592 175.436 173 175.436h359c89.8408 0 173 -60.873 173 -175.436v-264.129c0 -114.562 -83.1592 -175.436 -173 -175.436zM762 142z" />
    <glyph glyph-name="ohungarumlaut" unicode="&#x151;" 
d="M648.047 674h-180.54l223.5 151h201.554zM367.493 674h-180.54l223.5 151h201.554zM211.071 139.148c8.9375 -8.35156 19.2363 -13.1484 26.9287 -13.1484h359c7.69238 0 17.9912 4.79688 26.9287 13.1484c11.1494 10.4209 19.0713 25.2227 19.0713 37.6025v259.498
c0 12.3799 -7.92188 27.1816 -19.0713 37.6025c-8.9375 8.35156 -19.2363 13.1484 -26.9287 13.1484h-359c-7.69238 0 -17.9912 -4.79688 -26.9287 -13.1484c-11.1494 -10.4209 -19.0713 -25.2227 -19.0713 -37.6025v-259.498c0 -12.3799 7.92188 -27.1816 19.0713 -37.6025
zM597 -1h-359c-89.8408 0 -173 60.873 -173 175.436v264.129c0 114.562 83.1592 175.436 173 175.436h359c89.8408 0 173 -60.873 173 -175.436v-264.129c0 -114.562 -83.1592 -175.436 -173 -175.436zM762 142z" />
    <glyph glyph-name="Racute" unicode="&#x154;" horiz-adv-x="759" 
d="M466.285 674h-180.54l223.5 151h201.554zM192 487v-159h319c22.0576 0 39 14.0684 39 37.1318v84.7363c0 20.5068 -16.7793 37.1318 -32 37.1318h-326zM687 134.495c0 -26.375 -0.231445 -17.0635 -0.231445 -36.9844c0 -6.2334 0.261719 -44.4131 0.261719 -69.2627
c0 -17.877 -0.0234375 -18.085 -0.0527344 -28.248h-136.978v132.718c0 19.7021 -9.77832 44.6963 -23.6045 58.125c-6.87988 6.68164 -14.1914 10.1572 -21.3955 10.1572h-313v-201.072l-127 1.14355v612.929h446c46.0762 0 84.168 -9.42383 112.42 -30.5332
c35.5088 -26.5293 53.5801 -70.2969 53.5801 -131.251v-86.7393c0 -46.7773 -7.95117 -82.4043 -26.1934 -108.37c19.7598 -16.4404 36.1934 -55.3584 36.1934 -122.611z" />
    <glyph glyph-name="racute" unicode="&#x155;" horiz-adv-x="759" 
d="M466.285 674h-180.54l223.5 151h201.554zM192 487v-159h319c22.0576 0 39 14.0684 39 37.1318v84.7363c0 20.5068 -16.7793 37.1318 -32 37.1318h-326zM687 134.495c0 -26.375 -0.231445 -17.0635 -0.231445 -36.9844c0 -6.2334 0.261719 -44.4131 0.261719 -69.2627
c0 -17.877 -0.0234375 -18.085 -0.0527344 -28.248h-136.978v132.718c0 19.7021 -9.77832 44.6963 -23.6045 58.125c-6.87988 6.68164 -14.1914 10.1572 -21.3955 10.1572h-313v-201.072l-127 1.14355v612.929h446c46.0762 0 84.168 -9.42383 112.42 -30.5332
c35.5088 -26.5293 53.5801 -70.2969 53.5801 -131.251v-86.7393c0 -46.7773 -7.95117 -82.4043 -26.1934 -108.37c19.7598 -16.4404 36.1934 -55.3584 36.1934 -122.611z" />
    <glyph glyph-name="Rcaron" unicode="&#x158;" horiz-adv-x="759" 
d="M206.929 841h-166.326l193.958 -167h126.603l174.234 167h-167.064l-45.5967 -11.5078l-28.208 -30.1191l-24.792 28.2715zM192 487v-159h319c22.0576 0 39 14.0684 39 37.1318v84.7363c0 20.5068 -16.7793 37.1318 -32 37.1318h-326zM687 134.495
c0 -26.375 -0.231445 -17.0635 -0.231445 -36.9844c0 -6.2334 0.261719 -44.4131 0.261719 -69.2627c0 -17.877 -0.0234375 -18.085 -0.0527344 -28.248h-136.978v132.718c0 19.7021 -9.77832 44.6963 -23.6045 58.125c-6.87988 6.68164 -14.1914 10.1572 -21.3955 10.1572
h-313v-201.072l-127 1.14355v612.929h446c46.0762 0 84.168 -9.42383 112.42 -30.5332c35.5088 -26.5293 53.5801 -70.2969 53.5801 -131.251v-86.7393c0 -46.7773 -7.95117 -82.4043 -26.1934 -108.37c19.7598 -16.4404 36.1934 -55.3584 36.1934 -122.611z" />
    <glyph glyph-name="rcaron" unicode="&#x159;" horiz-adv-x="759" 
d="M294.943 841h-166.326l193.958 -167h126.603l174.234 167h-167.064l-45.5967 -11.5078l-28.208 -30.1191l-24.792 28.2715zM192 487v-159h319c22.0576 0 39 14.0684 39 37.1318v84.7363c0 20.5068 -16.7793 37.1318 -32 37.1318h-326zM687 134.495
c0 -26.375 -0.231445 -17.0635 -0.231445 -36.9844c0 -6.2334 0.261719 -44.4131 0.261719 -69.2627c0 -17.877 -0.0234375 -18.085 -0.0527344 -28.248h-136.978v132.718c0 19.7021 -9.77832 44.6963 -23.6045 58.125c-6.87988 6.68164 -14.1914 10.1572 -21.3955 10.1572
h-313v-201.072l-127 1.14355v612.929h446c46.0762 0 84.168 -9.42383 112.42 -30.5332c35.5088 -26.5293 53.5801 -70.2969 53.5801 -131.251v-86.7393c0 -46.7773 -7.95117 -82.4043 -26.1934 -108.37c19.7598 -16.4404 36.1934 -55.3584 36.1934 -122.611z" />
    <glyph glyph-name="Sacute" unicode="&#x15a;" horiz-adv-x="802" 
d="M479.771 674h-180.54l223.5 151h201.554zM730 408.593h-127v53c0 11.9805 -12.1152 24.8613 -48.0137 24.8613l-330.986 0.545898c-15.2471 0 -32 -12.8154 -32 -25v-59l0.582031 0.552734c5.52637 -4.56738 26.8486 -12.0039 56.7373 -18.1455
c37.3174 -7.66699 87.9785 -14.3721 141.295 -18.4307c239.054 -18.1953 339.386 -53.248 339.386 -162.384v-54c0 -59.8613 -17.9561 -101.165 -55.2227 -125.256c-29.4834 -19.0596 -69.5674 -26.7441 -119.788 -26.7441l-316.989 0.407227
c-49.7441 0 -89.3779 7.31445 -118.537 26.1631c-36.8799 23.8389 -54.4629 65.0771 -54.4629 125.837v49h125v-49c0 -9.88184 2.91504 -15.625 8.73633 -19.4658c4.91309 -3.24121 13.0693 -5.53418 25.2734 -5.53418l330.99 -0.407227c39.1348 0 48 13.6885 48 25
l-0.264648 53.082c-4.48828 3.8877 -23.4092 10.9414 -53.4189 16.9561c-37.4238 7.49902 -91.9199 14.4531 -159.903 19.3906c-210.925 15.3203 -324.413 53.0723 -324.413 162.979v59c0 54.4316 17.3545 95.8682 51.2559 121.604
c26.9834 20.4844 63.4424 30.3965 107.744 30.3965h331c54.499 0 95.1895 -9.1875 123.933 -29.4023c36.2744 -25.5107 51.0674 -67.2881 51.0674 -123.005v-53z" />
    <glyph glyph-name="sacute" unicode="&#x15b;" horiz-adv-x="802" 
d="M479.771 674h-180.54l223.5 151h201.554zM730 408.593h-127v53c0 11.9805 -12.1152 24.8613 -48.0137 24.8613l-330.986 0.545898c-15.2471 0 -32 -12.8154 -32 -25v-59l0.582031 0.552734c5.52637 -4.56738 26.8486 -12.0039 56.7373 -18.1455
c37.3174 -7.66699 87.9785 -14.3721 141.295 -18.4307c239.054 -18.1953 339.386 -53.248 339.386 -162.384v-54c0 -59.8613 -17.9561 -101.165 -55.2227 -125.256c-29.4834 -19.0596 -69.5674 -26.7441 -119.788 -26.7441l-316.989 0.407227
c-49.7441 0 -89.3779 7.31445 -118.537 26.1631c-36.8799 23.8389 -54.4629 65.0771 -54.4629 125.837v49h125v-49c0 -9.88184 2.91504 -15.625 8.73633 -19.4658c4.91309 -3.24121 13.0693 -5.53418 25.2734 -5.53418l330.99 -0.407227c39.1348 0 48 13.6885 48 25
l-0.264648 53.082c-4.48828 3.8877 -23.4092 10.9414 -53.4189 16.9561c-37.4238 7.49902 -91.9199 14.4531 -159.903 19.3906c-210.925 15.3203 -324.413 53.0723 -324.413 162.979v59c0 54.4316 17.3545 95.8682 51.2559 121.604
c26.9834 20.4844 63.4424 30.3965 107.744 30.3965h331c54.499 0 95.1895 -9.1875 123.933 -29.4023c36.2744 -25.5107 51.0674 -67.2881 51.0674 -123.005v-53z" />
    <glyph glyph-name="Scircumflex" unicode="&#x15c;" horiz-adv-x="802" 
d="M308.429 674h-166.326l193.958 167h126.603l174.234 -167h-167.064l-45.5967 11.5078l-28.208 30.1191l-24.792 -28.2715zM730 408.593h-127v53c0 11.9805 -12.1152 24.8613 -48.0137 24.8613l-330.986 0.545898c-15.2471 0 -32 -12.8154 -32 -25v-59l0.582031 0.552734
c5.52637 -4.56738 26.8486 -12.0039 56.7373 -18.1455c37.3174 -7.66699 87.9785 -14.3721 141.295 -18.4307c239.054 -18.1953 339.386 -53.248 339.386 -162.384v-54c0 -59.8613 -17.9561 -101.165 -55.2227 -125.256
c-29.4834 -19.0596 -69.5674 -26.7441 -119.788 -26.7441l-316.989 0.407227c-49.7441 0 -89.3779 7.31445 -118.537 26.1631c-36.8799 23.8389 -54.4629 65.0771 -54.4629 125.837v49h125v-49c0 -9.88184 2.91504 -15.625 8.73633 -19.4658
c4.91309 -3.24121 13.0693 -5.53418 25.2734 -5.53418l330.99 -0.407227c39.1348 0 48 13.6885 48 25l-0.264648 53.082c-4.48828 3.8877 -23.4092 10.9414 -53.4189 16.9561c-37.4238 7.49902 -91.9199 14.4531 -159.903 19.3906
c-210.925 15.3203 -324.413 53.0723 -324.413 162.979v59c0 54.4316 17.3545 95.8682 51.2559 121.604c26.9834 20.4844 63.4424 30.3965 107.744 30.3965h331c54.499 0 95.1895 -9.1875 123.933 -29.4023c36.2744 -25.5107 51.0674 -67.2881 51.0674 -123.005v-53z" />
    <glyph glyph-name="scircumflex" unicode="&#x15d;" horiz-adv-x="802" 
d="M308.429 674h-166.326l193.958 167h126.603l174.234 -167h-167.064l-45.5967 11.5078l-28.208 30.1191l-24.792 -28.2715zM730 408.593h-127v53c0 11.9805 -12.1152 24.8613 -48.0137 24.8613l-330.986 0.545898c-15.2471 0 -32 -12.8154 -32 -25v-59l0.582031 0.552734
c5.52637 -4.56738 26.8486 -12.0039 56.7373 -18.1455c37.3174 -7.66699 87.9785 -14.3721 141.295 -18.4307c239.054 -18.1953 339.386 -53.248 339.386 -162.384v-54c0 -59.8613 -17.9561 -101.165 -55.2227 -125.256
c-29.4834 -19.0596 -69.5674 -26.7441 -119.788 -26.7441l-316.989 0.407227c-49.7441 0 -89.3779 7.31445 -118.537 26.1631c-36.8799 23.8389 -54.4629 65.0771 -54.4629 125.837v49h125v-49c0 -9.88184 2.91504 -15.625 8.73633 -19.4658
c4.91309 -3.24121 13.0693 -5.53418 25.2734 -5.53418l330.99 -0.407227c39.1348 0 48 13.6885 48 25l-0.264648 53.082c-4.48828 3.8877 -23.4092 10.9414 -53.4189 16.9561c-37.4238 7.49902 -91.9199 14.4531 -159.903 19.3906
c-210.925 15.3203 -324.413 53.0723 -324.413 162.979v59c0 54.4316 17.3545 95.8682 51.2559 121.604c26.9834 20.4844 63.4424 30.3965 107.744 30.3965h331c54.499 0 95.1895 -9.1875 123.933 -29.4023c36.2744 -25.5107 51.0674 -67.2881 51.0674 -123.005v-53z" />
    <glyph glyph-name="Scedilla" unicode="&#x15e;" horiz-adv-x="802" 
d="M358.759 -122.477v128.92h75.4717v-39.7451c16.6387 7.19434 48.957 18.8252 84 18.8252c60.3047 0 147 -31.6865 147 -110.867c0 -22.4131 -11.3096 -41.6338 -27.9697 -56.8564c-33.2051 -30.3398 -88.585 -46.877 -133.03 -46.877
c-38.9082 0 -107.374 8.76758 -130.378 29.6807l-4.31152 3.91895l30.7588 67.9258l8.0791 -6.80371c6.14062 -5.1709 21.9961 -10.3789 39.4824 -13.5947c21.7129 -3.99414 45.5898 -5.52734 56.3691 -5.52734c20.3408 0 44.5771 4.81445 61.2246 11.9785
c14.0508 6.0459 19.7354 12.7383 19.7354 16.4365c0 5.30273 -3.55566 10.9238 -11.3652 16.4287c-15.6025 10.998 -45.1797 18.5566 -69.5947 18.5566c-38.4863 0 -106.014 -31.8359 -107.213 -32.3994h-38.2588zM730 408.593h-127v53
c0 11.9805 -12.1152 24.8613 -48.0137 24.8613l-330.986 0.545898c-15.2471 0 -32 -12.8154 -32 -25v-59l0.582031 0.552734c5.52637 -4.56738 26.8486 -12.0039 56.7373 -18.1455c37.3174 -7.66699 87.9785 -14.3721 141.295 -18.4307
c239.054 -18.1953 339.386 -53.248 339.386 -162.384v-54c0 -59.8613 -17.9561 -101.165 -55.2227 -125.256c-29.4834 -19.0596 -69.5674 -26.7441 -119.788 -26.7441l-316.989 0.407227c-49.7441 0 -89.3779 7.31445 -118.537 26.1631
c-36.8799 23.8389 -54.4629 65.0771 -54.4629 125.837v49h125v-49c0 -9.88184 2.91504 -15.625 8.73633 -19.4658c4.91309 -3.24121 13.0693 -5.53418 25.2734 -5.53418l330.99 -0.407227c39.1348 0 48 13.6885 48 25l-0.264648 53.082
c-4.48828 3.8877 -23.4092 10.9414 -53.4189 16.9561c-37.4238 7.49902 -91.9199 14.4531 -159.903 19.3906c-210.925 15.3203 -324.413 53.0723 -324.413 162.979v59c0 54.4316 17.3545 95.8682 51.2559 121.604c26.9834 20.4844 63.4424 30.3965 107.744 30.3965h331
c54.499 0 95.1895 -9.1875 123.933 -29.4023c36.2744 -25.5107 51.0674 -67.2881 51.0674 -123.005v-53z" />
    <glyph glyph-name="scedilla" unicode="&#x15f;" horiz-adv-x="802" 
d="M358.759 -122.477v128.92h75.4717v-39.7451c16.6387 7.19434 48.957 18.8252 84 18.8252c60.3047 0 147 -31.6865 147 -110.867c0 -22.4131 -11.3096 -41.6338 -27.9697 -56.8564c-33.2051 -30.3398 -88.585 -46.877 -133.03 -46.877
c-38.9082 0 -107.374 8.76758 -130.378 29.6807l-4.31152 3.91895l30.7588 67.9258l8.0791 -6.80371c6.14062 -5.1709 21.9961 -10.3789 39.4824 -13.5947c21.7129 -3.99414 45.5898 -5.52734 56.3691 -5.52734c20.3408 0 44.5771 4.81445 61.2246 11.9785
c14.0508 6.0459 19.7354 12.7383 19.7354 16.4365c0 5.30273 -3.55566 10.9238 -11.3652 16.4287c-15.6025 10.998 -45.1797 18.5566 -69.5947 18.5566c-38.4863 0 -106.014 -31.8359 -107.213 -32.3994h-38.2588zM730 408.593h-127v53
c0 11.9805 -12.1152 24.8613 -48.0137 24.8613l-330.986 0.545898c-15.2471 0 -32 -12.8154 -32 -25v-59l0.582031 0.552734c5.52637 -4.56738 26.8486 -12.0039 56.7373 -18.1455c37.3174 -7.66699 87.9785 -14.3721 141.295 -18.4307
c239.054 -18.1953 339.386 -53.248 339.386 -162.384v-54c0 -59.8613 -17.9561 -101.165 -55.2227 -125.256c-29.4834 -19.0596 -69.5674 -26.7441 -119.788 -26.7441l-316.989 0.407227c-49.7441 0 -89.3779 7.31445 -118.537 26.1631
c-36.8799 23.8389 -54.4629 65.0771 -54.4629 125.837v49h125v-49c0 -9.88184 2.91504 -15.625 8.73633 -19.4658c4.91309 -3.24121 13.0693 -5.53418 25.2734 -5.53418l330.99 -0.407227c39.1348 0 48 13.6885 48 25l-0.264648 53.082
c-4.48828 3.8877 -23.4092 10.9414 -53.4189 16.9561c-37.4238 7.49902 -91.9199 14.4531 -159.903 19.3906c-210.925 15.3203 -324.413 53.0723 -324.413 162.979v59c0 54.4316 17.3545 95.8682 51.2559 121.604c26.9834 20.4844 63.4424 30.3965 107.744 30.3965h331
c54.499 0 95.1895 -9.1875 123.933 -29.4023c36.2744 -25.5107 51.0674 -67.2881 51.0674 -123.005v-53z" />
    <glyph glyph-name="uni0162" unicode="&#x162;" horiz-adv-x="801" 
d="M357.765 -121.069v128.92h75.4717v-39.7451c16.6387 7.19434 48.957 18.8252 84 18.8252c60.3047 0 147 -31.6865 147 -110.867c0 -22.4131 -11.3096 -41.6338 -27.9697 -56.8564c-33.2051 -30.3398 -88.585 -46.877 -133.03 -46.877
c-38.9082 0 -107.374 8.76758 -130.378 29.6807l-4.31152 3.91895l30.7588 67.9258l8.0791 -6.80371c6.14062 -5.1709 21.9961 -10.3789 39.4824 -13.5947c21.7129 -3.99414 45.5898 -5.52734 56.3691 -5.52734c20.3408 0 44.5771 4.81445 61.2246 11.9785
c14.0508 6.0459 19.7354 12.7383 19.7354 16.4365c0 5.30273 -3.55566 10.9238 -11.3652 16.4287c-15.6025 10.998 -45.1797 18.5566 -69.5947 18.5566c-38.4863 0 -106.014 -31.8359 -107.213 -32.3994h-38.2588zM65 498v116h671v-116h-277v-498h-127v498h-267z" />
    <glyph glyph-name="uni0163" unicode="&#x163;" horiz-adv-x="801" 
d="M357.765 -121.069v128.92h75.4717v-39.7451c16.6387 7.19434 48.957 18.8252 84 18.8252c60.3047 0 147 -31.6865 147 -110.867c0 -22.4131 -11.3096 -41.6338 -27.9697 -56.8564c-33.2051 -30.3398 -88.585 -46.877 -133.03 -46.877
c-38.9082 0 -107.374 8.76758 -130.378 29.6807l-4.31152 3.91895l30.7588 67.9258l8.0791 -6.80371c6.14062 -5.1709 21.9961 -10.3789 39.4824 -13.5947c21.7129 -3.99414 45.5898 -5.52734 56.3691 -5.52734c20.3408 0 44.5771 4.81445 61.2246 11.9785
c14.0508 6.0459 19.7354 12.7383 19.7354 16.4365c0 5.30273 -3.55566 10.9238 -11.3652 16.4287c-15.6025 10.998 -45.1797 18.5566 -69.5947 18.5566c-38.4863 0 -106.014 -31.8359 -107.213 -32.3994h-38.2588zM65 498v116h671v-116h-277v-498h-127v498h-267z" />
    <glyph glyph-name="Tcaron" unicode="&#x164;" horiz-adv-x="801" 
d="M319.429 841h-166.326l193.958 -167h126.603l174.234 167h-167.064l-45.5967 -11.5078l-28.208 -30.1191l-24.792 28.2715zM65 498v116h671v-116h-277v-498h-127v498h-267z" />
    <glyph glyph-name="Utilde" unicode="&#x168;" horiz-adv-x="838" 
d="M247.635 763.744c11.2861 29.9941 30.292 62.2559 64.3652 62.2559c52.2549 0 144.766 -33.8193 203.138 -49.0176c5.70508 9.67969 13.7568 40.4609 14.6719 49.0176h79.9043l-0.743164 -7.86133c-0.0283203 -0.298828 -3.99219 -43.0273 -19.0908 -81.8252
c-11.708 -30.085 -31.5215 -62.0938 -66.5801 -62.0938c-46.2783 0 -143.456 34.1387 -198.21 49.0713c-6.37402 1.73828 -12.6328 -39.5938 -12.7881 -49.291h-84.0156l0.743164 7.8623c0.0273438 0.288086 3.99707 43.0625 18.6055 81.8818zM773 614v-446.387
c0 -105.379 -59.3779 -168.613 -165 -168.613h-378c-105.581 0 -165 63.25 -165 168.613v446.387h127v-443.46c0 -26.7314 7.85059 -44.54 29 -44.54h396c21.1494 0 29 17.8086 29 44.54v443.46h127z" />
    <glyph glyph-name="utilde" unicode="&#x169;" horiz-adv-x="838" 
d="M247.635 763.744c11.2861 29.9941 30.292 62.2559 64.3652 62.2559c52.2549 0 144.766 -33.8193 203.138 -49.0176c5.70508 9.67969 13.7568 40.4609 14.6719 49.0176h79.9043l-0.743164 -7.86133c-0.0283203 -0.298828 -3.99219 -43.0273 -19.0908 -81.8252
c-11.708 -30.085 -31.5215 -62.0938 -66.5801 -62.0938c-46.2783 0 -143.456 34.1387 -198.21 49.0713c-6.37402 1.73828 -12.6328 -39.5938 -12.7881 -49.291h-84.0156l0.743164 7.8623c0.0273438 0.288086 3.99707 43.0625 18.6055 81.8818zM773 614v-446.387
c0 -105.379 -59.3779 -168.613 -165 -168.613h-378c-105.581 0 -165 63.25 -165 168.613v446.387h127v-443.46c0 -26.7314 7.85059 -44.54 29 -44.54h396c21.1494 0 29 17.8086 29 44.54v443.46h127z" />
    <glyph glyph-name="Umacron" unicode="&#x16a;" horiz-adv-x="838" 
d="M232 774.022h374v-100.022l-374 1.04492v98.9775zM773 614v-446.387c0 -105.379 -59.3779 -168.613 -165 -168.613h-378c-105.581 0 -165 63.25 -165 168.613v446.387h127v-443.46c0 -26.7314 7.85059 -44.54 29 -44.54h396c21.1494 0 29 17.8086 29 44.54v443.46h127z
" />
    <glyph glyph-name="umacron" unicode="&#x16b;" horiz-adv-x="838" 
d="M232 774.022h374v-100.022l-374 1.04492v98.9775zM773 614v-446.387c0 -105.379 -59.3779 -168.613 -165 -168.613h-378c-105.581 0 -165 63.25 -165 168.613v446.387h127v-443.46c0 -26.7314 7.85059 -44.54 29 -44.54h396c21.1494 0 29 17.8086 29 44.54v443.46h127z
" />
    <glyph glyph-name="Ubreve" unicode="&#x16c;" horiz-adv-x="838" 
d="M348 822c0 -32.5098 38.1377 -46 72 -46c34.5957 0 74 16.5303 74 46v8h102v-8c0 -88.7598 -65.291 -148 -176 -148c-48.7012 0 -89.3154 9.64355 -119.617 29.4775c-38.0713 24.9199 -58.3828 65.2354 -58.3828 118.522v8h106v-8zM773 614v-446.387
c0 -105.379 -59.3779 -168.613 -165 -168.613h-378c-105.581 0 -165 63.25 -165 168.613v446.387h127v-443.46c0 -26.7314 7.85059 -44.54 29 -44.54h396c21.1494 0 29 17.8086 29 44.54v443.46h127z" />
    <glyph glyph-name="ubreve" unicode="&#x16d;" horiz-adv-x="838" 
d="M348 822c0 -32.5098 38.1377 -46 72 -46c34.5957 0 74 16.5303 74 46v8h102v-8c0 -88.7598 -65.291 -148 -176 -148c-48.7012 0 -89.3154 9.64355 -119.617 29.4775c-38.0713 24.9199 -58.3828 65.2354 -58.3828 118.522v8h106v-8zM773 614v-446.387
c0 -105.379 -59.3779 -168.613 -165 -168.613h-378c-105.581 0 -165 63.25 -165 168.613v446.387h127v-443.46c0 -26.7314 7.85059 -44.54 29 -44.54h396c21.1494 0 29 17.8086 29 44.54v443.46h127z" />
    <glyph glyph-name="Uring" unicode="&#x16e;" horiz-adv-x="838" 
d="M400.569 751.225c0 -10.5703 7.94824 -18.4717 18.3906 -18.4717c10.5703 0 18.4707 7.94727 18.4707 18.3906c0 10.5723 -7.94629 18.4717 -18.3896 18.4717c-10.5703 0 -18.4717 -7.94727 -18.4717 -18.3906zM419.071 828.368
c3.06738 0 6.13184 -0.182617 9.17676 -0.548828c28.9346 -3.48535 51.7227 -22.8564 61.7461 -46.3262c4.10254 -9.60645 6.19043 -19.9346 6.19043 -30.3799c0 -3.06738 -0.182617 -6.13281 -0.547852 -9.17676c-3.48633 -28.9355 -22.8604 -51.7188 -46.3271 -61.7471
c-9.60645 -4.10156 -19.9346 -6.18945 -30.3789 -6.18945c-3.06836 0 -6.13477 0.182617 -9.17871 0.547852c-28.9316 3.48633 -51.7188 22.8604 -61.7441 46.3262c-4.10352 9.60645 -6.19141 19.9355 -6.19141 30.3799c0 3.06836 0.182617 6.13281 0.548828 9.17773
c3.48535 28.9307 22.8564 51.7217 46.3262 61.7461c9.60645 4.10254 19.9346 6.19043 30.3799 6.19043zM773 614v-446.387c0 -105.379 -59.3779 -168.613 -165 -168.613h-378c-105.581 0 -165 63.25 -165 168.613v446.387h127v-443.46c0 -26.7314 7.85059 -44.54 29 -44.54
h396c21.1494 0 29 17.8086 29 44.54v443.46h127z" />
    <glyph glyph-name="uring" unicode="&#x16f;" horiz-adv-x="838" 
d="M400.569 751.225c0 -10.5703 7.94824 -18.4717 18.3906 -18.4717c10.5703 0 18.4707 7.94727 18.4707 18.3906c0 10.5723 -7.94629 18.4717 -18.3896 18.4717c-10.5703 0 -18.4717 -7.94727 -18.4717 -18.3906zM419.071 828.368
c3.06738 0 6.13184 -0.182617 9.17676 -0.548828c28.9346 -3.48535 51.7227 -22.8564 61.7461 -46.3262c4.10254 -9.60645 6.19043 -19.9346 6.19043 -30.3799c0 -3.06738 -0.182617 -6.13281 -0.547852 -9.17676c-3.48633 -28.9355 -22.8604 -51.7188 -46.3271 -61.7471
c-9.60645 -4.10156 -19.9346 -6.18945 -30.3789 -6.18945c-3.06836 0 -6.13477 0.182617 -9.17871 0.547852c-28.9316 3.48633 -51.7188 22.8604 -61.7441 46.3262c-4.10352 9.60645 -6.19141 19.9355 -6.19141 30.3799c0 3.06836 0.182617 6.13281 0.548828 9.17773
c3.48535 28.9307 22.8564 51.7217 46.3262 61.7461c9.60645 4.10254 19.9346 6.19043 30.3799 6.19043zM773 614v-446.387c0 -105.379 -59.3779 -168.613 -165 -168.613h-378c-105.581 0 -165 63.25 -165 168.613v446.387h127v-443.46c0 -26.7314 7.85059 -44.54 29 -44.54
h396c21.1494 0 29 17.8086 29 44.54v443.46h127z" />
    <glyph glyph-name="Uhungarumlaut" unicode="&#x170;" horiz-adv-x="838" 
d="M649.547 674h-180.54l223.5 151h201.554zM368.993 674h-180.54l223.5 151h201.554zM773 614v-446.387c0 -105.379 -59.3779 -168.613 -165 -168.613h-378c-105.581 0 -165 63.25 -165 168.613v446.387h127v-443.46c0 -26.7314 7.85059 -44.54 29 -44.54h396
c21.1494 0 29 17.8086 29 44.54v443.46h127z" />
    <glyph glyph-name="uhungarumlaut" unicode="&#x171;" horiz-adv-x="838" 
d="M649.547 674h-180.54l223.5 151h201.554zM368.993 674h-180.54l223.5 151h201.554zM773 614v-446.387c0 -105.379 -59.3779 -168.613 -165 -168.613h-378c-105.581 0 -165 63.25 -165 168.613v446.387h127v-443.46c0 -26.7314 7.85059 -44.54 29 -44.54h396
c21.1494 0 29 17.8086 29 44.54v443.46h127z" />
    <glyph glyph-name="Uogonek" unicode="&#x172;" horiz-adv-x="838" 
d="M365.537 -67.3672c15.3125 -1.41797 35.9658 -1.77441 59.2627 -1.77441c21.1104 0 43.0469 0.308594 64.6807 0.308594h8v-82h-8c-78.7812 0 -148.347 5.64551 -195.656 18.6553c-36.8096 10.1221 -64.3438 25.8203 -64.3438 51.1396
c0 24.7422 25.1699 43.6699 49.2549 57.1709c32.1094 18 64.4824 27.4414 66.4385 28.0342h147.652l-42.6113 -12.7393s-35.0156 -10.4727 -66.0518 -23.9209c-13.7139 -5.94238 -26.5381 -12.4854 -34.6582 -18.458c-6.75488 -4.96875 -9.02441 -8.96094 -9.02441 -10.5498
c0 0 3.05078 -3.82812 25.0566 -5.86621zM773 614v-446.387c0 -105.379 -59.3779 -168.613 -165 -168.613h-378c-105.581 0 -165 63.25 -165 168.613v446.387h127v-443.46c0 -26.7314 7.85059 -44.54 29 -44.54h396c21.1494 0 29 17.8086 29 44.54v443.46h127z" />
    <glyph glyph-name="uogonek" unicode="&#x173;" horiz-adv-x="838" 
d="M365.537 -67.3672c15.3125 -1.41797 35.9658 -1.77441 59.2627 -1.77441c21.1104 0 43.0469 0.308594 64.6807 0.308594h8v-82h-8c-78.7812 0 -148.347 5.64551 -195.656 18.6553c-36.8096 10.1221 -64.3438 25.8203 -64.3438 51.1396
c0 24.7422 25.1699 43.6699 49.2549 57.1709c32.1094 18 64.4824 27.4414 66.4385 28.0342h147.652l-42.6113 -12.7393s-35.0156 -10.4727 -66.0518 -23.9209c-13.7139 -5.94238 -26.5381 -12.4854 -34.6582 -18.458c-6.75488 -4.96875 -9.02441 -8.96094 -9.02441 -10.5498
c0 0 3.05078 -3.82812 25.0566 -5.86621zM773 614v-446.387c0 -105.379 -59.3779 -168.613 -165 -168.613h-378c-105.581 0 -165 63.25 -165 168.613v446.387h127v-443.46c0 -26.7314 7.85059 -44.54 29 -44.54h396c21.1494 0 29 17.8086 29 44.54v443.46h127z" />
    <glyph glyph-name="Wcircumflex" unicode="&#x174;" horiz-adv-x="997" 
d="M417.433 674h-166.326l193.958 167h126.603l174.234 -167h-167.064l-45.5967 11.5078l-28.208 30.1191l-24.792 -28.2715zM431.344 614h134.009l119.976 -413.994l158.369 413.994h139.156l-238.046 -614h-132.526l-114.849 384.401l-143.562 -384.401h-128.35
l-211.368 614h139.847l146.829 -413.93z" />
    <glyph glyph-name="wcircumflex" unicode="&#x175;" horiz-adv-x="997" 
d="M417.433 674h-166.326l193.958 167h126.603l174.234 -167h-167.064l-45.5967 11.5078l-28.208 30.1191l-24.792 -28.2715zM431.344 614h134.009l119.976 -413.994l158.369 413.994h139.156l-238.046 -614h-132.526l-114.849 384.401l-143.562 -384.401h-128.35
l-211.368 614h139.847l146.829 -413.93z" />
    <glyph glyph-name="Ycircumflex" unicode="&#x176;" horiz-adv-x="844" 
d="M340.881 674h-166.326l193.958 167h126.603l174.234 -167h-167.064l-45.5967 11.5078l-28.208 30.1191l-24.792 -28.2715zM14.2207 614h179.387l229.467 -251.984l234.369 251.984h172.24l-337.623 -376.016l-0.0507812 -237.984h-138.002l0.0527344 236.978z" />
    <glyph glyph-name="ycircumflex" unicode="&#x177;" horiz-adv-x="844" 
d="M340.881 674h-166.326l193.958 167h126.603l174.234 -167h-167.064l-45.5967 11.5078l-28.208 30.1191l-24.792 -28.2715zM14.2207 614h179.387l229.467 -251.984l234.369 251.984h172.24l-337.623 -376.016l-0.0507812 -237.984h-138.002l0.0527344 236.978z" />
    <glyph glyph-name="Zacute" unicode="&#x179;" horiz-adv-x="785" 
d="M482.771 674h-180.54l223.5 151h201.554zM57 614h671v-122.829l-472.305 -364.171h472.305v-127h-671v122.844l475.195 364.156h-475.195v127z" />
    <glyph glyph-name="zacute" unicode="&#x17a;" horiz-adv-x="785" 
d="M482.771 674h-180.54l223.5 151h201.554zM57 614h671v-122.829l-472.305 -364.171h472.305v-127h-671v122.844l475.195 364.156h-475.195v127z" />
    <glyph glyph-name="Zdotaccent" unicode="&#x17b;" horiz-adv-x="785" 
d="M392.575 835.094c3.19727 0 6.39258 -0.19043 9.56738 -0.572266c30.1904 -3.63477 53.9854 -23.8535 64.4424 -48.3369c4.27344 -10.0098 6.46191 -20.832 6.46191 -31.7129c0 -3.19727 -0.189453 -6.3916 -0.572266 -9.56641
c-3.63477 -30.1904 -23.8555 -53.9844 -48.3369 -64.4424c-10.0088 -4.27441 -20.832 -6.46289 -31.7129 -6.46289c-3.19727 0 -6.38965 0.189453 -9.56641 0.573242c-30.1875 3.63379 -53.9854 23.8564 -64.4414 48.3359
c-4.27539 10.0088 -6.46387 20.832 -6.46387 31.7129c0 3.19727 0.189453 6.39062 0.573242 9.56738c3.63379 30.1875 23.8555 53.9854 48.3369 64.4424c10.0088 4.27344 20.8311 6.46191 31.7119 6.46191zM57 614h671v-122.829l-472.305 -364.171h472.305v-127h-671
v122.844l475.195 364.156h-475.195v127z" />
    <glyph glyph-name="zdotaccent" unicode="&#x17c;" horiz-adv-x="785" 
d="M392.575 835.094c3.19727 0 6.39258 -0.19043 9.56738 -0.572266c30.1904 -3.63477 53.9854 -23.8535 64.4424 -48.3369c4.27344 -10.0098 6.46191 -20.832 6.46191 -31.7129c0 -3.19727 -0.189453 -6.3916 -0.572266 -9.56641
c-3.63477 -30.1904 -23.8555 -53.9844 -48.3369 -64.4424c-10.0088 -4.27441 -20.832 -6.46289 -31.7129 -6.46289c-3.19727 0 -6.38965 0.189453 -9.56641 0.573242c-30.1875 3.63379 -53.9854 23.8564 -64.4414 48.3359
c-4.27539 10.0088 -6.46387 20.832 -6.46387 31.7129c0 3.19727 0.189453 6.39062 0.573242 9.56738c3.63379 30.1875 23.8555 53.9854 48.3369 64.4424c10.0088 4.27344 20.8311 6.46191 31.7119 6.46191zM57 614h671v-122.829l-472.305 -364.171h472.305v-127h-671
v122.844l475.195 364.156h-475.195v127z" />
    <glyph glyph-name="Cdotaccent" unicode="&#x10a;" horiz-adv-x="836" 
d="M415.575 835.094c3.19727 0 6.39258 -0.19043 9.56738 -0.572266c30.1904 -3.63477 53.9854 -23.8535 64.4424 -48.3369c4.27344 -10.0098 6.46191 -20.832 6.46191 -31.7129c0 -3.19727 -0.189453 -6.3916 -0.572266 -9.56641
c-3.63477 -30.1904 -23.8555 -53.9844 -48.3369 -64.4424c-10.0088 -4.27441 -20.832 -6.46289 -31.7129 -6.46289c-3.19727 0 -6.38965 0.189453 -9.56641 0.573242c-30.1875 3.63379 -53.9854 23.8564 -64.4414 48.3359
c-4.27539 10.0088 -6.46387 20.832 -6.46387 31.7129c0 3.19727 0.189453 6.39062 0.573242 9.56738c3.63379 30.1875 23.8555 53.9854 48.3369 64.4424c10.0088 4.27344 20.8311 6.46191 31.7119 6.46191zM65 156.836v299.252c0 112.114 55.4141 157.912 161 157.912h379
c42.4961 0 79.9424 -5.66895 108.915 -24.041c36.6572 -23.2451 57.085 -65.7256 57.085 -134.959v-104h-127v104c0 9.14258 -1.57617 16.627 -4.71582 21.6729c-3.68848 5.92969 -10.0762 10.3271 -24.2842 10.3271h-389c-10.2324 0 -17.96 -2.01172 -23.1768 -5.70215
c-6.28906 -4.44922 -10.8232 -12.4121 -10.8232 -27.8242v-294.073c0 -12.9209 2.16016 -21.8672 5.32715 -27.292c3.7334 -6.39551 8.79492 -9.1084 17.6729 -9.1084h400c21.5117 0 29 12.4004 29 27v108h127v-108c0 -66.2314 -17.4902 -107.593 -53.2207 -130.398
c-28.1904 -17.9932 -65.8398 -23.6016 -111.779 -23.6016h-391c-40.7988 0 -75.2568 6.56055 -101.134 25.9434c-32.5781 24.4014 -48.8662 67.2588 -48.8662 134.893z" />
    <glyph glyph-name="cdotaccent" unicode="&#x10b;" horiz-adv-x="836" 
d="M415.575 835.094c3.19727 0 6.39258 -0.19043 9.56738 -0.572266c30.1904 -3.63477 53.9854 -23.8535 64.4424 -48.3369c4.27344 -10.0098 6.46191 -20.832 6.46191 -31.7129c0 -3.19727 -0.189453 -6.3916 -0.572266 -9.56641
c-3.63477 -30.1904 -23.8555 -53.9844 -48.3369 -64.4424c-10.0088 -4.27441 -20.832 -6.46289 -31.7129 -6.46289c-3.19727 0 -6.38965 0.189453 -9.56641 0.573242c-30.1875 3.63379 -53.9854 23.8564 -64.4414 48.3359
c-4.27539 10.0088 -6.46387 20.832 -6.46387 31.7129c0 3.19727 0.189453 6.39062 0.573242 9.56738c3.63379 30.1875 23.8555 53.9854 48.3369 64.4424c10.0088 4.27344 20.8311 6.46191 31.7119 6.46191zM65 156.836v299.252c0 112.114 55.4141 157.912 161 157.912h379
c42.4961 0 79.9424 -5.66895 108.915 -24.041c36.6572 -23.2451 57.085 -65.7256 57.085 -134.959v-104h-127v104c0 9.14258 -1.57617 16.627 -4.71582 21.6729c-3.68848 5.92969 -10.0762 10.3271 -24.2842 10.3271h-389c-10.2324 0 -17.96 -2.01172 -23.1768 -5.70215
c-6.28906 -4.44922 -10.8232 -12.4121 -10.8232 -27.8242v-294.073c0 -12.9209 2.16016 -21.8672 5.32715 -27.292c3.7334 -6.39551 8.79492 -9.1084 17.6729 -9.1084h400c21.5117 0 29 12.4004 29 27v108h127v-108c0 -66.2314 -17.4902 -107.593 -53.2207 -130.398
c-28.1904 -17.9932 -65.8398 -23.6016 -111.779 -23.6016h-391c-40.7988 0 -75.2568 6.56055 -101.134 25.9434c-32.5781 24.4014 -48.8662 67.2588 -48.8662 134.893z" />
    <glyph glyph-name="B.ss01" horiz-adv-x="792" 
d="M65 0h461c63 0 109.175 5.2207 141.885 21.3096c41.7441 20.5322 58.5898 58.4199 58.5898 117.084c0 31.8535 -0.474609 54.6309 -0.474609 89.6641c0 36.2793 -12.2461 72.4629 -55.1494 89.3633c18.8184 13.8457 29.1494 39.9883 29.1494 74.3691
c0 42.749 1 28.5332 1 76.9941c0 58.0908 -15.832 97.8604 -55.8711 120.565c-31.5068 17.8662 -76.1289 24.6504 -137.129 24.6504h-443v-127h443c49.8936 -0.112305 65 -7.43652 65 -20.4824c0 -40.4521 -0.735352 -43.3809 -0.735352 -73.5518
c0 -1.95996 -0.459961 -3.09082 -1.4209 -4.22852c-1.53711 -1.82031 -5.64355 -4.35449 -14.1357 -6.22754c-10.4492 -2.30566 -26.5449 -3.50977 -48.708 -3.50977h-443v-127h443c29 0 50.8057 -1.81934 65.5117 -5.37695
c11.877 -2.87305 18.5381 -6.79199 21.5996 -10.5518c1.94922 -2.39258 2.88867 -4.9834 2.88867 -8.51758l0.118164 -86.4561c0 -3.3125 -1.63281 -6.31641 -11.6582 -9.25293c-12.2012 -3.57422 -33.4766 -4.84473 -60.46 -4.84473h-461v-127z" />
    <glyph glyph-name="D.ss01" horiz-adv-x="856" 
d="M65 0h549c66 0 111.556 20.6494 138.894 59.252c21.7139 30.6621 31.1064 71.4854 31.1064 120.075v266.066c0 114.021 -73 168.606 -187 168.606h-532v-127h548c13.4961 0 44 -18.7334 44 -44.043v-261.383c0 -18.8701 -7.66797 -38.0166 -17.3301 -47.6836
c-4.81348 -4.81641 -9.55957 -6.88281 -13.6699 -6.89062h-561v-127z" />
    <glyph glyph-name="E.ss01" horiz-adv-x="832" 
d="M65 255h639v127h-639v-127zM65 0h702v127h-702v-127zM65 614h678v-127h-678v127z" />
    <glyph glyph-name="F.ss01" horiz-adv-x="764" 
d="M65 329h602v-127h-602v127zM65 614h634v-127h-634v127z" />
    <glyph glyph-name="P.ss01" horiz-adv-x="740" 
d="M65 179h438c51.9893 -0.119141 91.7256 7.81152 120.397 28.1846c36.1816 25.71 51.6025 69.709 51.6025 134.817v108.996c0 61.4121 -18.0713 105.51 -53.5801 132.239c-28.252 21.2676 -66.4199 30.7627 -112.42 30.7627h-444v-127h451
c15.2129 -0.0332031 32 -16.7227 32 -37.3496v-106.301c0 -23.1992 -16.9473 -37.3994 -39 -37.3496h-444v-127z" />
    <glyph glyph-name="R.ss01" horiz-adv-x="759" 
d="M65 614h446c46 0 84.168 -9.42383 112.42 -30.5332c35.5088 -26.5293 53.5801 -70.2969 53.5801 -131.251v-86.7393c0 -46.7773 -7.95117 -82.4043 -26.1934 -108.37c19.7598 -16.4404 36.1934 -55.3584 36.1934 -122.611
c0 -26.375 -0.231445 -17.0635 -0.231445 -36.9844c0 -6.2334 0.261719 -44.4131 0.261719 -69.2627c0 -17.877 -0.0234375 -18.085 -0.0527344 -28.248h-136.978v132.718c0 19.7021 -9.77832 44.6963 -23.6045 58.125c-6.87988 6.68164 -14.1934 10.1904 -21.3955 10.1572
h-440v127h446c21.9941 0.0986328 39 14.0684 39 37.1318v84.7363c0 20.5068 -16.7793 37.0986 -32 37.1318h-453v127z" />
    <glyph glyph-name="b.ss01" horiz-adv-x="792" 
d="M65 0h461c63 0 109.175 5.2207 141.885 21.3096c41.7441 20.5322 58.5898 58.4199 58.5898 117.084c0 31.8535 -0.474609 54.6309 -0.474609 89.6641c0 36.2793 -12.2461 72.4629 -55.1494 89.3633c18.8184 13.8457 29.1494 39.9883 29.1494 74.3691
c0 42.749 1 28.5332 1 76.9941c0 58.0908 -15.832 97.8604 -55.8711 120.565c-31.5068 17.8662 -76.1289 24.6504 -137.129 24.6504h-443v-127h443c49.8936 -0.112305 65 -7.43652 65 -20.4824c0 -40.4521 -0.735352 -43.3809 -0.735352 -73.5518
c0 -1.95996 -0.459961 -3.09082 -1.4209 -4.22852c-1.53711 -1.82031 -5.64355 -4.35449 -14.1357 -6.22754c-10.4492 -2.30566 -26.5449 -3.50977 -48.708 -3.50977h-443v-127h443c29 0 50.8057 -1.81934 65.5117 -5.37695
c11.877 -2.87305 18.5381 -6.79199 21.5996 -10.5518c1.94922 -2.39258 2.88867 -4.9834 2.88867 -8.51758l0.118164 -86.4561c0 -3.3125 -1.63281 -6.31641 -11.6582 -9.25293c-12.2012 -3.57422 -33.4766 -4.84473 -60.46 -4.84473h-461v-127z" />
    <glyph glyph-name="d.ss01" horiz-adv-x="856" 
d="M65 0h549c66 0 111.556 20.6494 138.894 59.252c21.7139 30.6621 31.1064 71.4854 31.1064 120.075v266.066c0 114.021 -73 168.606 -187 168.606h-532v-127h548c13.4961 0 44 -18.7334 44 -44.043v-261.383c0 -18.8701 -7.66797 -38.0166 -17.3301 -47.6836
c-4.81348 -4.81641 -9.55957 -6.88281 -13.6699 -6.89062h-561v-127z" />
    <glyph glyph-name="e.ss01" horiz-adv-x="832" 
d="M65 255h639v127h-639v-127zM65 0h702v127h-702v-127zM65 614h678v-127h-678v127z" />
    <glyph glyph-name="f.ss01" horiz-adv-x="764" 
d="M65 329h602v-127h-602v127zM65 614h634v-127h-634v127z" />
    <glyph glyph-name="p.ss01" horiz-adv-x="740" 
d="M65 179h438c51.9893 -0.119141 91.7256 7.81152 120.397 28.1846c36.1816 25.71 51.6025 69.709 51.6025 134.817v108.996c0 61.4121 -18.0713 105.51 -53.5801 132.239c-28.252 21.2676 -66.4199 30.7627 -112.42 30.7627h-444v-127h451
c15.2129 -0.0332031 32 -16.7227 32 -37.3496v-106.301c0 -23.1992 -16.9473 -37.3994 -39 -37.3496h-444v-127z" />
    <glyph glyph-name="r.ss01" horiz-adv-x="759" 
d="M65 614h446c46 0 84.168 -9.42383 112.42 -30.5332c35.5088 -26.5293 53.5801 -70.2969 53.5801 -131.251v-86.7393c0 -46.7773 -7.95117 -82.4043 -26.1934 -108.37c19.7598 -16.4404 36.1934 -55.3584 36.1934 -122.611
c0 -26.375 -0.231445 -17.0635 -0.231445 -36.9844c0 -6.2334 0.261719 -44.4131 0.261719 -69.2627c0 -17.877 -0.0234375 -18.085 -0.0527344 -28.248h-136.978v132.718c0 19.7021 -9.77832 44.6963 -23.6045 58.125c-6.87988 6.68164 -14.1934 10.1904 -21.3955 10.1572
h-440v127h446c21.9941 0.0986328 39 14.0684 39 37.1318v84.7363c0 20.5068 -16.7793 37.0986 -32 37.1318h-453v127z" />
    </font>
</defs>
</svg>
