<?xml version="1.0" standalone="no"?>
<!DOCTYPE svg PUBLIC "-//W3C//DTD SVG 1.1//EN" "http://www.w3.org/Graphics/SVG/1.1/DTD/svg11.dtd" >
<svg xmlns="http://www.w3.org/2000/svg" xmlns:xlink="http://www.w3.org/1999/xlink" version="1.1">
<metadata>
Created by FontForge 20170924 at Tue Apr 27 03:09:32 2021
 By www-data
Copyright (c) 2021, 4RM Font. All rights reserved
</metadata>
<defs>
<font id="Brink-Bold" horiz-adv-x="822" >
  <font-face 
    font-family="Brink"
    font-weight="700"
    font-stretch="normal"
    units-per-em="1000"
    panose-1="2 0 8 3 0 0 0 0 0 0"
    ascent="800"
    descent="-200"
    x-height="614"
    cap-height="614"
    bbox="-177.587 -231.67 1432 842"
    underline-thickness="50"
    underline-position="-100"
    stemh="111"
    stemv="111"
    unicode-range="U+0020-2122"
  />
<missing-glyph horiz-adv-x="500" 
d="M50 0v533h400v-533h-400zM100 50h300v433h-300v-433z" />
    <glyph glyph-name=".notdef" horiz-adv-x="500" 
d="M50 0v533h400v-533h-400zM100 50h300v433h-300v-433z" />
    <glyph glyph-name="space" unicode=" " horiz-adv-x="326" 
 />
    <glyph glyph-name="exclam" unicode="!" horiz-adv-x="202" 
d="M157 120v-120h-112v120h112zM45 614h111v-282l-6 -167h-99l-6 167v282z" />
    <glyph glyph-name="quotedbl" unicode="&#x22;" horiz-adv-x="360" 
d="M204 614h111v-120l-9 -98h-91l-11 98v120zM45 614h111v-120l-9 -98h-91l-11 98v120z" />
    <glyph glyph-name="numbersign" unicode="#" horiz-adv-x="686" 
d="M259 328v-74h167v74h-167zM148 548h111v-120h167v120h111v-120h104.011v-100h-104.011v-74h104.011v-100h-104.011v-106h-111v106h-167v-106h-111v106h-103v100h103v74h-103v100h103v120z" />
    <glyph glyph-name="dollar" unicode="$" horiz-adv-x="786" 
d="M714 425.593l-111.001 -0.000976562v45c0 19.0225 -19.1211 32.8613 -56 32.8613c-22.334 0 -61.376 0.0517578 -104.999 0.123047v-149.823c196.086 -19.7402 272 -56.9873 272 -149.16v-63c0 -105.042 -55.7012 -144 -167 -144
c-26.0068 0 -63.9805 0.0449219 -105 0.104492v-99.6973h-100v99.8555c-48.6631 0.0791016 -91.2871 0.144531 -112 0.144531c-110.312 0 -165 37.1924 -165 144v41h109v-41c0 -20.9883 12.4844 -33 42 -33c4.60938 0 60.291 -0.0869141 126 -0.180664v142.48
c-185.603 17.3213 -277 56.6406 -277 151.7v68c0 95.0059 53.9336 144 151 144h126v96h100v-96h105c120.765 0 167 -46.3896 167 -144.407v-45zM341.999 503.754c-66.3818 0.125977 -122.525 0.244141 -126 0.244141c-18.0742 0 -40 -14.3848 -40 -33v-68
c0 -14.5508 74.6182 -31.001 166 -40.4209v141.177zM441.998 108.684c43.5479 -0.0537109 82.5547 -0.0927734 105 -0.0927734c40.5703 0 56 15.2725 56 33v63c0 12.75 -59.2119 27.7949 -161 38.2051v-134.112z" />
    <glyph glyph-name="percent" unicode="%" horiz-adv-x="1047" 
d="M864 95c27.7266 0 42 19 42 49v37c0 31 -13.2734 48 -42 48h-104c-28.7266 0 -42 -17 -42 -48v-37c0 -30 14.2734 -49 42 -49h104zM864 325c93.2227 0 138 -50.8389 138 -144v-37c0 -93.1611 -44.7773 -144 -138 -144h-104c-93.2227 0 -138 50.8389 -138 144v37
c0 93.1611 44.7773 144 138 144h49h55zM287 384c27.7266 0 42 19 42 49v37c0 31 -13.2734 48 -42 48h-104c-28.7266 0 -42 -17 -42 -48v-37c0 -30 14.2734 -49 42 -49h104zM287 614c93.2227 0 138 -50.8389 138 -144v-37c0 -93.1611 -44.7773 -144 -138 -144h-104
c-93.2227 0 -138 50.8389 -138 144v37c0 93.1611 44.7773 144 138 144h49h55zM900 614l-605 -614h-142l605 614h142z" />
    <glyph glyph-name="ampersand" unicode="&#x26;" horiz-adv-x="834" 
d="M208 265c-26.8164 0 -52 -8.9873 -52 -42v-82c0 -21.2773 30.4961 -33 57 -33h259c45 0 81 36 81 36l-96 121h-249zM203 505c-28.6797 0 -47 -12.9688 -47 -29v-58c0 -30.999 27 -51 63 -53h248c27.0029 0 52 11 52 37v74c0 16 -19.0898 29 -41 29h-275zM789 0h-129
l-39 51s-70.9424 -54 -149 -54h-259c-107.051 0 -168 33 -168 144v82c0 57.0059 16 84 38 100c-12 14 -38 40.9912 -38 95v58c0 96.0059 62.9805 140 158 140c42.2217 0 223.444 -0.0253906 275 -0.0253906c101.018 0 152 -47.9502 152 -139.975v-74
c0 -70.7695 -32.3516 -102.371 -57 -112l50 -65l37 45h126l-98 -133z" />
    <glyph glyph-name="quotesingle" unicode="'" horiz-adv-x="201" 
d="M45 614h111v-120l-9 -98h-91l-11 98v120z" />
    <glyph glyph-name="parenleft" unicode="(" horiz-adv-x="374" 
d="M156 465v-329c0 -46.0664 65 -70 173 -70v-104c-171 0 -284 39.5225 -284 174v329c0 134.478 113 174 284 174v-103c-108 0 -173 -24.9336 -173 -71z" />
    <glyph glyph-name="parenright" unicode=")" horiz-adv-x="374" 
d="M218 465c0 46.0664 -65 71 -173 71v103c171 0 284 -39.5225 284 -174v-329c0 -134.478 -113 -174 -284 -174v104c108 0 173 23.9336 173 70v329z" />
    <glyph glyph-name="asterisk" unicode="*" horiz-adv-x="412" 
d="M253.828 356.16l-10.8281 -84.1602h-68l-12.5645 85.9375l-79.0273 -38.0029l-38.0254 56.374l75.8301 66.6914l-75.8301 66.6914l38.0254 56.374l79.0273 -38.0029l12.5645 85.9375h68l10.8281 -84.1602l75.0859 37.7129l38.0254 -56.374l-74.8809 -68.1787
l74.8809 -68.1787l-38.0254 -56.374z" />
    <glyph glyph-name="plus" unicode="+" horiz-adv-x="481" 
d="M45 340h135v157h111v-157h145v-111h-145v-158h-111v158h-135v111z" />
    <glyph glyph-name="comma" unicode="," horiz-adv-x="376" 
d="M191 83h140l-173 -199h-113z" />
    <glyph glyph-name="hyphen" unicode="-" horiz-adv-x="454" 
d="M130 229h-85v111h140h224v-111h-279z" />
    <glyph glyph-name="period" unicode="." horiz-adv-x="202" 
d="M157 120v-120h-112v120h112z" />
    <glyph glyph-name="slash" unicode="/" horiz-adv-x="932" 
d="M887 614l-677 -614h-164.441l677.441 614h164z" />
    <glyph glyph-name="zero" unicode="0" horiz-adv-x="770" 
d="M215 109h340c24.29 0 40 14.3545 40 38v318c0 23.6455 -15.71 38 -40 38h-340c-24.29 0 -40 -14.3545 -40 -38v-318c0 -24.6455 15.71 -38 40 -38zM215 -2c-93.9766 0 -150 34.9678 -150 149v318c0 114.032 56.0234 149 150 149h340c93.9766 0 150 -34.9678 150 -149
v-318c0 -114.032 -56.0234 -149 -150 -149h-340z" />
    <glyph glyph-name="one" unicode="1" horiz-adv-x="342" 
d="M166 614h111v-614h-111v447h-101v95s101 17.9023 101 72z" />
    <glyph glyph-name="two" unicode="2" horiz-adv-x="721" 
d="M176 408h-111v67c0 92.8115 52.6465 139 144 139h307c110 0 139 -47.959 139 -139v-77c0 -130.004 -114.648 -163.613 -207 -188c-49.2715 -13.0107 -132.358 -27.1006 -181 -44c-67.3604 -23.4023 -77 -55 -77 -55h466v-111h-591v110s-1.14551 90.167 101 129
c60.8379 23.1289 177.614 45.7471 224 59c70 20 154 43 154 100v77c0 13.0381 -9.88965 28 -28 28h-307c-11.6533 0 -33 -10.1094 -33 -28v-67z" />
    <glyph glyph-name="three" unicode="3" horiz-adv-x="770" 
d="M176 412h-111v67c0 94.0664 34 135 125 135h362c99 0 153 -42.9785 153 -135v-88c0 -49.0283 -12 -72 -43 -82c32.6826 -15.1504 43 -33.5293 43 -83v-93c0 -83 -31.9629 -136 -153 -136h-362c-79.0605 0 -125 30.8594 -125 136v67h111v-67c0 -15.4229 11 -25 24 -25h352
c27.9541 0 42 7.98047 42 25v93c0 10.1904 -15.8398 25 -42 25h-285c-48.1045 0 -28 0 -28 0v111h28h285c29.0176 0 42 10.9824 42 29v88c0 12 -13.7725 24 -42 24h-352c-13.1807 0 -24 -11.4082 -24 -24v-67z" />
    <glyph glyph-name="four" unicode="4" horiz-adv-x="827" 
d="M547 473l-315.197 -239h315.197v239zM547 614h111v-380h104v-111h-104v-123h-111v123h-482v111z" />
    <glyph glyph-name="five" unicode="5" horiz-adv-x="712" 
d="M647 614v-102h-470v-130.846s26 27.8457 60 27.8457h255c116.004 0 154 -62.4268 154 -163c0 -58.2148 1 -41.6709 1 -92c0 -117.004 -65.1943 -156.356 -154 -156.356c-84.5439 0 -219.627 0.356445 -273 0.356445c-92.4082 0 -154 44.5605 -154 140v29h112v-29
c0 -18.4824 21.6592 -29 42 -29c8.86621 0 196.836 -0.0644531 273 -0.0644531c26.9238 0 43 20.042 43 45.0645v92c0 22.8604 -17.377 52 -44 52h-259c-25.6084 0 -56 -27.7891 -56 -56h-112l1 372h581z" />
    <glyph glyph-name="six" unicode="6" horiz-adv-x="765" 
d="M693 446h-111v33c0 13.0381 -13.8857 24 -45 24h-317c-26.0449 0 -44 -16 -44 -31v-103.846s18.9795 20.8457 46 20.8457h315c116 0 156 -45.2656 156 -139v-114c0 -83.0068 -31.9834 -138 -156 -138h-317c-83.4082 0 -155 28.8418 -155 138
c0 37.3926 0.482422 75.8604 0 114v222c0 90.6406 47.3535 142 155 142h317c117 0 156 -40.9951 156 -135v-33zM176 136c0 -18.4277 20 -27 44 -27h317c25.2461 0 45 7.36426 45 27v114c0 22.0225 -17.9395 39 -45 39h-317c-24 0 -44 -15.7373 -44 -39v-114z" />
    <glyph glyph-name="seven" unicode="7" horiz-adv-x="771" 
d="M65 614h641v-111l-326 -503h-131.225l323.326 503h-507.102v111z" />
    <glyph glyph-name="eight" unicode="8" horiz-adv-x="752" 
d="M545 109c17.1328 0 32 12 32 28v98c0 17.0127 -15.9619 30 -32 30h-338c-16.0381 0 -32 -12.9873 -32 -30v-98c0 -16 14.8672 -28 32 -28h338zM545 376c16.1328 0 32 7.94141 32 23v80c0 15.1328 -16.8672 24 -32 24h-338c-14.1328 0 -32 -8.86719 -32 -24v-80
c0 -15.0586 15.8672 -23 32 -23h338zM545 -2h-338c-92.7891 0 -142 37 -142 139v98c0 54 15.8242 80.9854 35.2109 90c-17.3867 10.9854 -35.2109 38 -35.2109 74v80c0 87.4277 41.0723 135 142 135h338c100.928 0 142 -47.5723 142 -135v-80
c0 -36 -17.8242 -63.0146 -35.2109 -74c19.3867 -9.01465 35.2109 -36 35.2109 -90v-98c0 -102 -49.2109 -139 -142 -139zM687 399z" />
    <glyph glyph-name="nine" unicode="9" horiz-adv-x="765" 
d="M590 477c0 14.0947 -15.9473 26 -39 26h-348c-12.0527 0 -28 -11.7871 -28 -26v-116c0 -19.1084 14.9121 -29 28 -29h348c16.7041 0 38.751 13.5361 38.751 29c0 53.7773 0.249023 24.79 0.249023 116zM590 142v112s-14.5156 -23 -43 -23h-347
c-82 0 -135 41.4492 -135 137v111c0 99.0176 49.9922 135 138 135h348c104 0 149 -50.9434 149 -135v-341c0 -107.159 -58.8906 -138 -151 -138h-347c-89.5303 0 -137 36.8008 -137 132v52h110v-48c0 -16.2178 14.9375 -25 28 -25h348c23.3467 0 39 12.8828 39 31z" />
    <glyph glyph-name="colon" unicode=":" horiz-adv-x="202" 
d="M157 211v-120h-112v120h112zM157 494v-120h-112v120h112z" />
    <glyph glyph-name="semicolon" unicode=";" horiz-adv-x="376" 
d="M191 211h140l-173 -199h-113zM316 494v-120h-112v120h112z" />
    <glyph glyph-name="less" unicode="&#x3c;" horiz-adv-x="740" 
d="M287 301l408 -133v-113l-650 246l650 246v-113z" />
    <glyph glyph-name="equal" unicode="=" horiz-adv-x="531" 
d="M45 223h441v-111h-441v111zM45 405h441v-111h-441v111z" />
    <glyph glyph-name="greater" unicode="&#x3e;" horiz-adv-x="740" 
d="M453 301l-408 133v113l650 -246l-650 -246v113z" />
    <glyph glyph-name="question" unicode="?" horiz-adv-x="693" 
d="M391 120v-120h-112v120h112zM156 417h-111v54c0 99.916 54.2832 145 143 145c42.3164 0 257.723 -2 310 -2c106.018 0 150 -53.9941 150 -148v-75c0 -87 -122.261 -112.417 -228 -160c-20 -9 -29 -40 -29 -66h-112c0 44 2.00293 88.4824 46 117
c101.013 65.4736 212 73.9854 212 109v75c0 20.3438 -13.1104 37 -39 37c-51.6582 0 -300.309 2 -308 2c-17.4629 0 -34 -17.9736 -34 -34v-54z" />
    <glyph glyph-name="at" unicode="@" horiz-adv-x="979" 
d="M146 108c0 -98.4375 104 -171 188 -171h303v-101h-306c-155.003 0 -285.999 101.997 -285.999 272c0 129 -0.000976562 124.689 -0.000976562 216.4c0 154.603 109 296 262 296h388c149 0 239 -95.7168 239 -248c0 -91.7109 -0.000976562 -116.201 -0.000976562 -201.4
c0 -99.0049 -51.9785 -175 -146.999 -175c-57.0752 0 -116 48 -116 48s-34.1787 -45 -96 -45h-206c-89.0225 0 -149 56.5078 -149 157v145c0 92.5977 70.9854 159 149 159h204c45.1729 0 69 -35.5996 69 -35.5996v34h101v-284.4c0.000976562 -54.1631 32.6611 -67 44 -67
c20.1172 0 46 23.9873 46 64v201.4c0 94.5918 -60.9297 147 -138 147h-388c-76.043 0 -161 -92.4082 -161 -195v-216.4zM642 302.4c0 18.9443 -33.748 46.5996 -69 46.5996h-204c-17.708 0 -38 -14.3203 -38 -48v-145c0 -26.0771 15.9775 -49 38 -49h206
c36.8467 0 67 18.8506 67 49v146.4z" />
    <glyph glyph-name="A" unicode="A" horiz-adv-x="871" 
d="M439.149 481.497l-165.149 -268.497h325zM147 0h-133l363.149 614h129.851l350 -614h-139l-67 109h-430z" />
    <glyph glyph-name="B" unicode="B" horiz-adv-x="776" 
d="M176 260v7v-156h342c49 0 80.1182 3.81934 80.1182 23c0 19.3516 -0.118164 45.5908 -0.118164 92c0 23.8477 -30 34 -98 34h-324zM176 503v-132h324c52 0 72.2646 6.69238 72.2646 23c0 24.0107 0.735352 30.459 0.735352 79c0 22.9316 -25 30 -73 30h-324zM65 614h435
c136 0 185 -35.9453 185 -141c0 -51.9902 -1 -37.4053 -1 -79c0 -44.6113 -16.7188 -71.4268 -43 -78c55 -12 69 -49.5029 69 -90c0 -39.291 0.474609 -64.2695 0.474609 -92c0 -105.911 -51.4746 -134 -192.475 -134h-453v253v361z" />
    <glyph glyph-name="C" unicode="C" horiz-adv-x="820" 
d="M644 242h111v-100c0 -117.045 -54.9082 -146 -157 -146h-391c-90.0312 0 -142 33.9541 -142 157v307c0 125.032 68.0234 154 153 154h379c94.167 0 158 -28.9951 158 -151v-96h-111v96c0 22.3799 -8.1084 40 -37 40h-389c-25.29 0 -42 -11.3545 -42 -43v-307
c0 -32.0869 10.9893 -46 31 -46h400c26.0195 0 37 16.8174 37 35v100z" />
    <glyph glyph-name="D" unicode="D" horiz-adv-x="840" 
d="M176 503v-392h442c21.0127 0 39 32.6738 39 65v273c0 32.0137 -34.377 54 -52 54c-19 0 -427.055 0.132812 -429 0zM65 614h524c100.604 0 179 -44.9492 179 -165v-273c0 -110.016 -47 -176 -162 -176h-541v614z" />
    <glyph glyph-name="E" unicode="E" horiz-adv-x="816" 
d="M65 614h662v-111h-551v-129h512v-111h-512v-152h575v-111h-686v614z" />
    <glyph glyph-name="F" unicode="F" horiz-adv-x="748" 
d="M65 614h618v-111h-507v-182h475v-111h-475v-210h-111v614z" />
    <glyph glyph-name="G" unicode="G" horiz-adv-x="823" 
d="M758 307v-165c0 -117.045 -54.9082 -146 -157 -146h-394c-90.0312 0 -142 33.9541 -142 157v307c0 125.032 68.0234 154 153 154h382c94.167 0 158 -28.9951 158 -151v-75h-111v75c0 22.3799 -8.1084 40 -37 40h-392c-25.29 0 -42 -11.3545 -42 -43v-307
c0 -32.0869 10.9893 -46 31 -46h403c26.0195 0 37 16.8174 37 35v65h-265v100h376z" />
    <glyph glyph-name="H" unicode="H" horiz-adv-x="859" 
d="M65 614h111v-264h507v264h111v-614h-111v239h-507v-239h-111v614z" />
    <glyph glyph-name="I" unicode="I" horiz-adv-x="241" 
d="M65 614h111v-614h-111v614z" />
    <glyph glyph-name="J" unicode="J" horiz-adv-x="786" 
d="M176 259v-110c0 -19.1768 11.4385 -40 39 -40h361c17.2568 0 34 23.8135 34 52v453h111v-453c0 -122.03 -55.9248 -163 -161 -163h-345c-107.018 0 -150 65.2373 -150 151v110h111z" />
    <glyph glyph-name="K" unicode="K" horiz-adv-x="904" 
d="M187 355h180l292 259h180l-362 -313l362 -301h-180l-292 244h-180v-244h-122v614h122v-259z" />
    <glyph glyph-name="L" unicode="L" horiz-adv-x="736" 
d="M65 614h111v-514h495v-100h-606v614z" />
    <glyph glyph-name="M" unicode="M" horiz-adv-x="898" 
d="M722 425l-213 -362h-114.326l-218.674 362l11 -6v-419h-122v614h134l254 -415l246 415h134v-614h-122v419z" />
    <glyph glyph-name="N" unicode="N" horiz-adv-x="841" 
d="M176 443l11 4v-447h-122v614h111l478 -470v470h122v-614h-147z" />
    <glyph glyph-name="O" unicode="O" horiz-adv-x="819" 
d="M230 110h359c24.29 0 54 32.3545 54 61v271c0 28.6455 -29.71 61 -54 61h-359c-24.29 0 -54 -32.3545 -54 -61v-271c0 -28.6455 29.71 -61 54 -61zM230 -1c-85.9766 0 -165 58.9678 -165 172v271c0 113.032 79.0234 172 165 172h359c85.9766 0 165 -58.9678 165 -172
v-271c0 -113.032 -79.0234 -172 -165 -172h-359zM754 142z" />
    <glyph glyph-name="P" unicode="P" horiz-adv-x="724" 
d="M176 503v-205h325c26.0488 0 47 18.29 47 47v111c0 25.0146 -19.1514 47 -40 47h-332zM176 0l-111 1v613h436c101.263 0 158 -48.0234 158 -158v-111c0 -117.549 -49 -158 -164 -158h-319v-187z" />
    <glyph glyph-name="Q" unicode="Q" horiz-adv-x="819" 
d="M860 0h-162.999l-27.9414 17.9863c-24.2207 -12.5996 -51.7637 -18.9863 -80.0596 -18.9863h-359c-85.9766 0 -165 58.9678 -165 172v271c0 113.032 79.0234 172 165 172h359c85.9766 0 165 -58.9678 165 -172v-271c0 -35.0732 -7.6084 -64.9414 -20.6729 -89.457z
M635.548 144.485c4.625 8.48535 7.45312 17.6768 7.45312 26.5146v271c0 28.6455 -29.71 61 -54 61h-359c-24.29 0 -54 -32.3545 -54 -61v-271c0 -28.6455 29.71 -61 54 -61h296.119l-76.1191 49h163z" />
    <glyph glyph-name="R" unicode="R" horiz-adv-x="743" 
d="M176 503v-183h327c26.0488 0 47 18.29 47 47v89c0 25.0146 -19.1514 47 -40 47h-334zM497 209h-321v-209l-111 1v613h438c101.263 0 158 -48.0234 158 -158v-89c0 -51.3721 -9.3584 -88.0195 -29.4951 -113c18.3887 -10.1689 39.4951 -47.3633 39.4951 -124
c0 -44.0908 -0.521484 -0.00488281 0 -95c0.0673828 -11.1191 0 -35 0 -35h-121v36v94c0 33.9639 -22.9883 79 -53 79z" />
    <glyph glyph-name="S" unicode="S" horiz-adv-x="786" 
d="M714 425.593h-111v45c0 19.0225 -19.1211 32.8613 -56 32.8613c-72.8604 0 -323.533 0.545898 -331 0.545898c-18.0742 0 -40 -14.3848 -40 -33v-68c0 -16.6289 97.4473 -35.7373 206 -44c240.77 -18.3262 332 -53.3623 332 -154.407v-63
c0 -105.042 -55.7012 -144 -167 -144c-78.3838 0 -265.479 0.407227 -317 0.407227c-110.312 0 -165 37.1924 -165 144v41h109v-41c0 -20.9883 12.4844 -33 42 -33c9.95215 0 258.021 -0.407227 331 -0.407227c40.5703 0 56 15.2725 56 33v63
c0 15.0811 -82.8428 33.373 -221 43.4072c-212.478 15.4326 -317 53.3438 -317 155v68c0 95.0059 53.9336 144 151 144h331c120.765 0 167 -46.3896 167 -144.407v-45z" />
    <glyph glyph-name="T" unicode="T" horiz-adv-x="785" 
d="M65 614h655v-100h-277v-514h-111v514h-267v100z" />
    <glyph glyph-name="U" unicode="U" 
d="M600 -1h-378c-94.043 0 -157 53.918 -157 165v450h111v-450c0 -28 8.61133 -54 37 -54h396c28.3887 0 37 26 37 54v450h111v-450c0 -111.082 -62.957 -165 -157 -165z" />
    <glyph glyph-name="V" unicode="V" horiz-adv-x="808" 
d="M407 104l264 510h123l-311 -614h-162l-307 614h122z" />
    <glyph glyph-name="W" unicode="W" horiz-adv-x="974" 
d="M673 166l165 448h122l-232 -614h-121l-120 410l-150 -410h-117l-206 614h123l153 -448l136 448h122z" />
    <glyph glyph-name="X" unicode="X" horiz-adv-x="818" 
d="M409 222l-234 -222h-161l317 301l-317 313h160l235 -238l236 238h159l-317 -310l317 -304h-166z" />
    <glyph glyph-name="Y" unicode="Y" horiz-adv-x="808" 
d="M405.011 350l237.989 264h151l-327.939 -373l-0.0498047 -241h-122l0.0498047 240l-330.11 374h158.05z" />
    <glyph glyph-name="Z" unicode="Z" horiz-adv-x="785" 
d="M65 614h655v-111l-487 -392h487v-111h-655v111l490 392h-490v111z" />
    <glyph glyph-name="bracketleft" unicode="[" horiz-adv-x="417" 
d="M372 639v-110h-216v-456h216v-111h-327v677h327z" />
    <glyph glyph-name="backslash" unicode="\" horiz-adv-x="932" 
d="M45 614h164l677.441 -614h-164.441z" />
    <glyph glyph-name="bracketright" unicode="]" horiz-adv-x="417" 
d="M45 639h327v-677h-327v111h216v456h-216v110z" />
    <glyph glyph-name="asciicircum" unicode="^" horiz-adv-x="546" 
d="M190 401h-145l177 213h120l159 -213h-147l-75 73z" />
    <glyph glyph-name="underscore" unicode="_" horiz-adv-x="483" 
d="M45 83h393v-83h-393v83z" />
    <glyph glyph-name="grave" unicode="`" horiz-adv-x="466" 
d="M45 614h173l202.087 -151h-154z" />
    <glyph glyph-name="a" unicode="a" horiz-adv-x="871" 
d="M439.149 481.497l-165.149 -268.497h325zM147 0h-133l363.149 614h129.851l350 -614h-139l-67 109h-430z" />
    <glyph glyph-name="b" unicode="b" horiz-adv-x="776" 
d="M176 260v7v-156h342c49 0 80.1182 3.81934 80.1182 23c0 19.3516 -0.118164 45.5908 -0.118164 92c0 23.8477 -30 34 -98 34h-324zM176 503v-132h324c52 0 72.2646 6.69238 72.2646 23c0 24.0107 0.735352 30.459 0.735352 79c0 22.9316 -25 30 -73 30h-324zM65 614h435
c136 0 185 -35.9453 185 -141c0 -51.9902 -1 -37.4053 -1 -79c0 -44.6113 -16.7188 -71.4268 -43 -78c55 -12 69 -49.5029 69 -90c0 -39.291 0.474609 -64.2695 0.474609 -92c0 -105.911 -51.4746 -134 -192.475 -134h-453v253v361z" />
    <glyph glyph-name="c" unicode="c" horiz-adv-x="820" 
d="M644 242h111v-100c0 -117.045 -54.9082 -146 -157 -146h-391c-90.0312 0 -142 33.9541 -142 157v307c0 125.032 68.0234 154 153 154h379c94.167 0 158 -28.9951 158 -151v-96h-111v96c0 22.3799 -8.1084 40 -37 40h-389c-25.29 0 -42 -11.3545 -42 -43v-307
c0 -32.0869 10.9893 -46 31 -46h400c26.0195 0 37 16.8174 37 35v100z" />
    <glyph glyph-name="d" unicode="d" horiz-adv-x="840" 
d="M176 503v-392h442c21.0127 0 39 32.6738 39 65v273c0 32.0137 -34.377 54 -52 54c-19 0 -427.055 0.132812 -429 0zM65 614h524c100.604 0 179 -44.9492 179 -165v-273c0 -110.016 -47 -176 -162 -176h-541v614z" />
    <glyph glyph-name="e" unicode="e" horiz-adv-x="816" 
d="M65 614h662v-111h-551v-129h512v-111h-512v-152h575v-111h-686v614z" />
    <glyph glyph-name="f" unicode="f" horiz-adv-x="748" 
d="M65 614h618v-111h-507v-182h475v-111h-475v-210h-111v614z" />
    <glyph glyph-name="g" unicode="g" horiz-adv-x="823" 
d="M758 307v-165c0 -117.045 -54.9082 -146 -157 -146h-394c-90.0312 0 -142 33.9541 -142 157v307c0 125.032 68.0234 154 153 154h382c94.167 0 158 -28.9951 158 -151v-75h-111v75c0 22.3799 -8.1084 40 -37 40h-392c-25.29 0 -42 -11.3545 -42 -43v-307
c0 -32.0869 10.9893 -46 31 -46h403c26.0195 0 37 16.8174 37 35v65h-265v100h376z" />
    <glyph glyph-name="h" unicode="h" horiz-adv-x="859" 
d="M65 614h111v-264h507v264h111v-614h-111v239h-507v-239h-111v614z" />
    <glyph glyph-name="i" unicode="i" horiz-adv-x="241" 
d="M65 614h111v-614h-111v614z" />
    <glyph glyph-name="j" unicode="j" horiz-adv-x="786" 
d="M176 259v-110c0 -19.1768 11.4385 -40 39 -40h361c17.2568 0 34 23.8135 34 52v453h111v-453c0 -122.03 -55.9248 -163 -161 -163h-345c-107.018 0 -150 65.2373 -150 151v110h111z" />
    <glyph glyph-name="k" unicode="k" horiz-adv-x="904" 
d="M187 355h180l292 259h180l-362 -313l362 -301h-180l-292 244h-180v-244h-122v614h122v-259z" />
    <glyph glyph-name="l" unicode="l" horiz-adv-x="736" 
d="M65 614h111v-514h495v-100h-606v614z" />
    <glyph glyph-name="m" unicode="m" horiz-adv-x="898" 
d="M722 425l-213 -362h-114.326l-218.674 362l11 -6v-419h-122v614h134l254 -415l246 415h134v-614h-122v419z" />
    <glyph glyph-name="n" unicode="n" horiz-adv-x="841" 
d="M176 443l11 4v-447h-122v614h111l478 -470v470h122v-614h-147z" />
    <glyph glyph-name="o" unicode="o" horiz-adv-x="819" 
d="M230 110h359c24.29 0 54 32.3545 54 61v271c0 28.6455 -29.71 61 -54 61h-359c-24.29 0 -54 -32.3545 -54 -61v-271c0 -28.6455 29.71 -61 54 -61zM230 -1c-85.9766 0 -165 58.9678 -165 172v271c0 113.032 79.0234 172 165 172h359c85.9766 0 165 -58.9678 165 -172
v-271c0 -113.032 -79.0234 -172 -165 -172h-359zM754 142z" />
    <glyph glyph-name="p" unicode="p" horiz-adv-x="724" 
d="M176 503v-205h325c26.0488 0 47 18.29 47 47v111c0 25.0146 -19.1514 47 -40 47h-332zM176 0l-111 1v613h436c101.263 0 158 -48.0234 158 -158v-111c0 -117.549 -49 -158 -164 -158h-319v-187z" />
    <glyph glyph-name="q" unicode="q" horiz-adv-x="819" 
d="M860 0h-162.999l-27.9414 17.9863c-24.2207 -12.5996 -51.7637 -18.9863 -80.0596 -18.9863h-359c-85.9766 0 -165 58.9678 -165 172v271c0 113.032 79.0234 172 165 172h359c85.9766 0 165 -58.9678 165 -172v-271c0 -35.0732 -7.6084 -64.9414 -20.6729 -89.457z
M635.548 144.485c4.625 8.48535 7.45312 17.6768 7.45312 26.5146v271c0 28.6455 -29.71 61 -54 61h-359c-24.29 0 -54 -32.3545 -54 -61v-271c0 -28.6455 29.71 -61 54 -61h296.119l-76.1191 49h163z" />
    <glyph glyph-name="r" unicode="r" horiz-adv-x="743" 
d="M176 503v-183h327c26.0488 0 47 18.29 47 47v89c0 25.0146 -19.1514 47 -40 47h-334zM497 209h-321v-209l-111 1v613h438c101.263 0 158 -48.0234 158 -158v-89c0 -51.3721 -9.3584 -88.0195 -29.4951 -113c18.3887 -10.1689 39.4951 -47.3633 39.4951 -124
c0 -44.0908 -0.521484 -0.00488281 0 -95c0.0673828 -11.1191 0 -35 0 -35h-121v36v94c0 33.9639 -22.9883 79 -53 79z" />
    <glyph glyph-name="s" unicode="s" horiz-adv-x="786" 
d="M714 425.593h-111v45c0 19.0225 -19.1211 32.8613 -56 32.8613c-72.8604 0 -323.533 0.545898 -331 0.545898c-18.0742 0 -40 -14.3848 -40 -33v-68c0 -16.6289 97.4473 -35.7373 206 -44c240.77 -18.3262 332 -53.3623 332 -154.407v-63
c0 -105.042 -55.7012 -144 -167 -144c-78.3838 0 -265.479 0.407227 -317 0.407227c-110.312 0 -165 37.1924 -165 144v41h109v-41c0 -20.9883 12.4844 -33 42 -33c9.95215 0 258.021 -0.407227 331 -0.407227c40.5703 0 56 15.2725 56 33v63
c0 15.0811 -82.8428 33.373 -221 43.4072c-212.478 15.4326 -317 53.3438 -317 155v68c0 95.0059 53.9336 144 151 144h331c120.765 0 167 -46.3896 167 -144.407v-45z" />
    <glyph glyph-name="t" unicode="t" horiz-adv-x="785" 
d="M65 614h655v-100h-277v-514h-111v514h-267v100z" />
    <glyph glyph-name="u" unicode="u" 
d="M600 -1h-378c-94.043 0 -157 53.918 -157 165v450h111v-450c0 -28 8.61133 -54 37 -54h396c28.3887 0 37 26 37 54v450h111v-450c0 -111.082 -62.957 -165 -157 -165z" />
    <glyph glyph-name="v" unicode="v" horiz-adv-x="808" 
d="M407 104l264 510h123l-311 -614h-162l-307 614h122z" />
    <glyph glyph-name="w" unicode="w" horiz-adv-x="974" 
d="M673 166l165 448h122l-232 -614h-121l-120 410l-150 -410h-117l-206 614h123l153 -448l136 448h122z" />
    <glyph glyph-name="x" unicode="x" horiz-adv-x="818" 
d="M409 222l-234 -222h-161l317 301l-317 313h160l235 -238l236 238h159l-317 -310l317 -304h-166z" />
    <glyph glyph-name="y" unicode="y" horiz-adv-x="808" 
d="M405.011 350l237.989 264h151l-327.939 -373l-0.0498047 -241h-122l0.0498047 240l-330.11 374h158.05z" />
    <glyph glyph-name="z" unicode="z" horiz-adv-x="785" 
d="M65 614h655v-111l-487 -392h487v-111h-655v111l490 392h-490v111z" />
    <glyph glyph-name="braceleft" unicode="{" horiz-adv-x="525" 
d="M45 248v106c35 0 113.127 33.7246 132.779 68c29.4619 51.3838 61.2158 140.469 106.221 178c56.9746 47.5137 196 39 196 39v-106s-78.624 8.47754 -116 -18c-36.7842 -26.0586 -52 -59 -81 -112c-16.4189 -30.0068 -33 -93 -59 -102c26 -9 42.5811 -71.9932 59 -102
c29 -53 44.2158 -85.9414 81 -112c37.376 -26.4775 116 -18 116 -18v-106s-139.025 -8.51367 -196 39c-45.0049 37.5312 -76.7588 126.616 -106.221 178c-19.6523 34.2754 -97.7793 68 -132.779 68z" />
    <glyph glyph-name="bar" unicode="|" horiz-adv-x="201" 
d="M45 614h111v-744h-111v744z" />
    <glyph glyph-name="braceright" unicode="}" horiz-adv-x="525" 
d="M480 248c-35 0 -113.127 -33.7246 -132.779 -68c-29.4619 -51.3838 -61.2158 -140.469 -106.221 -178c-56.9746 -47.5137 -196 -39 -196 -39v106s78.624 -8.47754 116 18c36.7842 26.0586 52 59 81 112c16.4189 30.0068 33 93 59 102c-26 9 -42.5811 71.9932 -59 102
c-29 53 -44.2158 85.9414 -81 112c-37.376 26.4775 -116 18 -116 18v106s139.025 8.51367 196 -39c45.0049 -37.5312 76.7588 -126.616 106.221 -178c19.6523 -34.2754 97.7793 -68 132.779 -68v-106z" />
    <glyph glyph-name="asciitilde" unicode="~" horiz-adv-x="523" 
d="M45 219c0 0 29.9941 139 113.5 139c42.0078 0 196 -72 214.5 -72c21.5508 0 39.5 61 39.5 61l65.5 -14s-43.5 -139 -111.5 -139c-35.1357 0 -191.5 72 -217 72c-21.5439 0 -41 -62 -41 -62z" />
    <glyph glyph-name="Euro" unicode="&#x20ac;" horiz-adv-x="761" 
d="M585 220h111v-78c0 -117.045 -54.9082 -146 -157 -146h-332c-90.0312 0 -142 33.9541 -142 157v43h-89v82h89v49h-89v82h89v51c0 125.032 68.0234 154 153 154h320c94.167 0 158 -28.9951 158 -151v-76h-111v76c0 22.3799 -8.1084 40 -37 40h-330
c-25.29 0 -42 -11.3545 -42 -43v-51h292v-82h-292v-49h292v-82h-292v-43c0 -32.0869 10.9893 -46 31 -46h341c26.0195 0 37 16.8174 37 35v78z" />
    <glyph glyph-name="quotesinglbase" unicode="&#x201a;" horiz-adv-x="376" 
d="M191 83h140l-173 -199h-113z" />
    <glyph glyph-name="florin" unicode="&#x192;" horiz-adv-x="491" 
d="M166 -31v381h-101v111h101c0 129 63.9941 153 137 153h123v-111h-123c-22 0 -25 -19 -26 -42h135v-111h-135v-413c0 -107.005 -156.99 -117 -207 -117v111c29.2744 0 96 16.7871 96 38z" />
    <glyph glyph-name="quotedblbase" unicode="&#x201e;" horiz-adv-x="587" 
d="M402 83h140l-173 -199h-113zM191 83h140l-173 -199h-113z" />
    <glyph glyph-name="ellipsis" unicode="&#x2026;" horiz-adv-x="600" 
d="M555 120v-120h-112v120h112zM356 120v-120h-112v120h112zM356 120h-112v-120h112v120zM157 120v-120h-112v120h112z" />
    <glyph glyph-name="circumflex" unicode="&#x2c6;" horiz-adv-x="546" 
d="M190 447h-145l177 167h120l159 -167h-147l-55 19.7998l-20 22.2002l-23 -21.9775zM501 447z" />
    <glyph glyph-name="perthousand" unicode="&#x2030;" horiz-adv-x="1477" 
d="M1294 95c27.7266 0 42 19 42 49v37c0 31 -13.2734 48 -42 48h-104c-28.7266 0 -42 -17 -42 -48v-37c0 -30 14.2734 -49 42 -49h104zM1294 325c93.2227 0 138 -50.8389 138 -144v-37c0 -93.1611 -44.7773 -144 -138 -144h-104c-93.2227 0 -138 50.8389 -138 144v37
c0 93.1611 44.7773 144 138 144h49h55zM864 95c27.7266 0 42 19 42 49v37c0 31 -13.2734 48 -42 48h-104c-28.7266 0 -42 -17 -42 -48v-37c0 -30 14.2734 -49 42 -49h104zM864 325c93.2227 0 138 -50.8389 138 -144v-37c0 -93.1611 -44.7773 -144 -138 -144h-104
c-93.2227 0 -138 50.8389 -138 144v37c0 93.1611 44.7773 144 138 144h49h55zM287 384c27.7266 0 42 19 42 49v37c0 31 -13.2734 48 -42 48h-104c-28.7266 0 -42 -17 -42 -48v-37c0 -30 14.2734 -49 42 -49h104zM287 614c93.2227 0 138 -50.8389 138 -144v-37
c0 -93.1611 -44.7773 -144 -138 -144h-104c-93.2227 0 -138 50.8389 -138 144v37c0 93.1611 44.7773 144 138 144h49h55zM900 614l-605 -614h-142l605 614h142z" />
    <glyph glyph-name="Scaron" unicode="&#x160;" horiz-adv-x="786" 
d="M298.5 842l66 -20.0225l23 -21.9775l20 22.2002l55 19.7998h147l-159 -167h-120l-177 167h145zM714 425.593h-111v45c0 19.0225 -19.1211 32.8613 -56 32.8613c-72.8604 0 -323.533 0.545898 -331 0.545898c-18.0742 0 -40 -14.3848 -40 -33v-68
c0 -16.6289 97.4473 -35.7373 206 -44c240.77 -18.3262 332 -53.3623 332 -154.407v-63c0 -105.042 -55.7012 -144 -167 -144c-78.3838 0 -265.479 0.407227 -317 0.407227c-110.312 0 -165 37.1924 -165 144v41h109v-41c0 -20.9883 12.4844 -33 42 -33
c9.95215 0 258.021 -0.407227 331 -0.407227c40.5703 0 56 15.2725 56 33v63c0 15.0811 -82.8428 33.373 -221 43.4072c-212.478 15.4326 -317 53.3438 -317 155v68c0 95.0059 53.9336 144 151 144h331c120.765 0 167 -46.3896 167 -144.407v-45z" />
    <glyph glyph-name="guilsinglleft" unicode="&#x2039;" horiz-adv-x="671" 
d="M45 298l386 255l195 -1l-393 -254l393 -254l-195 -1z" />
    <glyph glyph-name="OE" unicode="&#x152;" horiz-adv-x="1441" 
d="M690 31.0791c-28.6133 -21.2578 -64.1689 -32.0791 -101 -32.0791h-359c-85.9766 0 -165 58.9678 -165 172v271c0 113.032 79.0234 172 165 172h359c36.8311 0 72.3867 -10.8213 101 -32.0791v32.0791h662v-111h-551v-129h512v-111h-512v-152h575v-111h-686v31.0791z
M230 110h359c24.29 0 54 32.3545 54 61v271c0 28.6455 -29.71 61 -54 61h-359c-24.29 0 -54 -32.3545 -54 -61v-271c0 -28.6455 29.71 -61 54 -61z" />
    <glyph glyph-name="Zcaron" unicode="&#x17d;" horiz-adv-x="785" 
d="M309.5 841l66 -20.0225l23 -21.9775l20 22.2002l55 19.7998h147l-159 -167h-120l-177 167h145zM65 614h655v-111l-487 -392h487v-111h-655v111l490 392h-490v111z" />
    <glyph glyph-name="quoteleft" unicode="&#x2018;" horiz-adv-x="376" 
d="M185 614l146 -199h-113l-173 199h140z" />
    <glyph glyph-name="quoteright" unicode="&#x2019;" horiz-adv-x="376" 
d="M191 614h140l-173 -199h-113z" />
    <glyph glyph-name="quotedblleft" unicode="&#x201c;" horiz-adv-x="587" 
d="M185 614l146 -199h-113l-173 199h140zM396 614l146 -199h-113l-173 199h140z" />
    <glyph glyph-name="quotedblright" unicode="&#x201d;" horiz-adv-x="587" 
d="M402 614h140l-173 -199h-113zM191 614h140l-173 -199h-113z" />
    <glyph glyph-name="bullet" unicode="&#x2022;" horiz-adv-x="257" 
d="M61.7529 332.331c8.73145 11.6426 20.5703 20.9365 33.9551 26.6533c13.3867 5.7168 28.2842 7.8457 42.7344 6.10254c14.4531 -1.74023 28.4199 -7.3457 40.0654 -16.0781c11.6426 -8.7334 20.9365 -20.5713 26.6533 -33.957
c5.7168 -13.3867 7.8457 -28.2842 6.10254 -42.7344c-1.74023 -14.4531 -7.3457 -28.4199 -16.0781 -40.0635c-8.7334 -11.6445 -20.5713 -20.9375 -33.957 -26.6553c-13.3867 -5.7168 -28.2842 -7.8457 -42.7344 -6.10254
c-14.4531 1.74023 -28.417 7.3457 -40.0635 16.0801c-11.6445 8.73145 -20.9375 20.5693 -26.6553 33.9551c-5.7168 13.3867 -7.8457 28.2842 -6.10254 42.7344c1.74023 14.4531 7.3457 28.4199 16.0801 40.0654z" />
    <glyph glyph-name="endash" unicode="&#x2013;" horiz-adv-x="606" 
d="M130 224h-85v111h140h376v-111h-431z" />
    <glyph glyph-name="emdash" unicode="&#x2014;" horiz-adv-x="709" 
d="M130 224h-85v111h140h479v-111h-534z" />
    <glyph glyph-name="tilde" unicode="&#x2dc;" horiz-adv-x="454" 
d="M45 462c0 0 13 152 75 152c50 0 185.926 -65.2803 205.76 -65.2803c12.2559 0 19.2402 65.2803 19.2402 65.2803h64s-12.9893 -151.78 -77.7002 -151.78c-41.4453 0 -177.825 65.2803 -199.859 65.2803c-12.4482 0 -18.4404 -65.5 -18.4404 -65.5h-68z" />
    <glyph glyph-name="trademark" unicode="&#x2122;" horiz-adv-x="813" 
d="M589.004 433.815l106.808 180.185h71.2881v-276.3h-68.8994v164.137l-79.8975 -135.787h-59.3984l-82.5039 136.579v-164.929h-68.9004v276.3h71.2227zM45 555v59h308.75v-59h-124.65v-217.3h-63.9492v217.3h-120.15z" />
    <glyph glyph-name="scaron" unicode="&#x161;" horiz-adv-x="786" 
d="M298.5 842l66 -20.0225l23 -21.9775l20 22.2002l55 19.7998h147l-159 -167h-120l-177 167h145zM714 425.593h-111v45c0 19.0225 -19.1211 32.8613 -56 32.8613c-72.8604 0 -323.533 0.545898 -331 0.545898c-18.0742 0 -40 -14.3848 -40 -33v-68
c0 -16.6289 97.4473 -35.7373 206 -44c240.77 -18.3262 332 -53.3623 332 -154.407v-63c0 -105.042 -55.7012 -144 -167 -144c-78.3838 0 -265.479 0.407227 -317 0.407227c-110.312 0 -165 37.1924 -165 144v41h109v-41c0 -20.9883 12.4844 -33 42 -33
c9.95215 0 258.021 -0.407227 331 -0.407227c40.5703 0 56 15.2725 56 33v63c0 15.0811 -82.8428 33.373 -221 43.4072c-212.478 15.4326 -317 53.3438 -317 155v68c0 95.0059 53.9336 144 151 144h331c120.765 0 167 -46.3896 167 -144.407v-45z" />
    <glyph glyph-name="guilsinglright" unicode="&#x203a;" horiz-adv-x="671" 
d="M626 298l-386 -255l-195 1l393 254l-393 254l195 1z" />
    <glyph glyph-name="zcaron" unicode="&#x17e;" horiz-adv-x="785" 
d="M309.5 841l66 -20.0225l23 -21.9775l20 22.2002l55 19.7998h147l-159 -167h-120l-177 167h145zM65 614h655v-111l-487 -392h487v-111h-655v111l490 392h-490v111z" />
    <glyph glyph-name="Ydieresis" unicode="&#x178;" horiz-adv-x="808" 
d="M559.475 794v-120h-112v120h112zM360.475 794v-120h-112v120h112zM405.011 350l237.989 264h151l-327.939 -373l-0.0498047 -241h-122l0.0498047 240l-330.11 374h158.05z" />
    <glyph glyph-name="exclamdown" unicode="&#xa1;" horiz-adv-x="202" 
d="M157 494h-112v120h112v-120zM45 0v282l6 167h99l6 -167v-282h-111z" />
    <glyph glyph-name="cent" unicode="&#xa2;" horiz-adv-x="754" 
d="M328.011 558h100v-657h-100v657zM689 198v-38c0 -113.004 -58 -160 -164 -160h-296c-106 0 -164 52.9961 -164 166v128c0 114.004 58 167 164 167h296c106 0 164 -47.9961 164 -161v-41h-111v41c0 32 -23 50 -53 50h-296c-30 0 -53 -24 -53 -56v-128c0 -32 23 -55 53 -55
h296c30 0 53 17 53 49v38h111z" />
    <glyph glyph-name="sterling" unicode="&#xa3;" horiz-adv-x="721" 
d="M676 388h-111.4s-0.00878906 50.3945 -0.00878906 80c0 21.0811 -11.3633 35 -43.5908 35h-278c-26 0 -46 -13.9932 -46 -39.5693v-59.4307c0 -42.0117 34 -86 34 -86h353v-82h-353s0 26 0 -37c0 -56.5352 -43 -88.0811 -43 -88.0811s439.078 0.0810547 488 0.0810547
v-111h-631v111s74 54 74 88c0 63 0 37 0 37h-74v82h74s-33 45.9473 -33 86v59.4307c0 93.7197 57.9961 150.569 153 150.569h282c96.9648 0 155 -54.9941 155 -146v-80z" />
    <glyph glyph-name="currency" unicode="&#xa4;" horiz-adv-x="453" 
d="M98.3447 221.354c-2.36035 4.25977 -4.50488 8.6377 -6.41797 13.1172c-7.65234 17.9189 -11.5918 37.4004 -11.5918 56.8799c0 5.7207 0.338867 11.4404 1.02441 17.1201c2.1582 17.8809 7.72266 35.333 16.2451 51.1963l-52.6045 51.0674l53 58l54.3447 -52.5918
c5.05273 2.93457 10.2822 5.5625 15.6553 7.85742c17.9189 7.65234 37.4004 11.5918 56.8799 11.5918c5.7207 0 11.4404 -0.338867 17.1201 -1.02441c19.8154 -2.3916 39.1055 -8.96875 56.2881 -19.1133l54.7119 53.1133l55 -57l-55.2832 -53.5
c1.73633 -3.31543 3.34277 -6.69824 4.8125 -10.1406c7.65234 -17.9189 11.5918 -37.4004 11.5918 -56.8799c0 -5.7207 -0.338867 -11.4404 -1.02441 -17.1201c-2.14844 -17.7969 -7.6709 -35.1699 -16.124 -50.9727l56.0273 -54.2197l-55 -57l-56.0596 54.4219
c-4.99902 -2.89453 -10.1709 -5.49023 -15.4844 -7.75879c-17.9189 -7.65234 -37.4004 -11.5918 -56.8799 -11.5918c-5.7207 0 -11.4404 0.338867 -17.1201 1.02441c-18.8457 2.27441 -37.2119 8.33398 -53.7461 17.6504l-55.71 -53.9131l-53 58zM172.742 330.19
c-6.80664 -9.07422 -11.1738 -19.957 -12.5303 -31.2197c0 -0.0244141 -0.00878906 -0.0488281 -0.00878906 -0.0732422c-0.302734 -2.53125 -0.452148 -5.08008 -0.452148 -7.62988c0 -3.21582 0.238281 -6.43164 0.710938 -9.6123
c0.814453 -5.49121 2.3252 -10.8789 4.50586 -15.9844c4.45508 -10.4307 11.6963 -19.6543 20.7695 -26.458c9.07422 -6.80566 19.9541 -11.1729 31.2158 -12.5303h0.00292969c2.55566 -0.308594 5.12891 -0.460938 7.70312 -0.460938
c3.23438 0 6.46777 0.241211 9.66699 0.71875c5.47168 0.816406 10.8408 2.32422 15.9297 4.49805c10.4307 4.45508 19.6543 11.6963 26.459 20.7695c6.80566 9.07324 11.1729 19.9561 12.5293 31.2188c0.00878906 0.0693359 0.0166016 0.138672 0.0244141 0.208984
c0.291992 2.48633 0.436523 4.99023 0.436523 7.49414c0 1.90723 -0.0839844 3.81543 -0.250977 5.71582c-0.599609 6.83301 -2.27148 13.5723 -4.96582 19.8809c-4.4541 10.4307 -11.6963 19.6543 -20.7686 26.459c-8.08105 6.06152 -17.5977 10.1885 -27.5381 11.9766
c-1.22168 0.219727 -2.44922 0.404297 -3.68164 0.552734c-2.55566 0.308594 -5.12891 0.460938 -7.70312 0.460938c-3.25586 0 -6.5127 -0.244141 -9.7334 -0.728516c-5.44922 -0.819336 -10.7949 -2.32324 -15.8633 -4.48828
c-10.4287 -4.4541 -19.6543 -11.6963 -26.458 -20.7686z" />
    <glyph glyph-name="yen" unicode="&#xa5;" horiz-adv-x="808" 
d="M405.011 350l237.989 264.001h151l-230.772 -266h103.772v-82h-174.912l-26.0273 -30c0 -8 -0.00488281 -16 -0.00488281 -24h200.944v-82h-200.962l-0.0273438 -130h-122l0.0273438 130h-202.038v82h202.055c0 9.33301 0.00585938 18.666 0.00585938 27.999l-22.9492 26
h-179.111v82h106.734l-234.784 266h158.05z" />
    <glyph glyph-name="brokenbar" unicode="&#xa6;" horiz-adv-x="201" 
d="M156 281h-111v333h111v-333zM45 203h111v-333h-111v333z" />
    <glyph glyph-name="section" unicode="&#xa7;" horiz-adv-x="632" 
d="M97.4697 288.675c-1.5752 -3.33008 -2.46973 -6.91602 -2.46973 -10.6748v-68c0 -8.97656 11.4941 -18.6748 39.1465 -27c4.51367 -1.35938 9.45801 -2.68164 14.8535 -3.95801c22.7842 -5.3916 53.6084 -9.96777 94 -13.042
c112.429 -8.55762 182.221 -20.6699 224.68 -41.4395c4.36035 5.11426 6.32031 11.1211 6.32031 17.4395v63c0 9.09277 -13.3926 19.2041 -54.3086 28c-0.558594 0.120117 -1.12207 0.240234 -1.69141 0.359375c-26.875 5.64941 -65.2783 10.7383 -119 14.6406
c-99.4512 7.22363 -162.546 19.3711 -201.53 40.6748zM40.0283 398.745c-0.0195312 1.40625 -0.0292969 2.82422 -0.0292969 4.25488v68c0 95.0059 53.9336 144 151 144c47.2812 0 150.347 0.407227 227 0.407227c120.765 0 167 -46.3896 167 -144.407v-45h-111v45
c0 19.0225 -19.1211 32.8613 -56 32.8613c-72.8604 0 -219.533 0.138672 -227 0.138672c-18.0742 0 -40 -14.3848 -40 -33v-48.9883v-19.0117c0 -16.6289 39.4473 -35.7373 148 -44c114.661 -8.72754 184.976 -21.1523 227.177 -42.6865
c46.415 -23.6846 58.8232 -58.3887 58.8232 -111.313v-63c0 -60.8838 -18.7129 -99.5664 -56.1191 -121.33c0.0810547 -2.83398 0.119141 -5.72363 0.119141 -8.66992v-63c0 -105.042 -55.7012 -144 -167 -144h-213c-110.312 0 -165 37.1924 -165 144v41h109v-41
c0 -20.9883 12.4844 -33 42 -33h227c40.5703 0 56 15.2725 56 33v49v14c0 15.0811 -36.8428 32.9648 -175 43c-96.8203 7.03223 -159.182 18.7314 -198.385 39.0029c-46.8301 24.2158 -60.6143 60.6631 -60.6143 115.997v68c0 57.0625 19.4561 97.5254 56.0283 120.745z
M417.999 -2z" />
    <glyph glyph-name="dieresis" unicode="&#xa8;" horiz-adv-x="401" 
d="M356 614v-120h-112v120h112zM157 614v-120h-112v120h112z" />
    <glyph glyph-name="copyright" unicode="&#xa9;" horiz-adv-x="586" 
d="M220.721 348.525v-92.2676c0 -4.69238 0.231445 -7.6377 3.54004 -7.6377h136c4.90137 0 5.5791 1.85254 5.5791 4.90039v32h51.7402v-32c0 -23.1641 -6.2373 -39.1123 -20.0771 -47.9453c-10.7266 -6.84668 -24.3809 -8.69434 -40.3027 -8.69434h-132.939
c-14.292 0 -27.0576 2.15723 -36.9902 9.3125c-12.6191 9.09082 -18.29 24.6641 -18.29 47.2959v97.8594c0 38.2812 20.835 55.6514 59.0195 55.6514h128.86c14.7939 0 28.374 -1.89648 39.3184 -8.83691c14.0674 -8.91992 21.4014 -25.1855 21.4014 -49.5029v-30.6396
h-51.7402v30.6396c0 2.67871 -0.522461 4.40918 -0.959961 5.11328c-0.341797 0.548828 -0.775391 1.4873 -4.61914 1.4873h-132.261c-2.94043 0 -4.59473 -0.564453 -5.34082 -1.05078c-0.730469 -0.477539 -1.93848 -1.55469 -1.93848 -5.68457zM140.463 415.379
c-19.9717 -26.624 -32.7871 -58.5557 -36.7666 -91.6025c-3.98633 -33.0361 0.883789 -67.0967 13.9531 -97.7021c13.0732 -30.6035 34.3203 -57.6689 60.9424 -77.6328c26.626 -19.9678 58.5527 -32.7861 91.5996 -36.7637
c33.0361 -3.98633 67.0957 0.882812 97.7021 13.9521c30.6016 13.0732 57.668 34.3184 77.6367 60.9414c19.9639 26.6211 32.7822 58.5547 36.7588 91.5986c3.98535 33.0391 -0.881836 67.0986 -13.9512 97.7031c-13.0732 30.6035 -34.3193 57.6699 -60.9395 77.6367
c-26.625 19.9658 -58.5576 32.7803 -91.6006 36.7617c-33.0391 3.98438 -67.0986 -0.884766 -97.7061 -13.9541c-30.5996 -13.0693 -57.668 -34.3193 -77.6289 -60.9385zM93.293 450.757c26.1348 34.8525 61.5742 62.6729 101.637 79.7842
c40.0713 17.1104 84.665 23.4863 127.92 18.2686c43.2627 -5.21094 85.0693 -21.9902 119.929 -48.1289c34.8516 -26.1416 62.6689 -61.5771 79.7842 -101.646c17.1104 -40.0693 23.4834 -84.6611 18.2656 -127.917c-5.20703 -43.2627 -21.9893 -85.0713 -48.126 -119.925
c-26.1445 -34.8555 -61.5801 -62.6719 -101.646 -79.7881c-40.0713 -17.1104 -84.6641 -23.4854 -127.917 -18.2656c-43.2666 5.20801 -85.0664 21.9893 -119.927 48.1328c-34.8545 26.1367 -62.6709 61.5723 -79.7871 101.639
c-17.1113 40.0703 -23.4873 84.6641 -18.2686 127.917c5.20996 43.2666 21.9893 85.0713 48.1357 119.929z" />
    <glyph glyph-name="guillemotleft" unicode="&#xab;" horiz-adv-x="1034" 
d="M408 298l386 255l195 -1l-393 -254l393 -254l-195 -1zM45 298l386 255l195 -1l-393 -254l393 -254l-195 -1z" />
    <glyph glyph-name="logicalnot" unicode="&#xac;" horiz-adv-x="531" 
d="M45 347h441v-193h-111v82h-330v111z" />
    <glyph glyph-name="registered" unicode="&#xae;" horiz-adv-x="586" 
d="M409.301 246.923c0 -8.60156 -0.0791016 -5.64062 -0.0791016 -12.0918c0 -2.01465 0.0888672 -14.541 0.0888672 -22.6445c0 -3.31641 -0.00976562 -6.70117 -0.00976562 -6.7041l-0.0195312 -6.54199h-55.1211v46.1562c0 5.23926 -3.08984 12.4453 -6.78613 15.8105
c-1.81836 1.65527 -3.28125 2.09277 -4.2334 2.09277h-102.141v-64.123l-51.7393 0.46582v208.357h155.92c16.2383 0 30.1953 -3.17285 40.8232 -10.8086c13.4521 -9.66406 19.8965 -25.4434 19.8965 -46.0947v-28.3584c0 -14.1533 -2.2207 -25.7451 -7.73535 -34.8223
c6.84375 -7.36035 11.1357 -20.7988 11.1357 -40.6934zM241 355.96v-41.2197h104.181c5.36426 0 8.97949 2.6875 8.97949 7.67676v25.8672c0 4.66992 -4.43652 7.67578 -6.59961 7.67578h-106.561zM140.463 415.379c-19.9717 -26.624 -32.7871 -58.5557 -36.7666 -91.6025
c-3.98633 -33.0361 0.883789 -67.0967 13.9531 -97.7021c13.0732 -30.6035 34.3203 -57.6689 60.9424 -77.6328c26.626 -19.9678 58.5527 -32.7861 91.5996 -36.7637c33.0361 -3.98633 67.0957 0.882812 97.7021 13.9521c30.6016 13.0732 57.668 34.3184 77.6367 60.9414
c19.9639 26.6211 32.7822 58.5547 36.7588 91.5986c3.98535 33.0391 -0.881836 67.0986 -13.9512 97.7031c-13.0732 30.6035 -34.3193 57.6699 -60.9395 77.6367c-26.625 19.9658 -58.5576 32.7803 -91.6006 36.7617c-33.0391 3.98438 -67.0986 -0.884766 -97.7061 -13.9541
c-30.5996 -13.0693 -57.668 -34.3193 -77.6289 -60.9385zM93.293 450.757c26.1348 34.8525 61.5742 62.6729 101.637 79.7842c40.0713 17.1104 84.665 23.4863 127.92 18.2686c43.2627 -5.21094 85.0693 -21.9902 119.929 -48.1289
c34.8516 -26.1416 62.6689 -61.5771 79.7842 -101.646c17.1104 -40.0693 23.4834 -84.6611 18.2656 -127.917c-5.20703 -43.2627 -21.9893 -85.0713 -48.126 -119.925c-26.1445 -34.8555 -61.5801 -62.6719 -101.646 -79.7881
c-40.0713 -17.1104 -84.6641 -23.4854 -127.917 -18.2656c-43.2666 5.20801 -85.0664 21.9893 -119.927 48.1328c-34.8545 26.1367 -62.6709 61.5723 -79.7871 101.639c-17.1113 40.0703 -23.4873 84.6641 -18.2686 127.917
c5.20996 43.2666 21.9893 85.0713 48.1357 119.929z" />
    <glyph glyph-name="macron" unicode="&#xaf;" horiz-adv-x="588" 
d="M45 614h498v-84l-498 1v83z" />
    <glyph glyph-name="degree" unicode="&#xb0;" horiz-adv-x="298" 
d="M109.445 511.801c0 -22.2627 17.2852 -39.5098 39.3896 -39.5098c22.2617 0 39.5088 17.2832 39.5088 39.3896c0 22.2637 -17.2832 39.5098 -39.3887 39.5098c-22.2617 0 -39.5098 -17.2842 -39.5098 -39.3896zM149 615c4.0957 0 8.18945 -0.243164 12.2568 -0.732422
c38.6602 -4.65723 69.2334 -30.6445 82.6123 -61.9697c5.48633 -12.8467 8.28516 -26.6943 8.28516 -40.6621c0 -4.0957 -0.242188 -8.1875 -0.731445 -12.2568c-4.6582 -38.6611 -30.6445 -69.2275 -61.9707 -82.6133
c-12.8457 -5.48535 -26.6943 -8.28418 -40.6611 -8.28418c-4.09668 0 -8.18848 0.242188 -12.2578 0.731445c-38.6562 4.6582 -69.2285 30.6475 -82.6113 61.9707c-5.4873 12.8457 -8.28613 26.6943 -8.28613 40.6611c0 4.09668 0.242188 8.19043 0.732422 12.2578
c4.65723 38.6553 30.6445 69.2334 61.9697 82.6113c12.8467 5.48633 26.6943 8.28613 40.6621 8.28613z" />
    <glyph glyph-name="plusminus" unicode="&#xb1;" horiz-adv-x="317" 
d="M291 41h-246v111h246h145v-111h-145zM45 385h135v157h111v-157h145v-111h-145v-87h-111v87h-135v111z" />
    <glyph glyph-name="acute" unicode="&#xb4;" horiz-adv-x="466" 
d="M421 614l-221.087 -151h-154l202.087 151h173z" />
    <glyph glyph-name="mu" unicode="&#xb5;" horiz-adv-x="760" 
d="M536 0h-312c-17.4336 0 -33.4336 1.35254 -48 4.16797v-127.168h-111v298c0 51 1 286 1 286h111s-1 -253 -1 -286s18 -64 48 -64h312c30 0 48 31 48 64s-1 286 -1 286h111s1 -235 1 -286c0 -125.004 -53 -175 -159 -175z" />
    <glyph glyph-name="paragraph" unicode="&#xb6;" horiz-adv-x="422" 
d="M241 569h136v-530h-53v477h-30v-477h-53v205c-67.4922 0 -196 29.9893 -196 158c0 136.014 105 167 196 167z" />
    <glyph glyph-name="periodcentered" unicode="&#xb7;" horiz-adv-x="202" 
d="M162 323v-120h-112v120h112z" />
    <glyph glyph-name="cedilla" unicode="&#xb8;" horiz-adv-x="381" 
d="M45.5283 101.92h59.4717v-52.3594s44 23.4395 92 23.4395c58.9541 0 139 -32 139 -107c0 -61.5312 -89.1182 -99.6006 -153 -99.6006c-33.0977 0 -103 7.60059 -125 27.6006l24 53c19 -16 80.4658 -21.001 101 -21.001c39.0127 0 88.96 18.0479 88.96 40.001
c0 28.082 -49.958 47.3994 -88.96 47.3994c-40.002 0 -109 -32.3994 -109 -32.3994h-28.4717v120.92z" />
    <glyph glyph-name="ordmasculine" unicode="&#xba;" horiz-adv-x="297" 
d="M148.872 536.768c-22.1055 0 -39.3887 -24.4316 -39.3887 -69.5098c0 -42.9668 17.2471 -67.3896 39.5088 -67.3896c21.9316 0 39.1787 24.4229 39.1787 67.3896c0 45.0781 -17.2832 69.5098 -39.2988 69.5098zM149.036 336.059
c-58.6787 0 -103.363 37.2285 -103.363 131.154c0 98.0811 44.6875 133.364 103.154 133.364s103.154 -35.2832 103.154 -133.364c0 -93.9258 -44.6846 -131.154 -102.945 -131.154z" />
    <glyph glyph-name="guillemotright" unicode="&#xbb;" horiz-adv-x="1034" 
d="M626 298l-386 -255l-195 1l393 254l-393 254l195 1zM989 298l-386 -255l-195 1l393 254l-393 254l195 1z" />
    <glyph glyph-name="questiondown" unicode="&#xbf;" horiz-adv-x="693" 
d="M302 494h112v120h-112v-120zM537 197v-54c0 -16.0264 -16.5371 -34 -34 -34c-7.69141 0 -256.342 2 -308 2c-25.8896 0 -39 16.6562 -39 37v75c0 35.0146 110.987 43.5264 212 109c43.9971 28.5176 46 73 46 117h-112c0 -26 -9 -57 -29 -66
c-105.739 -47.583 -228 -73 -228 -160v-75c0 -94.0059 43.9824 -148 150 -148c52.2773 0 267.684 -2 310 -2c88.7168 0 143 45.084 143 145v54h-111z" />
    <glyph glyph-name="Agrave" unicode="&#xc0;" horiz-adv-x="871" 
d="M143.988 825h173l202.087 -151h-154zM439.149 481.497l-165.149 -268.497h325zM147 0h-133l363.149 614h129.851l350 -614h-139l-67 109h-430z" />
    <glyph glyph-name="Aacute" unicode="&#xc1;" horiz-adv-x="871" 
d="M740.162 825l-221.087 -151h-154l202.087 151h173zM439.149 481.497l-165.149 -268.497h325zM147 0h-133l363.149 614h129.851l350 -614h-139l-67 109h-430z" />
    <glyph glyph-name="Acircumflex" unicode="&#xc2;" horiz-adv-x="871" 
d="M359.075 674h-145l177 167h120l159 -167h-147l-55 19.7998l-20 22.2002l-23 -21.9775zM439.149 481.497l-165.149 -268.497h325zM147 0h-133l363.149 614h129.851l350 -614h-139l-67 109h-430z" />
    <glyph glyph-name="Atilde" unicode="&#xc3;" horiz-adv-x="871" 
d="M260.075 674c0 0 13 152 75 152c50 0 185.926 -65.2803 205.76 -65.2803c12.2559 0 19.2402 65.2803 19.2402 65.2803h64s-12.9893 -151.78 -77.7002 -151.78c-41.4453 0 -177.825 65.2803 -199.859 65.2803c-12.4482 0 -18.4404 -65.5 -18.4404 -65.5h-68z
M439.149 481.497l-165.149 -268.497h325zM147 0h-133l363.149 614h129.851l350 -614h-139l-67 109h-430z" />
    <glyph glyph-name="Adieresis" unicode="&#xc4;" horiz-adv-x="871" 
d="M597.575 794v-120h-112v120h112zM398.575 794v-120h-112v120h112zM439.149 481.497l-165.149 -268.497h325zM147 0h-133l363.149 614h129.851l350 -614h-139l-67 109h-430z" />
    <glyph glyph-name="Aring" unicode="&#xc5;" horiz-adv-x="871" 
d="M415.645 713.612c0 -14.916 11.5811 -26.4717 26.3906 -26.4717c14.916 0 26.4707 11.5801 26.4707 26.3906c0 14.917 -11.5791 26.4717 -26.3896 26.4717c-14.916 0 -26.4717 -11.5801 -26.4717 -26.3906zM442.146 782.756
c2.74414 0 5.48633 -0.163086 8.21191 -0.491211c25.9023 -3.12012 46.3857 -20.5312 55.3496 -41.5195c3.67578 -8.60742 5.55176 -17.8857 5.55176 -27.2441c0 -2.74414 -0.163086 -5.48535 -0.490234 -8.21191c-3.12109 -25.9023 -20.5322 -46.3818 -41.5205 -55.3506
c-8.60645 -3.6748 -17.8857 -5.55078 -27.2432 -5.55078c-2.74512 0 -5.48633 0.163086 -8.21289 0.490234c-25.8994 3.12109 -46.3828 20.5342 -55.3496 41.5205c-3.67578 8.60645 -5.55176 17.8857 -5.55176 27.2432c0 2.74512 0.163086 5.4873 0.491211 8.21289
c3.12012 25.8984 20.5312 46.3857 41.5195 55.3496c8.60742 3.67578 17.8857 5.55176 27.2441 5.55176zM439.149 481.497l-165.149 -268.497h325zM147 0h-133l363.149 614h129.851l350 -614h-139l-67 109h-430z" />
    <glyph glyph-name="AE" unicode="&#xc6;" horiz-adv-x="1309" 
d="M558 614h662v-111h-551v-83.7256v-45.2744h25.8076h486.192v-111h-422.919h-89.0811v-152h175.727h399.273v-111h-432h-43h-211v109h-286l-74 -109h-133l363.149 614h129.851zM503.403 503c-4.32227 -6.99707 -8.73926 -14.1631 -13.2539 -21.5029l-165.149 -268.497h233
v290h-54.5967zM669 419.274z" />
    <glyph glyph-name="Ccedilla" unicode="&#xc7;" horiz-adv-x="820" 
d="M372.765 3.85059h59.4717v-52.3594s44 23.4395 92 23.4395c58.9541 0 139 -32 139 -107c0 -61.5312 -89.1182 -99.6006 -153 -99.6006c-33.0977 0 -103 7.60059 -125 27.6006l24 53c19 -16 80.4658 -21.001 101 -21.001c39.0127 0 88.96 18.0479 88.96 40.001
c0 28.082 -49.958 47.3994 -88.96 47.3994c-40.002 0 -109 -32.3994 -109 -32.3994h-28.4717v120.92zM644 242h111v-100c0 -117.045 -54.9082 -146 -157 -146h-391c-90.0312 0 -142 33.9541 -142 157v307c0 125.032 68.0234 154 153 154h379c94.167 0 158 -28.9951 158 -151
v-96h-111v96c0 22.3799 -8.1084 40 -37 40h-389c-25.29 0 -42 -11.3545 -42 -43v-307c0 -32.0869 10.9893 -46 31 -46h400c26.0195 0 37 16.8174 37 35v100z" />
    <glyph glyph-name="Egrave" unicode="&#xc8;" horiz-adv-x="816" 
d="M97.9131 825h173l202.087 -151h-154zM65 614h662v-111h-551v-129h512v-111h-512v-152h575v-111h-686v614z" />
    <glyph glyph-name="Eacute" unicode="&#xc9;" horiz-adv-x="816" 
d="M694.087 825l-221.087 -151h-154l202.087 151h173zM65 614h662v-111h-551v-129h512v-111h-512v-152h575v-111h-686v614z" />
    <glyph glyph-name="Ecircumflex" unicode="&#xca;" horiz-adv-x="816" 
d="M313 674h-145l177 167h120l159 -167h-147l-55 19.7998l-20 22.2002l-23 -21.9775zM65 614h662v-111h-551v-129h512v-111h-512v-152h575v-111h-686v614z" />
    <glyph glyph-name="Edieresis" unicode="&#xcb;" horiz-adv-x="816" 
d="M551.5 794v-120h-112v120h112zM352.5 794v-120h-112v120h112zM65 614h662v-111h-551v-129h512v-111h-512v-152h575v-111h-686v614z" />
    <glyph glyph-name="Igrave" unicode="&#xcc;" horiz-adv-x="241" 
d="M-177.587 825h173l202.087 -151h-154zM65 614h111v-614h-111v614z" />
    <glyph glyph-name="Iacute" unicode="&#xcd;" horiz-adv-x="241" 
d="M418.587 825l-221.087 -151h-154l202.087 151h173zM65 614h111v-614h-111v614z" />
    <glyph glyph-name="Icircumflex" unicode="&#xce;" horiz-adv-x="241" 
d="M37.5 674h-145l177 167h120l159 -167h-147l-55 19.7998l-20 22.2002l-23 -21.9775zM65 614h111v-614h-111v614z" />
    <glyph glyph-name="Idieresis" unicode="&#xcf;" horiz-adv-x="241" 
d="M276 794v-120h-112v120h112zM77 794v-120h-112v120h112zM65 614h111v-614h-111v614z" />
    <glyph glyph-name="Eth" unicode="&#xd0;" horiz-adv-x="840" 
d="M65 614h524c100.604 0 179 -44.9492 179 -165v-273c0 -110.016 -47 -176 -162 -176h-541v330h-102v100h102v184zM176 330v-219h442c21.0127 0 39 32.6738 39 65v273c0 32.0137 -34.377 54 -52 54c-19 0 -427.055 0.132812 -429 0v-73h180v-100h-180z" />
    <glyph glyph-name="Ntilde" unicode="&#xd1;" horiz-adv-x="841" 
d="M238.5 674c0 0 13 152 75 152c50 0 185.926 -65.2803 205.76 -65.2803c12.2559 0 19.2402 65.2803 19.2402 65.2803h64s-12.9893 -151.78 -77.7002 -151.78c-41.4453 0 -177.825 65.2803 -199.859 65.2803c-12.4482 0 -18.4404 -65.5 -18.4404 -65.5h-68zM176 443l11 4
v-447h-122v614h111l478 -470v470h122v-614h-147z" />
    <glyph glyph-name="Ograve" unicode="&#xd2;" horiz-adv-x="819" 
d="M111.413 825h173l202.087 -151h-154zM230 110h359c24.29 0 54 32.3545 54 61v271c0 28.6455 -29.71 61 -54 61h-359c-24.29 0 -54 -32.3545 -54 -61v-271c0 -28.6455 29.71 -61 54 -61zM230 -1c-85.9766 0 -165 58.9678 -165 172v271c0 113.032 79.0234 172 165 172h359
c85.9766 0 165 -58.9678 165 -172v-271c0 -113.032 -79.0234 -172 -165 -172h-359zM754 142z" />
    <glyph glyph-name="Oacute" unicode="&#xd3;" horiz-adv-x="819" 
d="M707.587 825l-221.087 -151h-154l202.087 151h173zM230 110h359c24.29 0 54 32.3545 54 61v271c0 28.6455 -29.71 61 -54 61h-359c-24.29 0 -54 -32.3545 -54 -61v-271c0 -28.6455 29.71 -61 54 -61zM230 -1c-85.9766 0 -165 58.9678 -165 172v271
c0 113.032 79.0234 172 165 172h359c85.9766 0 165 -58.9678 165 -172v-271c0 -113.032 -79.0234 -172 -165 -172h-359zM754 142z" />
    <glyph glyph-name="Ocircumflex" unicode="&#xd4;" horiz-adv-x="819" 
d="M326.5 674h-145l177 167h120l159 -167h-147l-55 19.7998l-20 22.2002l-23 -21.9775zM230 110h359c24.29 0 54 32.3545 54 61v271c0 28.6455 -29.71 61 -54 61h-359c-24.29 0 -54 -32.3545 -54 -61v-271c0 -28.6455 29.71 -61 54 -61zM230 -1
c-85.9766 0 -165 58.9678 -165 172v271c0 113.032 79.0234 172 165 172h359c85.9766 0 165 -58.9678 165 -172v-271c0 -113.032 -79.0234 -172 -165 -172h-359zM754 142z" />
    <glyph glyph-name="Otilde" unicode="&#xd5;" horiz-adv-x="819" 
d="M227.5 674c0 0 13 152 75 152c50 0 185.926 -65.2803 205.76 -65.2803c12.2559 0 19.2402 65.2803 19.2402 65.2803h64s-12.9893 -151.78 -77.7002 -151.78c-41.4453 0 -177.825 65.2803 -199.859 65.2803c-12.4482 0 -18.4404 -65.5 -18.4404 -65.5h-68zM230 110h359
c24.29 0 54 32.3545 54 61v271c0 28.6455 -29.71 61 -54 61h-359c-24.29 0 -54 -32.3545 -54 -61v-271c0 -28.6455 29.71 -61 54 -61zM230 -1c-85.9766 0 -165 58.9678 -165 172v271c0 113.032 79.0234 172 165 172h359c85.9766 0 165 -58.9678 165 -172v-271
c0 -113.032 -79.0234 -172 -165 -172h-359zM754 142z" />
    <glyph glyph-name="Odieresis" unicode="&#xd6;" horiz-adv-x="819" 
d="M565 794v-120h-112v120h112zM366 794v-120h-112v120h112zM230 110h359c24.29 0 54 32.3545 54 61v271c0 28.6455 -29.71 61 -54 61h-359c-24.29 0 -54 -32.3545 -54 -61v-271c0 -28.6455 29.71 -61 54 -61zM230 -1c-85.9766 0 -165 58.9678 -165 172v271
c0 113.032 79.0234 172 165 172h359c85.9766 0 165 -58.9678 165 -172v-271c0 -113.032 -79.0234 -172 -165 -172h-359zM754 142z" />
    <glyph glyph-name="multiply" unicode="&#xd7;" horiz-adv-x="495" 
d="M247.39 360.439l136.39 136.561l65.9805 -72.0107l-136.39 -141.56l136.39 -141.56l-65.9805 -72.0107l-136.39 136.561l-136.39 -136.561l-65.9805 72.0107l136.39 141.56l-136.39 141.56l65.9805 72.0107z" />
    <glyph glyph-name="Oslash" unicode="&#xd8;" horiz-adv-x="819" 
d="M723 675l146.999 0.000976562l-141.79 -134.654c16.1738 -26.0635 25.79 -58.915 25.79 -98.3457v-271c0 -113.032 -79.0234 -172 -165 -172h-359c-21.0205 0 -41.625 3.52441 -60.7607 10.5029l-74.2383 -70.5029h-146l141.333 134.395
c-15.8975 25.9443 -25.333 58.5469 -25.333 97.6045v271c0 113.032 79.0234 172 165 172h359c20.502 0 40.6084 -3.35254 59.3418 -9.99219zM542.118 503.001h-312.12c-24.29 0 -54 -32.3545 -54 -61v-271c0 -4.64062 0.780273 -9.37891 2.19043 -14.0615zM275.06 110.001
h313.939c24.29 0 54 32.3545 54 61v271c0 4.96777 -0.893555 10.0479 -2.49805 15.0508z" />
    <glyph glyph-name="Ugrave" unicode="&#xd9;" 
d="M112.913 825h173l202.087 -151h-154zM600 -1h-378c-94.043 0 -157 53.918 -157 165v450h111v-450c0 -28 8.61133 -54 37 -54h396c28.3887 0 37 26 37 54v450h111v-450c0 -111.082 -62.957 -165 -157 -165z" />
    <glyph glyph-name="Uacute" unicode="&#xda;" 
d="M709.087 825l-221.087 -151h-154l202.087 151h173zM600 -1h-378c-94.043 0 -157 53.918 -157 165v450h111v-450c0 -28 8.61133 -54 37 -54h396c28.3887 0 37 26 37 54v450h111v-450c0 -111.082 -62.957 -165 -157 -165z" />
    <glyph glyph-name="Ucircumflex" unicode="&#xdb;" 
d="M328 674h-145l177 167h120l159 -167h-147l-55 19.7998l-20 22.2002l-23 -21.9775zM600 -1h-378c-94.043 0 -157 53.918 -157 165v450h111v-450c0 -28 8.61133 -54 37 -54h396c28.3887 0 37 26 37 54v450h111v-450c0 -111.082 -62.957 -165 -157 -165z" />
    <glyph glyph-name="Udieresis" unicode="&#xdc;" 
d="M566.5 794v-120h-112v120h112zM367.5 794v-120h-112v120h112zM600 -1h-378c-94.043 0 -157 53.918 -157 165v450h111v-450c0 -28 8.61133 -54 37 -54h396c28.3887 0 37 26 37 54v450h111v-450c0 -111.082 -62.957 -165 -157 -165z" />
    <glyph glyph-name="Yacute" unicode="&#xdd;" horiz-adv-x="808" 
d="M702.062 825l-221.087 -151h-154l202.087 151h173zM405.011 350l237.989 264h151l-327.939 -373l-0.0498047 -241h-122l0.0498047 240l-330.11 374h158.05z" />
    <glyph glyph-name="Thorn" unicode="&#xde;" horiz-adv-x="684" 
d="M156 410v-205h325c26.0488 0 47 18.29 47 47v111c0 25.0146 -19.1514 47 -40 47h-332zM156 0h-111v521v93h111v-93h325c101.263 0 158 -48.0234 158 -158v-111c0 -117.549 -49 -158 -164 -158h-319v-94z" />
    <glyph glyph-name="germandbls" unicode="&#xdf;" horiz-adv-x="713" 
d="M157 0h-111l-1 443c0 131.041 68.9951 172 153 172h243c77.3271 0 150.011 -44.9951 150.011 -150v-82c0 -59.0029 -95 -72.5264 -95 -86c0 -26.9902 172 -53.9922 172 -123v-43c0 -90.0967 -42.0107 -131 -142.011 -131h-194c-90.0449 0 -135 46 -135 132v69h111
c0.0986328 -8.66406 0 -50.3281 0 -69c0 -18.8164 9.53906 -32 24 -32h194c15.8115 0 31.0107 12.1094 31.0107 31v43c0 38 -172 57.1719 -172 126c0 18.9375 95 52.6211 95 83v82c0 21.583 -17.8408 39 -39.0107 39h-239c-26.0234 0 -46 -23 -46 -61c0 -229 1 -443 1 -443z
" />
    <glyph glyph-name="agrave" unicode="&#xe0;" horiz-adv-x="871" 
d="M143.988 825h173l202.087 -151h-154zM439.149 481.497l-165.149 -268.497h325zM147 0h-133l363.149 614h129.851l350 -614h-139l-67 109h-430z" />
    <glyph glyph-name="aacute" unicode="&#xe1;" horiz-adv-x="871" 
d="M740.162 825l-221.087 -151h-154l202.087 151h173zM439.149 481.497l-165.149 -268.497h325zM147 0h-133l363.149 614h129.851l350 -614h-139l-67 109h-430z" />
    <glyph glyph-name="acircumflex" unicode="&#xe2;" horiz-adv-x="871" 
d="M359.075 674h-145l177 167h120l159 -167h-147l-55 19.7998l-20 22.2002l-23 -21.9775zM439.149 481.497l-165.149 -268.497h325zM147 0h-133l363.149 614h129.851l350 -614h-139l-67 109h-430z" />
    <glyph glyph-name="atilde" unicode="&#xe3;" horiz-adv-x="871" 
d="M260.075 674c0 0 13 152 75 152c50 0 185.926 -65.2803 205.76 -65.2803c12.2559 0 19.2402 65.2803 19.2402 65.2803h64s-12.9893 -151.78 -77.7002 -151.78c-41.4453 0 -177.825 65.2803 -199.859 65.2803c-12.4482 0 -18.4404 -65.5 -18.4404 -65.5h-68z
M439.149 481.497l-165.149 -268.497h325zM147 0h-133l363.149 614h129.851l350 -614h-139l-67 109h-430z" />
    <glyph glyph-name="adieresis" unicode="&#xe4;" horiz-adv-x="871" 
d="M597.575 794v-120h-112v120h112zM398.575 794v-120h-112v120h112zM439.149 481.497l-165.149 -268.497h325zM147 0h-133l363.149 614h129.851l350 -614h-139l-67 109h-430z" />
    <glyph glyph-name="aring" unicode="&#xe5;" horiz-adv-x="871" 
d="M415.645 713.612c0 -14.916 11.5811 -26.4717 26.3906 -26.4717c14.916 0 26.4707 11.5801 26.4707 26.3906c0 14.917 -11.5791 26.4717 -26.3896 26.4717c-14.916 0 -26.4717 -11.5801 -26.4717 -26.3906zM442.146 782.756
c2.74414 0 5.48633 -0.163086 8.21191 -0.491211c25.9023 -3.12012 46.3857 -20.5312 55.3496 -41.5195c3.67578 -8.60742 5.55176 -17.8857 5.55176 -27.2441c0 -2.74414 -0.163086 -5.48535 -0.490234 -8.21191c-3.12109 -25.9023 -20.5322 -46.3818 -41.5205 -55.3506
c-8.60645 -3.6748 -17.8857 -5.55078 -27.2432 -5.55078c-2.74512 0 -5.48633 0.163086 -8.21289 0.490234c-25.8994 3.12109 -46.3828 20.5342 -55.3496 41.5205c-3.67578 8.60645 -5.55176 17.8857 -5.55176 27.2432c0 2.74512 0.163086 5.4873 0.491211 8.21289
c3.12012 25.8984 20.5312 46.3857 41.5195 55.3496c8.60742 3.67578 17.8857 5.55176 27.2441 5.55176zM439.149 481.497l-165.149 -268.497h325zM147 0h-133l363.149 614h129.851l350 -614h-139l-67 109h-430z" />
    <glyph glyph-name="ccedilla" unicode="&#xe7;" horiz-adv-x="820" 
d="M372.765 3.85059h59.4717v-52.3594s44 23.4395 92 23.4395c58.9541 0 139 -32 139 -107c0 -61.5312 -89.1182 -99.6006 -153 -99.6006c-33.0977 0 -103 7.60059 -125 27.6006l24 53c19 -16 80.4658 -21.001 101 -21.001c39.0127 0 88.96 18.0479 88.96 40.001
c0 28.082 -49.958 47.3994 -88.96 47.3994c-40.002 0 -109 -32.3994 -109 -32.3994h-28.4717v120.92zM644 242h111v-100c0 -117.045 -54.9082 -146 -157 -146h-391c-90.0312 0 -142 33.9541 -142 157v307c0 125.032 68.0234 154 153 154h379c94.167 0 158 -28.9951 158 -151
v-96h-111v96c0 22.3799 -8.1084 40 -37 40h-389c-25.29 0 -42 -11.3545 -42 -43v-307c0 -32.0869 10.9893 -46 31 -46h400c26.0195 0 37 16.8174 37 35v100z" />
    <glyph glyph-name="egrave" unicode="&#xe8;" horiz-adv-x="816" 
d="M97.9131 825h173l202.087 -151h-154zM65 614h662v-111h-551v-129h512v-111h-512v-152h575v-111h-686v614z" />
    <glyph glyph-name="eacute" unicode="&#xe9;" horiz-adv-x="816" 
d="M694.087 825l-221.087 -151h-154l202.087 151h173zM65 614h662v-111h-551v-129h512v-111h-512v-152h575v-111h-686v614z" />
    <glyph glyph-name="ecircumflex" unicode="&#xea;" horiz-adv-x="816" 
d="M313 674h-145l177 167h120l159 -167h-147l-55 19.7998l-20 22.2002l-23 -21.9775zM65 614h662v-111h-551v-129h512v-111h-512v-152h575v-111h-686v614z" />
    <glyph glyph-name="edieresis" unicode="&#xeb;" horiz-adv-x="816" 
d="M551.5 794v-120h-112v120h112zM352.5 794v-120h-112v120h112zM65 614h662v-111h-551v-129h512v-111h-512v-152h575v-111h-686v614z" />
    <glyph glyph-name="igrave" unicode="&#xec;" horiz-adv-x="241" 
d="M-177.587 825h173l202.087 -151h-154zM65 614h111v-614h-111v614z" />
    <glyph glyph-name="iacute" unicode="&#xed;" horiz-adv-x="241" 
d="M418.587 825l-221.087 -151h-154l202.087 151h173zM65 614h111v-614h-111v614z" />
    <glyph glyph-name="icircumflex" unicode="&#xee;" horiz-adv-x="241" 
d="M37.5 674h-145l177 167h120l159 -167h-147l-55 19.7998l-20 22.2002l-23 -21.9775zM65 614h111v-614h-111v614z" />
    <glyph glyph-name="idieresis" unicode="&#xef;" horiz-adv-x="241" 
d="M276 794v-120h-112v120h112zM77 794v-120h-112v120h112zM65 614h111v-614h-111v614z" />
    <glyph glyph-name="eth" unicode="&#xf0;" horiz-adv-x="776" 
d="M547 111c30 0 53 29 53 64v111c0 35 -23 64 -53 64h-318c-30 0 -53 -29 -53 -64v-111c0 -35 23 -64 53 -64h318zM344.902 508h-207.902v55h129.237c-27.2715 19.041 -53.3975 37.2461 -73.2373 50.999h180s31.5879 -21.1445 74.7471 -51h154.254v-55h-76.0107
c9.36035 -6.70117 18.7412 -13.4688 28.0098 -20.2207c55.3516 -40.3223 157 -101.778 157 -201.778v-111c0 -120.004 -58 -175 -164 -175h-318c-106 0 -164 54.9961 -164 175v111c0 121.004 58 175 164 175h183s-28.8311 20.2158 -67.0977 47z" />
    <glyph glyph-name="ntilde" unicode="&#xf1;" horiz-adv-x="841" 
d="M238.5 674c0 0 13 152 75 152c50 0 185.926 -65.2803 205.76 -65.2803c12.2559 0 19.2402 65.2803 19.2402 65.2803h64s-12.9893 -151.78 -77.7002 -151.78c-41.4453 0 -177.825 65.2803 -199.859 65.2803c-12.4482 0 -18.4404 -65.5 -18.4404 -65.5h-68zM176 443l11 4
v-447h-122v614h111l478 -470v470h122v-614h-147z" />
    <glyph glyph-name="ograve" unicode="&#xf2;" horiz-adv-x="819" 
d="M111.413 825h173l202.087 -151h-154zM230 110h359c24.29 0 54 32.3545 54 61v271c0 28.6455 -29.71 61 -54 61h-359c-24.29 0 -54 -32.3545 -54 -61v-271c0 -28.6455 29.71 -61 54 -61zM230 -1c-85.9766 0 -165 58.9678 -165 172v271c0 113.032 79.0234 172 165 172h359
c85.9766 0 165 -58.9678 165 -172v-271c0 -113.032 -79.0234 -172 -165 -172h-359zM754 142z" />
    <glyph glyph-name="oacute" unicode="&#xf3;" horiz-adv-x="819" 
d="M707.587 825l-221.087 -151h-154l202.087 151h173zM230 110h359c24.29 0 54 32.3545 54 61v271c0 28.6455 -29.71 61 -54 61h-359c-24.29 0 -54 -32.3545 -54 -61v-271c0 -28.6455 29.71 -61 54 -61zM230 -1c-85.9766 0 -165 58.9678 -165 172v271
c0 113.032 79.0234 172 165 172h359c85.9766 0 165 -58.9678 165 -172v-271c0 -113.032 -79.0234 -172 -165 -172h-359zM754 142z" />
    <glyph glyph-name="ocircumflex" unicode="&#xf4;" horiz-adv-x="819" 
d="M326.5 674h-145l177 167h120l159 -167h-147l-55 19.7998l-20 22.2002l-23 -21.9775zM230 110h359c24.29 0 54 32.3545 54 61v271c0 28.6455 -29.71 61 -54 61h-359c-24.29 0 -54 -32.3545 -54 -61v-271c0 -28.6455 29.71 -61 54 -61zM230 -1
c-85.9766 0 -165 58.9678 -165 172v271c0 113.032 79.0234 172 165 172h359c85.9766 0 165 -58.9678 165 -172v-271c0 -113.032 -79.0234 -172 -165 -172h-359zM754 142z" />
    <glyph glyph-name="otilde" unicode="&#xf5;" horiz-adv-x="819" 
d="M227.5 674c0 0 13 152 75 152c50 0 185.926 -65.2803 205.76 -65.2803c12.2559 0 19.2402 65.2803 19.2402 65.2803h64s-12.9893 -151.78 -77.7002 -151.78c-41.4453 0 -177.825 65.2803 -199.859 65.2803c-12.4482 0 -18.4404 -65.5 -18.4404 -65.5h-68zM230 110h359
c24.29 0 54 32.3545 54 61v271c0 28.6455 -29.71 61 -54 61h-359c-24.29 0 -54 -32.3545 -54 -61v-271c0 -28.6455 29.71 -61 54 -61zM230 -1c-85.9766 0 -165 58.9678 -165 172v271c0 113.032 79.0234 172 165 172h359c85.9766 0 165 -58.9678 165 -172v-271
c0 -113.032 -79.0234 -172 -165 -172h-359zM754 142z" />
    <glyph glyph-name="odieresis" unicode="&#xf6;" horiz-adv-x="819" 
d="M565 794v-120h-112v120h112zM366 794v-120h-112v120h112zM230 110h359c24.29 0 54 32.3545 54 61v271c0 28.6455 -29.71 61 -54 61h-359c-24.29 0 -54 -32.3545 -54 -61v-271c0 -28.6455 29.71 -61 54 -61zM230 -1c-85.9766 0 -165 58.9678 -165 172v271
c0 113.032 79.0234 172 165 172h359c85.9766 0 165 -58.9678 165 -172v-271c0 -113.032 -79.0234 -172 -165 -172h-359zM754 142z" />
    <glyph glyph-name="divide" unicode="&#xf7;" horiz-adv-x="202" 
d="M157 237h-246v111h246h145v-111h-145zM157 211v-120h-112v120h112zM157 494v-120h-112v120h112z" />
    <glyph glyph-name="ugrave" unicode="&#xf9;" 
d="M112.913 825h173l202.087 -151h-154zM600 -1h-378c-94.043 0 -157 53.918 -157 165v450h111v-450c0 -28 8.61133 -54 37 -54h396c28.3887 0 37 26 37 54v450h111v-450c0 -111.082 -62.957 -165 -157 -165z" />
    <glyph glyph-name="uacute" unicode="&#xfa;" 
d="M709.087 825l-221.087 -151h-154l202.087 151h173zM600 -1h-378c-94.043 0 -157 53.918 -157 165v450h111v-450c0 -28 8.61133 -54 37 -54h396c28.3887 0 37 26 37 54v450h111v-450c0 -111.082 -62.957 -165 -157 -165z" />
    <glyph glyph-name="ucircumflex" unicode="&#xfb;" 
d="M328 674h-145l177 167h120l159 -167h-147l-55 19.7998l-20 22.2002l-23 -21.9775zM600 -1h-378c-94.043 0 -157 53.918 -157 165v450h111v-450c0 -28 8.61133 -54 37 -54h396c28.3887 0 37 26 37 54v450h111v-450c0 -111.082 -62.957 -165 -157 -165z" />
    <glyph glyph-name="udieresis" unicode="&#xfc;" 
d="M566.5 794v-120h-112v120h112zM367.5 794v-120h-112v120h112zM600 -1h-378c-94.043 0 -157 53.918 -157 165v450h111v-450c0 -28 8.61133 -54 37 -54h396c28.3887 0 37 26 37 54v450h111v-450c0 -111.082 -62.957 -165 -157 -165z" />
    <glyph glyph-name="yacute" unicode="&#xfd;" horiz-adv-x="808" 
d="M702.062 825l-221.087 -151h-154l202.087 151h173zM405.011 350l237.989 264h151l-327.939 -373l-0.0498047 -241h-122l0.0498047 240l-330.11 374h158.05z" />
    <glyph glyph-name="thorn" unicode="&#xfe;" horiz-adv-x="748" 
d="M176 302v-140s52.9121 -51 98 -51h244c30 0 54 19.6396 54 42v148c0 26 -22 49 -54 49h-244c-57.0371 0 -98 -48 -98 -48zM65 614h111v-191s40 38 98 38h244c113 0 165 -67.9746 165 -160v-148c0 -95 -72 -153 -165 -153h-244c-59 0 -98 42 -98 42v-163h-111v735z" />
    <glyph glyph-name="ydieresis" unicode="&#xff;" horiz-adv-x="808" 
d="M559.475 794v-120h-112v120h112zM360.475 794v-120h-112v120h112zM405.011 350l237.989 264h151l-327.939 -373l-0.0498047 -241h-122l0.0498047 240l-330.11 374h158.05z" />
    <glyph glyph-name="breve" unicode="&#x2d8;" horiz-adv-x="428" 
d="M215 730c37 0 82 24 82 70h86c0 -94 -60.9951 -156 -168 -156c-107.006 0 -170 53 -170 156h90c0 -50 44 -70 80 -70z" />
    <glyph glyph-name="uni02C9" unicode="&#x2c9;" horiz-adv-x="448" 
d="M45 798h358v-84l-358 1v83z" />
    <glyph glyph-name="ogonek" unicode="&#x2db;" horiz-adv-x="342" 
d="M154 33h101s-115 -41.8848 -115 -72c0 -21.0234 75.834 -17 157 -17v-66c-141 0 -252 20.4277 -252 69c0 49.5723 109 86 109 86z" />
    <glyph glyph-name="ring" unicode="&#x2da;" horiz-adv-x="230" 
d="M88.498 544.856c0 -14.916 11.5811 -26.4717 26.3906 -26.4717c14.916 0 26.4707 11.5801 26.4707 26.3906c0 14.917 -11.5791 26.4717 -26.3896 26.4717c-14.916 0 -26.4717 -11.5801 -26.4717 -26.3906zM115 614c2.74414 0 5.48633 -0.163086 8.21191 -0.491211
c25.9023 -3.12012 46.3857 -20.5312 55.3496 -41.5195c3.67578 -8.60742 5.55176 -17.8857 5.55176 -27.2441c0 -2.74414 -0.163086 -5.48535 -0.490234 -8.21191c-3.12109 -25.9023 -20.5322 -46.3818 -41.5205 -55.3506
c-8.60645 -3.6748 -17.8857 -5.55078 -27.2432 -5.55078c-2.74512 0 -5.48633 0.163086 -8.21289 0.490234c-25.8994 3.12109 -46.3828 20.5342 -55.3496 41.5205c-3.67578 8.60645 -5.55176 17.8857 -5.55176 27.2432c0 2.74512 0.163086 5.4873 0.491211 8.21289
c3.12012 25.8984 20.5312 46.3857 41.5195 55.3496c8.60742 3.67578 17.8857 5.55176 27.2441 5.55176z" />
    <glyph glyph-name="caron" unicode="&#x2c7;" horiz-adv-x="546" 
d="M190 614l66 -20.0225l23 -21.9775l20 22.2002l55 19.7998h147l-159 -167h-120l-177 167h145zM501 614z" />
    <glyph glyph-name="Amacron" unicode="&#x100;" horiz-adv-x="871" 
d="M263.075 758h358v-84l-358 1v83zM439.149 481.497l-165.149 -268.497h325zM147 0h-133l363.149 614h129.851l350 -614h-139l-67 109h-430z" />
    <glyph glyph-name="amacron" unicode="&#x101;" horiz-adv-x="871" 
d="M263.075 758h358v-84l-358 1v83zM439.149 481.497l-165.149 -268.497h325zM147 0h-133l363.149 614h129.851l350 -614h-139l-67 109h-430z" />
    <glyph glyph-name="Abreve" unicode="&#x102;" horiz-adv-x="871" 
d="M443.075 760c37 0 82 24 82 70h86c0 -94 -60.9951 -156 -168 -156c-107.006 0 -170 53 -170 156h90c0 -50 44 -70 80 -70zM439.149 481.497l-165.149 -268.497h325zM147 0h-133l363.149 614h129.851l350 -614h-139l-67 109h-430z" />
    <glyph glyph-name="abreve" unicode="&#x103;" horiz-adv-x="871" 
d="M443.075 760c37 0 82 24 82 70h86c0 -94 -60.9951 -156 -168 -156c-107.006 0 -170 53 -170 156h90c0 -50 44 -70 80 -70zM439.149 481.497l-165.149 -268.497h325zM147 0h-133l363.149 614h129.851l350 -614h-139l-67 109h-430z" />
    <glyph glyph-name="Aogonek" unicode="&#x104;" horiz-adv-x="871" 
d="M435.5 5.16699h101s-115 -41.8848 -115 -72c0 -21.0234 75.834 -17 157 -17v-66c-141 0 -252 20.4277 -252 69c0 49.5723 109 86 109 86zM439.149 481.497l-165.149 -268.497h325zM147 0h-133l363.149 614h129.851l350 -614h-139l-67 109h-430z" />
    <glyph glyph-name="aogonek" unicode="&#x105;" horiz-adv-x="871" 
d="M435.5 5.16699h101s-115 -41.8848 -115 -72c0 -21.0234 75.834 -17 157 -17v-66c-141 0 -252 20.4277 -252 69c0 49.5723 109 86 109 86zM439.149 481.497l-165.149 -268.497h325zM147 0h-133l363.149 614h129.851l350 -614h-139l-67 109h-430z" />
    <glyph glyph-name="Cacute" unicode="&#x106;" horiz-adv-x="820" 
d="M705.587 825l-221.087 -151h-154l202.087 151h173zM644 242h111v-100c0 -117.045 -54.9082 -146 -157 -146h-391c-90.0312 0 -142 33.9541 -142 157v307c0 125.032 68.0234 154 153 154h379c94.167 0 158 -28.9951 158 -151v-96h-111v96c0 22.3799 -8.1084 40 -37 40
h-389c-25.29 0 -42 -11.3545 -42 -43v-307c0 -32.0869 10.9893 -46 31 -46h400c26.0195 0 37 16.8174 37 35v100z" />
    <glyph glyph-name="cacute" unicode="&#x107;" horiz-adv-x="820" 
d="M705.587 825l-221.087 -151h-154l202.087 151h173zM644 242h111v-100c0 -117.045 -54.9082 -146 -157 -146h-391c-90.0312 0 -142 33.9541 -142 157v307c0 125.032 68.0234 154 153 154h379c94.167 0 158 -28.9951 158 -151v-96h-111v96c0 22.3799 -8.1084 40 -37 40
h-389c-25.29 0 -42 -11.3545 -42 -43v-307c0 -32.0869 10.9893 -46 31 -46h400c26.0195 0 37 16.8174 37 35v100z" />
    <glyph glyph-name="Ccircumflex" unicode="&#x108;" horiz-adv-x="820" 
d="M324.5 674h-145l177 167h120l159 -167h-147l-55 19.7998l-20 22.2002l-23 -21.9775zM644 242h111v-100c0 -117.045 -54.9082 -146 -157 -146h-391c-90.0312 0 -142 33.9541 -142 157v307c0 125.032 68.0234 154 153 154h379c94.167 0 158 -28.9951 158 -151v-96h-111v96
c0 22.3799 -8.1084 40 -37 40h-389c-25.29 0 -42 -11.3545 -42 -43v-307c0 -32.0869 10.9893 -46 31 -46h400c26.0195 0 37 16.8174 37 35v100z" />
    <glyph glyph-name="ccircumflex" unicode="&#x109;" horiz-adv-x="820" 
d="M324.5 674h-145l177 167h120l159 -167h-147l-55 19.7998l-20 22.2002l-23 -21.9775zM644 242h111v-100c0 -117.045 -54.9082 -146 -157 -146h-391c-90.0312 0 -142 33.9541 -142 157v307c0 125.032 68.0234 154 153 154h379c94.167 0 158 -28.9951 158 -151v-96h-111v96
c0 22.3799 -8.1084 40 -37 40h-389c-25.29 0 -42 -11.3545 -42 -43v-307c0 -32.0869 10.9893 -46 31 -46h400c26.0195 0 37 16.8174 37 35v100z" />
    <glyph glyph-name="Ccaron" unicode="&#x10c;" horiz-adv-x="820" 
d="M324.5 841l66 -20.0225l23 -21.9775l20 22.2002l55 19.7998h147l-159 -167h-120l-177 167h145zM644 242h111v-100c0 -117.045 -54.9082 -146 -157 -146h-391c-90.0312 0 -142 33.9541 -142 157v307c0 125.032 68.0234 154 153 154h379c94.167 0 158 -28.9951 158 -151
v-96h-111v96c0 22.3799 -8.1084 40 -37 40h-389c-25.29 0 -42 -11.3545 -42 -43v-307c0 -32.0869 10.9893 -46 31 -46h400c26.0195 0 37 16.8174 37 35v100z" />
    <glyph glyph-name="ccaron" unicode="&#x10d;" horiz-adv-x="820" 
d="M324.5 841l66 -20.0225l23 -21.9775l20 22.2002l55 19.7998h147l-159 -167h-120l-177 167h145zM644 242h111v-100c0 -117.045 -54.9082 -146 -157 -146h-391c-90.0312 0 -142 33.9541 -142 157v307c0 125.032 68.0234 154 153 154h379c94.167 0 158 -28.9951 158 -151
v-96h-111v96c0 22.3799 -8.1084 40 -37 40h-389c-25.29 0 -42 -11.3545 -42 -43v-307c0 -32.0869 10.9893 -46 31 -46h400c26.0195 0 37 16.8174 37 35v100z" />
    <glyph glyph-name="Dcaron" unicode="&#x10e;" horiz-adv-x="840" 
d="M333.5 841l66 -20.0225l23 -21.9775l20 22.2002l55 19.7998h147l-159 -167h-120l-177 167h145zM176 503v-392h442c21.0127 0 39 32.6738 39 65v273c0 32.0137 -34.377 54 -52 54c-19 0 -427.055 0.132812 -429 0zM65 614h524c100.604 0 179 -44.9492 179 -165v-273
c0 -110.016 -47 -176 -162 -176h-541v614z" />
    <glyph glyph-name="Emacron" unicode="&#x112;" horiz-adv-x="816" 
d="M217 758h358v-84l-358 1v83zM65 614h662v-111h-551v-129h512v-111h-512v-152h575v-111h-686v614z" />
    <glyph glyph-name="emacron" unicode="&#x113;" horiz-adv-x="816" 
d="M217 758h358v-84l-358 1v83zM65 614h662v-111h-551v-129h512v-111h-512v-152h575v-111h-686v614z" />
    <glyph glyph-name="Ebreve" unicode="&#x114;" horiz-adv-x="816" 
d="M397 760c37 0 82 24 82 70h86c0 -94 -60.9951 -156 -168 -156c-107.006 0 -170 53 -170 156h90c0 -50 44 -70 80 -70zM65 614h662v-111h-551v-129h512v-111h-512v-152h575v-111h-686v614z" />
    <glyph glyph-name="ebreve" unicode="&#x115;" horiz-adv-x="816" 
d="M397 760c37 0 82 24 82 70h86c0 -94 -60.9951 -156 -168 -156c-107.006 0 -170 53 -170 156h90c0 -50 44 -70 80 -70zM65 614h662v-111h-551v-129h512v-111h-512v-152h575v-111h-686v614z" />
    <glyph glyph-name="dotlessi" unicode="&#x131;" horiz-adv-x="241" 
d="M65 614h111v-614h-111v614z" />
    <glyph glyph-name="hungarumlaut" unicode="&#x2dd;" horiz-adv-x="466" 
d="M677 614l-221.087 -151h-154l202.087 151h173zM421 614l-221.087 -151h-154l202.087 151h173z" />
    <glyph glyph-name="dotaccent" unicode="&#x2d9;" horiz-adv-x="236" 
d="M59.8828 584.988c7.59668 10.1289 17.8965 18.2148 29.541 23.1885c9.00195 3.84375 18.79 5.82324 28.5762 5.82324c2.87402 0 5.74805 -0.170898 8.60254 -0.514648c12.5742 -1.51367 24.7256 -6.39062 34.8574 -13.9873
c10.1289 -7.59863 18.2148 -17.8975 23.1885 -29.543c3.84375 -9.00293 5.82324 -18.791 5.82324 -28.5771c0 -2.87402 -0.170898 -5.74805 -0.514648 -8.60156c-1.51367 -12.5742 -6.39062 -24.7256 -13.9873 -34.8555
c-7.59863 -10.1309 -17.8975 -18.2158 -29.543 -23.1904c-9.00293 -3.84473 -18.791 -5.82422 -28.5771 -5.82422c-2.87402 0 -5.74805 0.170898 -8.60156 0.515625c-12.5742 1.51367 -24.7227 6.39062 -34.8555 13.9893c-10.1309 7.59668 -18.2158 17.8955 -23.1904 29.541
c-3.84473 9.00195 -5.82422 18.79 -5.82422 28.5762c0 2.87402 0.170898 5.74805 0.515625 8.60254c1.51367 12.5742 6.39062 24.7256 13.9893 34.8574z" />
    <glyph glyph-name="Edotaccent" unicode="&#x116;" horiz-adv-x="816" 
d="M337.958 790.082c7.59668 10.1289 17.8965 18.2148 29.541 23.1885c9.00195 3.84375 18.79 5.82324 28.5762 5.82324c2.87402 0 5.74805 -0.170898 8.60254 -0.514648c12.5742 -1.51367 24.7256 -6.39062 34.8574 -13.9873
c10.1289 -7.59863 18.2148 -17.8975 23.1885 -29.543c3.84375 -9.00293 5.82324 -18.791 5.82324 -28.5771c0 -2.87402 -0.170898 -5.74805 -0.514648 -8.60156c-1.51367 -12.5742 -6.39062 -24.7256 -13.9873 -34.8555
c-7.59863 -10.1309 -17.8975 -18.2158 -29.543 -23.1904c-9.00293 -3.84473 -18.791 -5.82422 -28.5771 -5.82422c-2.87402 0 -5.74805 0.170898 -8.60156 0.515625c-12.5742 1.51367 -24.7227 6.39062 -34.8555 13.9893c-10.1309 7.59668 -18.2158 17.8955 -23.1904 29.541
c-3.84473 9.00195 -5.82422 18.79 -5.82422 28.5762c0 2.87402 0.170898 5.74805 0.515625 8.60254c1.51367 12.5742 6.39062 24.7256 13.9893 34.8574zM65 614h662v-111h-551v-129h512v-111h-512v-152h575v-111h-686v614z" />
    <glyph glyph-name="edotaccent" unicode="&#x117;" horiz-adv-x="816" 
d="M337.958 790.082c7.59668 10.1289 17.8965 18.2148 29.541 23.1885c9.00195 3.84375 18.79 5.82324 28.5762 5.82324c2.87402 0 5.74805 -0.170898 8.60254 -0.514648c12.5742 -1.51367 24.7256 -6.39062 34.8574 -13.9873
c10.1289 -7.59863 18.2148 -17.8975 23.1885 -29.543c3.84375 -9.00293 5.82324 -18.791 5.82324 -28.5771c0 -2.87402 -0.170898 -5.74805 -0.514648 -8.60156c-1.51367 -12.5742 -6.39062 -24.7256 -13.9873 -34.8555
c-7.59863 -10.1309 -17.8975 -18.2158 -29.543 -23.1904c-9.00293 -3.84473 -18.791 -5.82422 -28.5771 -5.82422c-2.87402 0 -5.74805 0.170898 -8.60156 0.515625c-12.5742 1.51367 -24.7227 6.39062 -34.8555 13.9893c-10.1309 7.59668 -18.2158 17.8955 -23.1904 29.541
c-3.84473 9.00195 -5.82422 18.79 -5.82422 28.5762c0 2.87402 0.170898 5.74805 0.515625 8.60254c1.51367 12.5742 6.39062 24.7256 13.9893 34.8574zM65 614h662v-111h-551v-129h512v-111h-512v-152h575v-111h-686v614z" />
    <glyph glyph-name="Eogonek" unicode="&#x118;" horiz-adv-x="816" 
d="M357.5 5.16699h101s-115 -41.8848 -115 -72c0 -21.0234 75.834 -17 157 -17v-66c-141 0 -252 20.4277 -252 69c0 49.5723 109 86 109 86zM65 614h662v-111h-551v-129h512v-111h-512v-152h575v-111h-686v614z" />
    <glyph glyph-name="eogonek" unicode="&#x119;" horiz-adv-x="816" 
d="M357.5 5.16699h101s-115 -41.8848 -115 -72c0 -21.0234 75.834 -17 157 -17v-66c-141 0 -252 20.4277 -252 69c0 49.5723 109 86 109 86zM65 614h662v-111h-551v-129h512v-111h-512v-152h575v-111h-686v614z" />
    <glyph glyph-name="Ecaron" unicode="&#x11a;" horiz-adv-x="816" 
d="M313 841l66 -20.0225l23 -21.9775l20 22.2002l55 19.7998h147l-159 -167h-120l-177 167h145zM65 614h662v-111h-551v-129h512v-111h-512v-152h575v-111h-686v614z" />
    <glyph glyph-name="ecaron" unicode="&#x11b;" horiz-adv-x="816" 
d="M313 841l66 -20.0225l23 -21.9775l20 22.2002l55 19.7998h147l-159 -167h-120l-177 167h145zM65 614h662v-111h-551v-129h512v-111h-512v-152h575v-111h-686v614z" />
    <glyph glyph-name="Gcircumflex" unicode="&#x11c;" horiz-adv-x="823" 
d="M326 674h-145l177 167h120l159 -167h-147l-55 19.7998l-20 22.2002l-23 -21.9775zM758 307v-165c0 -117.045 -54.9082 -146 -157 -146h-394c-90.0312 0 -142 33.9541 -142 157v307c0 125.032 68.0234 154 153 154h382c94.167 0 158 -28.9951 158 -151v-75h-111v75
c0 22.3799 -8.1084 40 -37 40h-392c-25.29 0 -42 -11.3545 -42 -43v-307c0 -32.0869 10.9893 -46 31 -46h403c26.0195 0 37 16.8174 37 35v65h-265v100h376z" />
    <glyph glyph-name="gcircumflex" unicode="&#x11d;" horiz-adv-x="823" 
d="M326 674h-145l177 167h120l159 -167h-147l-55 19.7998l-20 22.2002l-23 -21.9775zM758 307v-165c0 -117.045 -54.9082 -146 -157 -146h-394c-90.0312 0 -142 33.9541 -142 157v307c0 125.032 68.0234 154 153 154h382c94.167 0 158 -28.9951 158 -151v-75h-111v75
c0 22.3799 -8.1084 40 -37 40h-392c-25.29 0 -42 -11.3545 -42 -43v-307c0 -32.0869 10.9893 -46 31 -46h403c26.0195 0 37 16.8174 37 35v65h-265v100h376z" />
    <glyph glyph-name="Gbreve" unicode="&#x11e;" horiz-adv-x="823" 
d="M410 760c37 0 82 24 82 70h86c0 -94 -60.9951 -156 -168 -156c-107.006 0 -170 53 -170 156h90c0 -50 44 -70 80 -70zM758 307v-165c0 -117.045 -54.9082 -146 -157 -146h-394c-90.0312 0 -142 33.9541 -142 157v307c0 125.032 68.0234 154 153 154h382
c94.167 0 158 -28.9951 158 -151v-75h-111v75c0 22.3799 -8.1084 40 -37 40h-392c-25.29 0 -42 -11.3545 -42 -43v-307c0 -32.0869 10.9893 -46 31 -46h403c26.0195 0 37 16.8174 37 35v65h-265v100h376z" />
    <glyph glyph-name="gbreve" unicode="&#x11f;" horiz-adv-x="823" 
d="M410 760c37 0 82 24 82 70h86c0 -94 -60.9951 -156 -168 -156c-107.006 0 -170 53 -170 156h90c0 -50 44 -70 80 -70zM758 307v-165c0 -117.045 -54.9082 -146 -157 -146h-394c-90.0312 0 -142 33.9541 -142 157v307c0 125.032 68.0234 154 153 154h382
c94.167 0 158 -28.9951 158 -151v-75h-111v75c0 22.3799 -8.1084 40 -37 40h-392c-25.29 0 -42 -11.3545 -42 -43v-307c0 -32.0869 10.9893 -46 31 -46h403c26.0195 0 37 16.8174 37 35v65h-265v100h376z" />
    <glyph glyph-name="Gdotaccent" unicode="&#x120;" horiz-adv-x="823" 
d="M350.958 790.082c7.59668 10.1289 17.8965 18.2148 29.541 23.1885c9.00195 3.84375 18.79 5.82324 28.5762 5.82324c2.87402 0 5.74805 -0.170898 8.60254 -0.514648c12.5742 -1.51367 24.7256 -6.39062 34.8574 -13.9873
c10.1289 -7.59863 18.2148 -17.8975 23.1885 -29.543c3.84375 -9.00293 5.82324 -18.791 5.82324 -28.5771c0 -2.87402 -0.170898 -5.74805 -0.514648 -8.60156c-1.51367 -12.5742 -6.39062 -24.7256 -13.9873 -34.8555
c-7.59863 -10.1309 -17.8975 -18.2158 -29.543 -23.1904c-9.00293 -3.84473 -18.791 -5.82422 -28.5771 -5.82422c-2.87402 0 -5.74805 0.170898 -8.60156 0.515625c-12.5742 1.51367 -24.7227 6.39062 -34.8555 13.9893c-10.1309 7.59668 -18.2158 17.8955 -23.1904 29.541
c-3.84473 9.00195 -5.82422 18.79 -5.82422 28.5762c0 2.87402 0.170898 5.74805 0.515625 8.60254c1.51367 12.5742 6.39062 24.7256 13.9893 34.8574zM758 307v-165c0 -117.045 -54.9082 -146 -157 -146h-394c-90.0312 0 -142 33.9541 -142 157v307
c0 125.032 68.0234 154 153 154h382c94.167 0 158 -28.9951 158 -151v-75h-111v75c0 22.3799 -8.1084 40 -37 40h-392c-25.29 0 -42 -11.3545 -42 -43v-307c0 -32.0869 10.9893 -46 31 -46h403c26.0195 0 37 16.8174 37 35v65h-265v100h376z" />
    <glyph glyph-name="gdotaccent" unicode="&#x121;" horiz-adv-x="823" 
d="M350.958 790.082c7.59668 10.1289 17.8965 18.2148 29.541 23.1885c9.00195 3.84375 18.79 5.82324 28.5762 5.82324c2.87402 0 5.74805 -0.170898 8.60254 -0.514648c12.5742 -1.51367 24.7256 -6.39062 34.8574 -13.9873
c10.1289 -7.59863 18.2148 -17.8975 23.1885 -29.543c3.84375 -9.00293 5.82324 -18.791 5.82324 -28.5771c0 -2.87402 -0.170898 -5.74805 -0.514648 -8.60156c-1.51367 -12.5742 -6.39062 -24.7256 -13.9873 -34.8555
c-7.59863 -10.1309 -17.8975 -18.2158 -29.543 -23.1904c-9.00293 -3.84473 -18.791 -5.82422 -28.5771 -5.82422c-2.87402 0 -5.74805 0.170898 -8.60156 0.515625c-12.5742 1.51367 -24.7227 6.39062 -34.8555 13.9893c-10.1309 7.59668 -18.2158 17.8955 -23.1904 29.541
c-3.84473 9.00195 -5.82422 18.79 -5.82422 28.5762c0 2.87402 0.170898 5.74805 0.515625 8.60254c1.51367 12.5742 6.39062 24.7256 13.9893 34.8574zM758 307v-165c0 -117.045 -54.9082 -146 -157 -146h-394c-90.0312 0 -142 33.9541 -142 157v307
c0 125.032 68.0234 154 153 154h382c94.167 0 158 -28.9951 158 -151v-75h-111v75c0 22.3799 -8.1084 40 -37 40h-392c-25.29 0 -42 -11.3545 -42 -43v-307c0 -32.0869 10.9893 -46 31 -46h403c26.0195 0 37 16.8174 37 35v65h-265v100h376z" />
    <glyph glyph-name="Hcircumflex" unicode="&#x124;" horiz-adv-x="859" 
d="M346.5 674h-145l177 167h120l159 -167h-147l-55 19.7998l-20 22.2002l-23 -21.9775zM65 614h111v-264h507v264h111v-614h-111v239h-507v-239h-111v614z" />
    <glyph glyph-name="hcircumflex" unicode="&#x125;" horiz-adv-x="859" 
d="M346.5 674h-145l177 167h120l159 -167h-147l-55 19.7998l-20 22.2002l-23 -21.9775zM65 614h111v-264h507v264h111v-614h-111v239h-507v-239h-111v614z" />
    <glyph glyph-name="itilde" unicode="&#x129;" horiz-adv-x="241" 
d="M-62 674c0 0 13 152 75 152c50 0 185.926 -65.2803 205.76 -65.2803c12.2559 0 19.2402 65.2803 19.2402 65.2803h64s-12.9893 -151.78 -77.7002 -151.78c-41.4453 0 -177.825 65.2803 -199.859 65.2803c-12.4482 0 -18.4404 -65.5 -18.4404 -65.5h-68zM65 614h111v-614
h-111v614z" />
    <glyph glyph-name="Imacron" unicode="&#x12a;" horiz-adv-x="241" 
d="M-58.5 758h358v-84l-358 1v83zM65 614h111v-614h-111v614z" />
    <glyph glyph-name="imacron" unicode="&#x12b;" horiz-adv-x="241" 
d="M-59 758h358v-84l-358 1v83zM65 614h111v-614h-111v614z" />
    <glyph glyph-name="Ibreve" unicode="&#x12c;" horiz-adv-x="241" 
d="M121.5 760c37 0 82 24 82 70h86c0 -94 -60.9951 -156 -168 -156c-107.006 0 -170 53 -170 156h90c0 -50 44 -70 80 -70zM65 614h111v-614h-111v614z" />
    <glyph glyph-name="ibreve" unicode="&#x12d;" horiz-adv-x="241" 
d="M121 760c37 0 82 24 82 70h86c0 -94 -60.9951 -156 -168 -156c-107.006 0 -170 53 -170 156h90c0 -50 44 -70 80 -70zM65 614h111v-614h-111v614z" />
    <glyph glyph-name="Iogonek" unicode="&#x12e;" horiz-adv-x="241" 
d="M70 5.16699h101s-115 -41.8848 -115 -72c0 -21.0234 75.834 -17 157 -17v-66c-141 0 -252 20.4277 -252 69c0 49.5723 109 86 109 86zM65 614h111v-614h-111v614z" />
    <glyph glyph-name="iogonek" unicode="&#x12f;" horiz-adv-x="241" 
d="M70 5.16699h101s-115 -41.8848 -115 -72c0 -21.0234 75.834 -17 157 -17v-66c-141 0 -252 20.4277 -252 69c0 49.5723 109 86 109 86zM65 614h111v-614h-111v614z" />
    <glyph glyph-name="Idotaccent" unicode="&#x130;" horiz-adv-x="241" 
d="M62.458 790.082c7.59668 10.1289 17.8965 18.2148 29.541 23.1885c9.00195 3.84375 18.79 5.82324 28.5762 5.82324c2.87402 0 5.74805 -0.170898 8.60254 -0.514648c12.5742 -1.51367 24.7256 -6.39062 34.8574 -13.9873
c10.1289 -7.59863 18.2148 -17.8975 23.1885 -29.543c3.84375 -9.00293 5.82324 -18.791 5.82324 -28.5771c0 -2.87402 -0.170898 -5.74805 -0.514648 -8.60156c-1.51367 -12.5742 -6.39062 -24.7256 -13.9873 -34.8555
c-7.59863 -10.1309 -17.8975 -18.2158 -29.543 -23.1904c-9.00293 -3.84473 -18.791 -5.82422 -28.5771 -5.82422c-2.87402 0 -5.74805 0.170898 -8.60156 0.515625c-12.5742 1.51367 -24.7227 6.39062 -34.8555 13.9893c-10.1309 7.59668 -18.2158 17.8955 -23.1904 29.541
c-3.84473 9.00195 -5.82422 18.79 -5.82422 28.5762c0 2.87402 0.170898 5.74805 0.515625 8.60254c1.51367 12.5742 6.39062 24.7256 13.9893 34.8574zM65 614h111v-614h-111v614z" />
    <glyph glyph-name="Jcircumflex" unicode="&#x134;" horiz-adv-x="786" 
d="M582.5 674h-145l177 167h120l159 -167h-147l-55 19.7998l-20 22.2002l-23 -21.9775zM176 259v-110c0 -19.1768 11.4385 -40 39 -40h361c17.2568 0 34 23.8135 34 52v453h111v-453c0 -122.03 -55.9248 -163 -161 -163h-345c-107.018 0 -150 65.2373 -150 151v110h111z" />
    <glyph glyph-name="jcircumflex" unicode="&#x135;" horiz-adv-x="786" 
d="M582.5 674h-145l177 167h120l159 -167h-147l-55 19.7998l-20 22.2002l-23 -21.9775zM176 259v-110c0 -19.1768 11.4385 -40 39 -40h361c17.2568 0 34 23.8135 34 52v453h111v-453c0 -122.03 -55.9248 -163 -161 -163h-345c-107.018 0 -150 65.2373 -150 151v110h111z" />
    <glyph glyph-name="Itilde" unicode="&#x128;" horiz-adv-x="241" 
d="M-61.5 674c0 0 13 152 75 152c50 0 185.926 -65.2803 205.76 -65.2803c12.2559 0 19.2402 65.2803 19.2402 65.2803h64s-12.9893 -151.78 -77.7002 -151.78c-41.4453 0 -177.825 65.2803 -199.859 65.2803c-12.4482 0 -18.4404 -65.5 -18.4404 -65.5h-68zM65 614h111
v-614h-111v614z" />
    <glyph glyph-name="Lacute" unicode="&#x139;" horiz-adv-x="736" 
d="M418.087 825l-221.087 -151h-154l202.087 151h173zM65 614h111v-514h495v-100h-606v614z" />
    <glyph glyph-name="lacute" unicode="&#x13a;" horiz-adv-x="736" 
d="M418.087 825l-221.087 -151h-154l202.087 151h173zM65 614h111v-514h495v-100h-606v614z" />
    <glyph glyph-name="Nacute" unicode="&#x143;" horiz-adv-x="841" 
d="M718.587 825l-221.087 -151h-154l202.087 151h173zM176 443l11 4v-447h-122v614h111l478 -470v470h122v-614h-147z" />
    <glyph glyph-name="nacute" unicode="&#x144;" horiz-adv-x="841" 
d="M718.587 825l-221.087 -151h-154l202.087 151h173zM176 443l11 4v-447h-122v614h111l478 -470v470h122v-614h-147z" />
    <glyph glyph-name="Ncaron" unicode="&#x147;" horiz-adv-x="841" 
d="M337.5 841l66 -20.0225l23 -21.9775l20 22.2002l55 19.7998h147l-159 -167h-120l-177 167h145zM176 443l11 4v-447h-122v614h111l478 -470v470h122v-614h-147z" />
    <glyph glyph-name="ncaron" unicode="&#x148;" horiz-adv-x="841" 
d="M337.5 841l66 -20.0225l23 -21.9775l20 22.2002l55 19.7998h147l-159 -167h-120l-177 167h145zM176 443l11 4v-447h-122v614h111l478 -470v470h122v-614h-147z" />
    <glyph glyph-name="Omacron" unicode="&#x14c;" horiz-adv-x="819" 
d="M230.5 758h358v-84l-358 1v83zM230 110h359c24.29 0 54 32.3545 54 61v271c0 28.6455 -29.71 61 -54 61h-359c-24.29 0 -54 -32.3545 -54 -61v-271c0 -28.6455 29.71 -61 54 -61zM230 -1c-85.9766 0 -165 58.9678 -165 172v271c0 113.032 79.0234 172 165 172h359
c85.9766 0 165 -58.9678 165 -172v-271c0 -113.032 -79.0234 -172 -165 -172h-359zM754 142z" />
    <glyph glyph-name="omacron" unicode="&#x14d;" horiz-adv-x="819" 
d="M230.5 758h358v-84l-358 1v83zM230 110h359c24.29 0 54 32.3545 54 61v271c0 28.6455 -29.71 61 -54 61h-359c-24.29 0 -54 -32.3545 -54 -61v-271c0 -28.6455 29.71 -61 54 -61zM230 -1c-85.9766 0 -165 58.9678 -165 172v271c0 113.032 79.0234 172 165 172h359
c85.9766 0 165 -58.9678 165 -172v-271c0 -113.032 -79.0234 -172 -165 -172h-359zM754 142z" />
    <glyph glyph-name="Obreve" unicode="&#x14e;" horiz-adv-x="819" 
d="M410.5 760c37 0 82 24 82 70h86c0 -94 -60.9951 -156 -168 -156c-107.006 0 -170 53 -170 156h90c0 -50 44 -70 80 -70zM230 110h359c24.29 0 54 32.3545 54 61v271c0 28.6455 -29.71 61 -54 61h-359c-24.29 0 -54 -32.3545 -54 -61v-271c0 -28.6455 29.71 -61 54 -61z
M230 -1c-85.9766 0 -165 58.9678 -165 172v271c0 113.032 79.0234 172 165 172h359c85.9766 0 165 -58.9678 165 -172v-271c0 -113.032 -79.0234 -172 -165 -172h-359zM754 142z" />
    <glyph glyph-name="obreve" unicode="&#x14f;" horiz-adv-x="819" 
d="M410.5 760c37 0 82 24 82 70h86c0 -94 -60.9951 -156 -168 -156c-107.006 0 -170 53 -170 156h90c0 -50 44 -70 80 -70zM230 110h359c24.29 0 54 32.3545 54 61v271c0 28.6455 -29.71 61 -54 61h-359c-24.29 0 -54 -32.3545 -54 -61v-271c0 -28.6455 29.71 -61 54 -61z
M230 -1c-85.9766 0 -165 58.9678 -165 172v271c0 113.032 79.0234 172 165 172h359c85.9766 0 165 -58.9678 165 -172v-271c0 -113.032 -79.0234 -172 -165 -172h-359zM754 142z" />
    <glyph glyph-name="Ohungarumlaut" unicode="&#x150;" horiz-adv-x="819" 
d="M835.587 825l-221.087 -151h-154l202.087 151h173zM579.587 825l-221.087 -151h-154l202.087 151h173zM230 110h359c24.29 0 54 32.3545 54 61v271c0 28.6455 -29.71 61 -54 61h-359c-24.29 0 -54 -32.3545 -54 -61v-271c0 -28.6455 29.71 -61 54 -61zM230 -1
c-85.9766 0 -165 58.9678 -165 172v271c0 113.032 79.0234 172 165 172h359c85.9766 0 165 -58.9678 165 -172v-271c0 -113.032 -79.0234 -172 -165 -172h-359zM754 142z" />
    <glyph glyph-name="ohungarumlaut" unicode="&#x151;" horiz-adv-x="819" 
d="M835.587 825l-221.087 -151h-154l202.087 151h173zM579.587 825l-221.087 -151h-154l202.087 151h173zM230 110h359c24.29 0 54 32.3545 54 61v271c0 28.6455 -29.71 61 -54 61h-359c-24.29 0 -54 -32.3545 -54 -61v-271c0 -28.6455 29.71 -61 54 -61zM230 -1
c-85.9766 0 -165 58.9678 -165 172v271c0 113.032 79.0234 172 165 172h359c85.9766 0 165 -58.9678 165 -172v-271c0 -113.032 -79.0234 -172 -165 -172h-359zM754 142z" />
    <glyph glyph-name="Racute" unicode="&#x154;" horiz-adv-x="743" 
d="M582.087 825l-221.087 -151h-154l202.087 151h173zM176 503v-183h327c26.0488 0 47 18.29 47 47v89c0 25.0146 -19.1514 47 -40 47h-334zM497 209h-321v-209l-111 1v613h438c101.263 0 158 -48.0234 158 -158v-89c0 -51.3721 -9.3584 -88.0195 -29.4951 -113
c18.3887 -10.1689 39.4951 -47.3633 39.4951 -124c0 -44.0908 -0.521484 -0.00488281 0 -95c0.0673828 -11.1191 0 -35 0 -35h-121v36v94c0 33.9639 -22.9883 79 -53 79z" />
    <glyph glyph-name="racute" unicode="&#x155;" horiz-adv-x="743" 
d="M582.087 825l-221.087 -151h-154l202.087 151h173zM176 503v-183h327c26.0488 0 47 18.29 47 47v89c0 25.0146 -19.1514 47 -40 47h-334zM497 209h-321v-209l-111 1v613h438c101.263 0 158 -48.0234 158 -158v-89c0 -51.3721 -9.3584 -88.0195 -29.4951 -113
c18.3887 -10.1689 39.4951 -47.3633 39.4951 -124c0 -44.0908 -0.521484 -0.00488281 0 -95c0.0673828 -11.1191 0 -35 0 -35h-121v36v94c0 33.9639 -22.9883 79 -53 79z" />
    <glyph glyph-name="Rcaron" unicode="&#x158;" horiz-adv-x="743" 
d="M285.015 841l66 -20.0225l23 -21.9775l20 22.2002l55 19.7998h147l-159 -167h-120l-177 167h145zM176 503v-183h327c26.0488 0 47 18.29 47 47v89c0 25.0146 -19.1514 47 -40 47h-334zM497 209h-321v-209l-111 1v613h438c101.263 0 158 -48.0234 158 -158v-89
c0 -51.3721 -9.3584 -88.0195 -29.4951 -113c18.3887 -10.1689 39.4951 -47.3633 39.4951 -124c0 -44.0908 -0.521484 -0.00488281 0 -95c0.0673828 -11.1191 0 -35 0 -35h-121v36v94c0 33.9639 -22.9883 79 -53 79z" />
    <glyph glyph-name="rcaron" unicode="&#x159;" horiz-adv-x="743" 
d="M285.015 841l66 -20.0225l23 -21.9775l20 22.2002l55 19.7998h147l-159 -167h-120l-177 167h145zM176 503v-183h327c26.0488 0 47 18.29 47 47v89c0 25.0146 -19.1514 47 -40 47h-334zM497 209h-321v-209l-111 1v613h438c101.263 0 158 -48.0234 158 -158v-89
c0 -51.3721 -9.3584 -88.0195 -29.4951 -113c18.3887 -10.1689 39.4951 -47.3633 39.4951 -124c0 -44.0908 -0.521484 -0.00488281 0 -95c0.0673828 -11.1191 0 -35 0 -35h-121v36v94c0 33.9639 -22.9883 79 -53 79z" />
    <glyph glyph-name="Sacute" unicode="&#x15a;" horiz-adv-x="786" 
d="M679.587 826l-221.087 -151h-154l202.087 151h173zM714 425.593h-111v45c0 19.0225 -19.1211 32.8613 -56 32.8613c-72.8604 0 -323.533 0.545898 -331 0.545898c-18.0742 0 -40 -14.3848 -40 -33v-68c0 -16.6289 97.4473 -35.7373 206 -44
c240.77 -18.3262 332 -53.3623 332 -154.407v-63c0 -105.042 -55.7012 -144 -167 -144c-78.3838 0 -265.479 0.407227 -317 0.407227c-110.312 0 -165 37.1924 -165 144v41h109v-41c0 -20.9883 12.4844 -33 42 -33c9.95215 0 258.021 -0.407227 331 -0.407227
c40.5703 0 56 15.2725 56 33v63c0 15.0811 -82.8428 33.373 -221 43.4072c-212.478 15.4326 -317 53.3438 -317 155v68c0 95.0059 53.9336 144 151 144h331c120.765 0 167 -46.3896 167 -144.407v-45z" />
    <glyph glyph-name="sacute" unicode="&#x15b;" horiz-adv-x="786" 
d="M679.587 826l-221.087 -151h-154l202.087 151h173zM714 425.593h-111v45c0 19.0225 -19.1211 32.8613 -56 32.8613c-72.8604 0 -323.533 0.545898 -331 0.545898c-18.0742 0 -40 -14.3848 -40 -33v-68c0 -16.6289 97.4473 -35.7373 206 -44
c240.77 -18.3262 332 -53.3623 332 -154.407v-63c0 -105.042 -55.7012 -144 -167 -144c-78.3838 0 -265.479 0.407227 -317 0.407227c-110.312 0 -165 37.1924 -165 144v41h109v-41c0 -20.9883 12.4844 -33 42 -33c9.95215 0 258.021 -0.407227 331 -0.407227
c40.5703 0 56 15.2725 56 33v63c0 15.0811 -82.8428 33.373 -221 43.4072c-212.478 15.4326 -317 53.3438 -317 155v68c0 95.0059 53.9336 144 151 144h331c120.765 0 167 -46.3896 167 -144.407v-45z" />
    <glyph glyph-name="Scircumflex" unicode="&#x15c;" horiz-adv-x="786" 
d="M298.5 675h-145l177 167h120l159 -167h-147l-55 19.7998l-20 22.2002l-23 -21.9775zM714 425.593h-111v45c0 19.0225 -19.1211 32.8613 -56 32.8613c-72.8604 0 -323.533 0.545898 -331 0.545898c-18.0742 0 -40 -14.3848 -40 -33v-68
c0 -16.6289 97.4473 -35.7373 206 -44c240.77 -18.3262 332 -53.3623 332 -154.407v-63c0 -105.042 -55.7012 -144 -167 -144c-78.3838 0 -265.479 0.407227 -317 0.407227c-110.312 0 -165 37.1924 -165 144v41h109v-41c0 -20.9883 12.4844 -33 42 -33
c9.95215 0 258.021 -0.407227 331 -0.407227c40.5703 0 56 15.2725 56 33v63c0 15.0811 -82.8428 33.373 -221 43.4072c-212.478 15.4326 -317 53.3438 -317 155v68c0 95.0059 53.9336 144 151 144h331c120.765 0 167 -46.3896 167 -144.407v-45z" />
    <glyph glyph-name="scircumflex" unicode="&#x15d;" horiz-adv-x="786" 
d="M298.5 675h-145l177 167h120l159 -167h-147l-55 19.7998l-20 22.2002l-23 -21.9775zM714 425.593h-111v45c0 19.0225 -19.1211 32.8613 -56 32.8613c-72.8604 0 -323.533 0.545898 -331 0.545898c-18.0742 0 -40 -14.3848 -40 -33v-68
c0 -16.6289 97.4473 -35.7373 206 -44c240.77 -18.3262 332 -53.3623 332 -154.407v-63c0 -105.042 -55.7012 -144 -167 -144c-78.3838 0 -265.479 0.407227 -317 0.407227c-110.312 0 -165 37.1924 -165 144v41h109v-41c0 -20.9883 12.4844 -33 42 -33
c9.95215 0 258.021 -0.407227 331 -0.407227c40.5703 0 56 15.2725 56 33v63c0 15.0811 -82.8428 33.373 -221 43.4072c-212.478 15.4326 -317 53.3438 -317 155v68c0 95.0059 53.9336 144 151 144h331c120.765 0 167 -46.3896 167 -144.407v-45z" />
    <glyph glyph-name="Scedilla" unicode="&#x15e;" horiz-adv-x="786" 
d="M358.765 5.44336h59.4717v-52.3594s44 23.4395 92 23.4395c58.9541 0 139 -32 139 -107c0 -61.5312 -89.1182 -99.6006 -153 -99.6006c-33.0977 0 -103 7.60059 -125 27.6006l24 53c19 -16 80.4658 -21.001 101 -21.001c39.0127 0 88.96 18.0479 88.96 40.001
c0 28.082 -49.958 47.3994 -88.96 47.3994c-40.002 0 -109 -32.3994 -109 -32.3994h-28.4717v120.92zM714 425.593h-111v45c0 19.0225 -19.1211 32.8613 -56 32.8613c-72.8604 0 -323.533 0.545898 -331 0.545898c-18.0742 0 -40 -14.3848 -40 -33v-68
c0 -16.6289 97.4473 -35.7373 206 -44c240.77 -18.3262 332 -53.3623 332 -154.407v-63c0 -105.042 -55.7012 -144 -167 -144c-78.3838 0 -265.479 0.407227 -317 0.407227c-110.312 0 -165 37.1924 -165 144v41h109v-41c0 -20.9883 12.4844 -33 42 -33
c9.95215 0 258.021 -0.407227 331 -0.407227c40.5703 0 56 15.2725 56 33v63c0 15.0811 -82.8428 33.373 -221 43.4072c-212.478 15.4326 -317 53.3438 -317 155v68c0 95.0059 53.9336 144 151 144h331c120.765 0 167 -46.3896 167 -144.407v-45z" />
    <glyph glyph-name="scedilla" unicode="&#x15f;" horiz-adv-x="786" 
d="M358.765 5.44336h59.4717v-52.3594s44 23.4395 92 23.4395c58.9541 0 139 -32 139 -107c0 -61.5312 -89.1182 -99.6006 -153 -99.6006c-33.0977 0 -103 7.60059 -125 27.6006l24 53c19 -16 80.4658 -21.001 101 -21.001c39.0127 0 88.96 18.0479 88.96 40.001
c0 28.082 -49.958 47.3994 -88.96 47.3994c-40.002 0 -109 -32.3994 -109 -32.3994h-28.4717v120.92zM714 425.593h-111v45c0 19.0225 -19.1211 32.8613 -56 32.8613c-72.8604 0 -323.533 0.545898 -331 0.545898c-18.0742 0 -40 -14.3848 -40 -33v-68
c0 -16.6289 97.4473 -35.7373 206 -44c240.77 -18.3262 332 -53.3623 332 -154.407v-63c0 -105.042 -55.7012 -144 -167 -144c-78.3838 0 -265.479 0.407227 -317 0.407227c-110.312 0 -165 37.1924 -165 144v41h109v-41c0 -20.9883 12.4844 -33 42 -33
c9.95215 0 258.021 -0.407227 331 -0.407227c40.5703 0 56 15.2725 56 33v63c0 15.0811 -82.8428 33.373 -221 43.4072c-212.478 15.4326 -317 53.3438 -317 155v68c0 95.0059 53.9336 144 151 144h331c120.765 0 167 -46.3896 167 -144.407v-45z" />
    <glyph glyph-name="uni0162" unicode="&#x162;" horiz-adv-x="785" 
d="M357.765 7.85059h59.4717v-52.3594s44 23.4395 92 23.4395c58.9541 0 139 -32 139 -107c0 -61.5312 -89.1182 -99.6006 -153 -99.6006c-33.0977 0 -103 7.60059 -125 27.6006l24 53c19 -16 80.4658 -21.001 101 -21.001c39.0127 0 88.96 18.0479 88.96 40.001
c0 28.082 -49.958 47.3994 -88.96 47.3994c-40.002 0 -109 -32.3994 -109 -32.3994h-28.4717v120.92zM65 614h655v-100h-277v-514h-111v514h-267v100z" />
    <glyph glyph-name="uni0163" unicode="&#x163;" horiz-adv-x="785" 
d="M357.765 7.85059h59.4717v-52.3594s44 23.4395 92 23.4395c58.9541 0 139 -32 139 -107c0 -61.5312 -89.1182 -99.6006 -153 -99.6006c-33.0977 0 -103 7.60059 -125 27.6006l24 53c19 -16 80.4658 -21.001 101 -21.001c39.0127 0 88.96 18.0479 88.96 40.001
c0 28.082 -49.958 47.3994 -88.96 47.3994c-40.002 0 -109 -32.3994 -109 -32.3994h-28.4717v120.92zM65 614h655v-100h-277v-514h-111v514h-267v100z" />
    <glyph glyph-name="Tcaron" unicode="&#x164;" horiz-adv-x="785" 
d="M309.5 841l66 -20.0225l23 -21.9775l20 22.2002l55 19.7998h147l-159 -167h-120l-177 167h145zM65 614h655v-100h-277v-514h-111v514h-267v100z" />
    <glyph glyph-name="Utilde" unicode="&#x168;" 
d="M229 674c0 0 13 152 75 152c50 0 185.926 -65.2803 205.76 -65.2803c12.2559 0 19.2402 65.2803 19.2402 65.2803h64s-12.9893 -151.78 -77.7002 -151.78c-41.4453 0 -177.825 65.2803 -199.859 65.2803c-12.4482 0 -18.4404 -65.5 -18.4404 -65.5h-68zM600 -1h-378
c-94.043 0 -157 53.918 -157 165v450h111v-450c0 -28 8.61133 -54 37 -54h396c28.3887 0 37 26 37 54v450h111v-450c0 -111.082 -62.957 -165 -157 -165z" />
    <glyph glyph-name="utilde" unicode="&#x169;" 
d="M229 674c0 0 13 152 75 152c50 0 185.926 -65.2803 205.76 -65.2803c12.2559 0 19.2402 65.2803 19.2402 65.2803h64s-12.9893 -151.78 -77.7002 -151.78c-41.4453 0 -177.825 65.2803 -199.859 65.2803c-12.4482 0 -18.4404 -65.5 -18.4404 -65.5h-68zM600 -1h-378
c-94.043 0 -157 53.918 -157 165v450h111v-450c0 -28 8.61133 -54 37 -54h396c28.3887 0 37 26 37 54v450h111v-450c0 -111.082 -62.957 -165 -157 -165z" />
    <glyph glyph-name="Umacron" unicode="&#x16a;" 
d="M232 758h358v-84l-358 1v83zM600 -1h-378c-94.043 0 -157 53.918 -157 165v450h111v-450c0 -28 8.61133 -54 37 -54h396c28.3887 0 37 26 37 54v450h111v-450c0 -111.082 -62.957 -165 -157 -165z" />
    <glyph glyph-name="umacron" unicode="&#x16b;" 
d="M232 758h358v-84l-358 1v83zM600 -1h-378c-94.043 0 -157 53.918 -157 165v450h111v-450c0 -28 8.61133 -54 37 -54h396c28.3887 0 37 26 37 54v450h111v-450c0 -111.082 -62.957 -165 -157 -165z" />
    <glyph glyph-name="Ubreve" unicode="&#x16c;" 
d="M412 760c37 0 82 24 82 70h86c0 -94 -60.9951 -156 -168 -156c-107.006 0 -170 53 -170 156h90c0 -50 44 -70 80 -70zM600 -1h-378c-94.043 0 -157 53.918 -157 165v450h111v-450c0 -28 8.61133 -54 37 -54h396c28.3887 0 37 26 37 54v450h111v-450
c0 -111.082 -62.957 -165 -157 -165z" />
    <glyph glyph-name="ubreve" unicode="&#x16d;" 
d="M412 760c37 0 82 24 82 70h86c0 -94 -60.9951 -156 -168 -156c-107.006 0 -170 53 -170 156h90c0 -50 44 -70 80 -70zM600 -1h-378c-94.043 0 -157 53.918 -157 165v450h111v-450c0 -28 8.61133 -54 37 -54h396c28.3887 0 37 26 37 54v450h111v-450
c0 -111.082 -62.957 -165 -157 -165z" />
    <glyph glyph-name="Uring" unicode="&#x16e;" 
d="M384.569 743.225c0 -14.916 11.5811 -26.4717 26.3906 -26.4717c14.916 0 26.4707 11.5801 26.4707 26.3906c0 14.917 -11.5791 26.4717 -26.3896 26.4717c-14.916 0 -26.4717 -11.5801 -26.4717 -26.3906zM411.071 812.368
c2.74414 0 5.48633 -0.163086 8.21191 -0.491211c25.9023 -3.12012 46.3857 -20.5312 55.3496 -41.5195c3.67578 -8.60742 5.55176 -17.8857 5.55176 -27.2441c0 -2.74414 -0.163086 -5.48535 -0.490234 -8.21191c-3.12109 -25.9023 -20.5322 -46.3818 -41.5205 -55.3506
c-8.60645 -3.6748 -17.8857 -5.55078 -27.2432 -5.55078c-2.74512 0 -5.48633 0.163086 -8.21289 0.490234c-25.8994 3.12109 -46.3828 20.5342 -55.3496 41.5205c-3.67578 8.60645 -5.55176 17.8857 -5.55176 27.2432c0 2.74512 0.163086 5.4873 0.491211 8.21289
c3.12012 25.8984 20.5312 46.3857 41.5195 55.3496c8.60742 3.67578 17.8857 5.55176 27.2441 5.55176zM600 -1h-378c-94.043 0 -157 53.918 -157 165v450h111v-450c0 -28 8.61133 -54 37 -54h396c28.3887 0 37 26 37 54v450h111v-450c0 -111.082 -62.957 -165 -157 -165z
" />
    <glyph glyph-name="uring" unicode="&#x16f;" 
d="M384.569 743.225c0 -14.916 11.5811 -26.4717 26.3906 -26.4717c14.916 0 26.4707 11.5801 26.4707 26.3906c0 14.917 -11.5791 26.4717 -26.3896 26.4717c-14.916 0 -26.4717 -11.5801 -26.4717 -26.3906zM411.071 812.368
c2.74414 0 5.48633 -0.163086 8.21191 -0.491211c25.9023 -3.12012 46.3857 -20.5312 55.3496 -41.5195c3.67578 -8.60742 5.55176 -17.8857 5.55176 -27.2441c0 -2.74414 -0.163086 -5.48535 -0.490234 -8.21191c-3.12109 -25.9023 -20.5322 -46.3818 -41.5205 -55.3506
c-8.60645 -3.6748 -17.8857 -5.55078 -27.2432 -5.55078c-2.74512 0 -5.48633 0.163086 -8.21289 0.490234c-25.8994 3.12109 -46.3828 20.5342 -55.3496 41.5205c-3.67578 8.60645 -5.55176 17.8857 -5.55176 27.2432c0 2.74512 0.163086 5.4873 0.491211 8.21289
c3.12012 25.8984 20.5312 46.3857 41.5195 55.3496c8.60742 3.67578 17.8857 5.55176 27.2441 5.55176zM600 -1h-378c-94.043 0 -157 53.918 -157 165v450h111v-450c0 -28 8.61133 -54 37 -54h396c28.3887 0 37 26 37 54v450h111v-450c0 -111.082 -62.957 -165 -157 -165z
" />
    <glyph glyph-name="Uhungarumlaut" unicode="&#x170;" 
d="M837.087 825l-221.087 -151h-154l202.087 151h173zM581.087 825l-221.087 -151h-154l202.087 151h173zM600 -1h-378c-94.043 0 -157 53.918 -157 165v450h111v-450c0 -28 8.61133 -54 37 -54h396c28.3887 0 37 26 37 54v450h111v-450c0 -111.082 -62.957 -165 -157 -165z
" />
    <glyph glyph-name="uhungarumlaut" unicode="&#x171;" 
d="M837.087 825l-221.087 -151h-154l202.087 151h173zM581.087 825l-221.087 -151h-154l202.087 151h173zM600 -1h-378c-94.043 0 -157 53.918 -157 165v450h111v-450c0 -28 8.61133 -54 37 -54h396c28.3887 0 37 26 37 54v450h111v-450c0 -111.082 -62.957 -165 -157 -165z
" />
    <glyph glyph-name="Uogonek" unicode="&#x172;" 
d="M360.5 4.16699h101s-115 -41.8848 -115 -72c0 -21.0234 75.834 -17 157 -17v-66c-141 0 -252 20.4277 -252 69c0 49.5723 109 86 109 86zM600 -1h-378c-94.043 0 -157 53.918 -157 165v450h111v-450c0 -28 8.61133 -54 37 -54h396c28.3887 0 37 26 37 54v450h111v-450
c0 -111.082 -62.957 -165 -157 -165z" />
    <glyph glyph-name="uogonek" unicode="&#x173;" 
d="M360.5 4.16699h101s-115 -41.8848 -115 -72c0 -21.0234 75.834 -17 157 -17v-66c-141 0 -252 20.4277 -252 69c0 49.5723 109 86 109 86zM600 -1h-378c-94.043 0 -157 53.918 -157 165v450h111v-450c0 -28 8.61133 -54 37 -54h396c28.3887 0 37 26 37 54v450h111v-450
c0 -111.082 -62.957 -165 -157 -165z" />
    <glyph glyph-name="Wcircumflex" unicode="&#x174;" horiz-adv-x="974" 
d="M404 674h-145l177 167h120l159 -167h-147l-55 19.7998l-20 22.2002l-23 -21.9775zM673 166l165 448h122l-232 -614h-121l-120 410l-150 -410h-117l-206 614h123l153 -448l136 448h122z" />
    <glyph glyph-name="wcircumflex" unicode="&#x175;" horiz-adv-x="974" 
d="M404 674h-145l177 167h120l159 -167h-147l-55 19.7998l-20 22.2002l-23 -21.9775zM673 166l165 448h122l-232 -614h-121l-120 410l-150 -410h-117l-206 614h123l153 -448l136 448h122z" />
    <glyph glyph-name="Ycircumflex" unicode="&#x176;" horiz-adv-x="808" 
d="M320.975 674h-145l177 167h120l159 -167h-147l-55 19.7998l-20 22.2002l-23 -21.9775zM405.011 350l237.989 264h151l-327.939 -373l-0.0498047 -241h-122l0.0498047 240l-330.11 374h158.05z" />
    <glyph glyph-name="ycircumflex" unicode="&#x177;" horiz-adv-x="808" 
d="M320.975 674h-145l177 167h120l159 -167h-147l-55 19.7998l-20 22.2002l-23 -21.9775zM405.011 350l237.989 264h151l-327.939 -373l-0.0498047 -241h-122l0.0498047 240l-330.11 374h158.05z" />
    <glyph glyph-name="Zacute" unicode="&#x179;" horiz-adv-x="785" 
d="M690.587 825l-221.087 -151h-154l202.087 151h173zM65 614h655v-111l-487 -392h487v-111h-655v111l490 392h-490v111z" />
    <glyph glyph-name="zacute" unicode="&#x17a;" horiz-adv-x="785" 
d="M690.587 825l-221.087 -151h-154l202.087 151h173zM65 614h655v-111l-487 -392h487v-111h-655v111l490 392h-490v111z" />
    <glyph glyph-name="Zdotaccent" unicode="&#x17b;" horiz-adv-x="785" 
d="M334.458 790.082c7.59668 10.1289 17.8965 18.2148 29.541 23.1885c9.00195 3.84375 18.79 5.82324 28.5762 5.82324c2.87402 0 5.74805 -0.170898 8.60254 -0.514648c12.5742 -1.51367 24.7256 -6.39062 34.8574 -13.9873
c10.1289 -7.59863 18.2148 -17.8975 23.1885 -29.543c3.84375 -9.00293 5.82324 -18.791 5.82324 -28.5771c0 -2.87402 -0.170898 -5.74805 -0.514648 -8.60156c-1.51367 -12.5742 -6.39062 -24.7256 -13.9873 -34.8555
c-7.59863 -10.1309 -17.8975 -18.2158 -29.543 -23.1904c-9.00293 -3.84473 -18.791 -5.82422 -28.5771 -5.82422c-2.87402 0 -5.74805 0.170898 -8.60156 0.515625c-12.5742 1.51367 -24.7227 6.39062 -34.8555 13.9893c-10.1309 7.59668 -18.2158 17.8955 -23.1904 29.541
c-3.84473 9.00195 -5.82422 18.79 -5.82422 28.5762c0 2.87402 0.170898 5.74805 0.515625 8.60254c1.51367 12.5742 6.39062 24.7256 13.9893 34.8574zM65 614h655v-111l-487 -392h487v-111h-655v111l490 392h-490v111z" />
    <glyph glyph-name="zdotaccent" unicode="&#x17c;" horiz-adv-x="785" 
d="M334.458 790.082c7.59668 10.1289 17.8965 18.2148 29.541 23.1885c9.00195 3.84375 18.79 5.82324 28.5762 5.82324c2.87402 0 5.74805 -0.170898 8.60254 -0.514648c12.5742 -1.51367 24.7256 -6.39062 34.8574 -13.9873
c10.1289 -7.59863 18.2148 -17.8975 23.1885 -29.543c3.84375 -9.00293 5.82324 -18.791 5.82324 -28.5771c0 -2.87402 -0.170898 -5.74805 -0.514648 -8.60156c-1.51367 -12.5742 -6.39062 -24.7256 -13.9873 -34.8555
c-7.59863 -10.1309 -17.8975 -18.2158 -29.543 -23.1904c-9.00293 -3.84473 -18.791 -5.82422 -28.5771 -5.82422c-2.87402 0 -5.74805 0.170898 -8.60156 0.515625c-12.5742 1.51367 -24.7227 6.39062 -34.8555 13.9893c-10.1309 7.59668 -18.2158 17.8955 -23.1904 29.541
c-3.84473 9.00195 -5.82422 18.79 -5.82422 28.5762c0 2.87402 0.170898 5.74805 0.515625 8.60254c1.51367 12.5742 6.39062 24.7256 13.9893 34.8574zM65 614h655v-111l-487 -392h487v-111h-655v111l490 392h-490v111z" />
    <glyph glyph-name="Cdotaccent" unicode="&#x10a;" horiz-adv-x="820" 
d="M349.458 790.082c7.59668 10.1289 17.8965 18.2148 29.541 23.1885c9.00195 3.84375 18.79 5.82324 28.5762 5.82324c2.87402 0 5.74805 -0.170898 8.60254 -0.514648c12.5742 -1.51367 24.7256 -6.39062 34.8574 -13.9873
c10.1289 -7.59863 18.2148 -17.8975 23.1885 -29.543c3.84375 -9.00293 5.82324 -18.791 5.82324 -28.5771c0 -2.87402 -0.170898 -5.74805 -0.514648 -8.60156c-1.51367 -12.5742 -6.39062 -24.7256 -13.9873 -34.8555
c-7.59863 -10.1309 -17.8975 -18.2158 -29.543 -23.1904c-9.00293 -3.84473 -18.791 -5.82422 -28.5771 -5.82422c-2.87402 0 -5.74805 0.170898 -8.60156 0.515625c-12.5742 1.51367 -24.7227 6.39062 -34.8555 13.9893c-10.1309 7.59668 -18.2158 17.8955 -23.1904 29.541
c-3.84473 9.00195 -5.82422 18.79 -5.82422 28.5762c0 2.87402 0.170898 5.74805 0.515625 8.60254c1.51367 12.5742 6.39062 24.7256 13.9893 34.8574zM644 242h111v-100c0 -117.045 -54.9082 -146 -157 -146h-391c-90.0312 0 -142 33.9541 -142 157v307
c0 125.032 68.0234 154 153 154h379c94.167 0 158 -28.9951 158 -151v-96h-111v96c0 22.3799 -8.1084 40 -37 40h-389c-25.29 0 -42 -11.3545 -42 -43v-307c0 -32.0869 10.9893 -46 31 -46h400c26.0195 0 37 16.8174 37 35v100z" />
    <glyph glyph-name="cdotaccent" unicode="&#x10b;" horiz-adv-x="820" 
d="M349.458 790.082c7.59668 10.1289 17.8965 18.2148 29.541 23.1885c9.00195 3.84375 18.79 5.82324 28.5762 5.82324c2.87402 0 5.74805 -0.170898 8.60254 -0.514648c12.5742 -1.51367 24.7256 -6.39062 34.8574 -13.9873
c10.1289 -7.59863 18.2148 -17.8975 23.1885 -29.543c3.84375 -9.00293 5.82324 -18.791 5.82324 -28.5771c0 -2.87402 -0.170898 -5.74805 -0.514648 -8.60156c-1.51367 -12.5742 -6.39062 -24.7256 -13.9873 -34.8555
c-7.59863 -10.1309 -17.8975 -18.2158 -29.543 -23.1904c-9.00293 -3.84473 -18.791 -5.82422 -28.5771 -5.82422c-2.87402 0 -5.74805 0.170898 -8.60156 0.515625c-12.5742 1.51367 -24.7227 6.39062 -34.8555 13.9893c-10.1309 7.59668 -18.2158 17.8955 -23.1904 29.541
c-3.84473 9.00195 -5.82422 18.79 -5.82422 28.5762c0 2.87402 0.170898 5.74805 0.515625 8.60254c1.51367 12.5742 6.39062 24.7256 13.9893 34.8574zM644 242h111v-100c0 -117.045 -54.9082 -146 -157 -146h-391c-90.0312 0 -142 33.9541 -142 157v307
c0 125.032 68.0234 154 153 154h379c94.167 0 158 -28.9951 158 -151v-96h-111v96c0 22.3799 -8.1084 40 -37 40h-389c-25.29 0 -42 -11.3545 -42 -43v-307c0 -32.0869 10.9893 -46 31 -46h400c26.0195 0 37 16.8174 37 35v100z" />
    <glyph glyph-name="B.ss01" horiz-adv-x="776" 
d="M65 0h453c141 0 192.475 28.0889 192.475 134c0 27.7305 -0.474609 52.709 -0.474609 92c0 40.4971 -14 78 -69 90c26.2812 6.57324 43 33.3887 43 78c0 41.5947 1 27.0098 1 79c0 105.055 -49 141 -185 141h-435v-111h435c47.999 0.112305 73 -7.06836 73 -30
c0 -48.541 -0.735352 -54.9893 -0.735352 -79c0 -16.3076 -20.2666 -22.7607 -72.2646 -23h-435v-111h435c67.9971 0.3125 98 -10.1523 98 -34c0 -46.4092 0.118164 -72.6484 0.118164 -92c0 -19.1807 -31.1377 -22.8916 -80.1182 -23h-453v-111z" />
    <glyph glyph-name="D.ss01" horiz-adv-x="840" 
d="M65 0h541c115 0 162 65.9844 162 176v273c0 120.051 -78.3965 165 -179 165h-524v-111c1.94531 0.132812 521 0 540 0c17.623 0 52 -21.9863 52 -54v-273c0 -32.3262 -17.9873 -65 -39 -65h-553v-111z" />
    <glyph glyph-name="E.ss01" horiz-adv-x="816" 
d="M65 374h623v-111h-623v111zM65 0h686v111h-686v-111zM65 614h662v-111h-662v111z" />
    <glyph glyph-name="F.ss01" horiz-adv-x="748" 
d="M65 210h586v111h-586v-111zM65 503h618v111h-618v-111z" />
    <glyph glyph-name="P.ss01" horiz-adv-x="724" 
d="M65 614h436c101.263 0 158 -48.0234 158 -158v-111c0 -117.549 -49 -158 -164 -158h-430v111h436c26.0488 0 47 18.29 47 47v111c0 25.0146 -19.1553 47.0469 -40 47h-443v111z" />
    <glyph glyph-name="R.ss01" horiz-adv-x="743" 
d="M65 614h438c101.263 0 158 -48.0234 158 -158v-89c0 -51.3721 -9.3584 -88.0195 -29.4951 -113c18.3887 -10.1689 39.4951 -47.3633 39.4951 -124c0 -44.0908 -0.521484 -0.00488281 0 -95c0.0673828 -11.1191 0 -35 0 -35h-121v36v94c0 33.9639 -22.9883 79 -53 79h-432
v111h438c26.0488 0 47 18.29 47 47v89c0 25.0146 -19.1523 47 -40 47h-445v111z" />
    <glyph glyph-name="b.ss01" horiz-adv-x="776" 
d="M65 0h453c141 0 192.475 28.0889 192.475 134c0 27.7305 -0.474609 52.709 -0.474609 92c0 40.4971 -14 78 -69 90c26.2812 6.57324 43 33.3887 43 78c0 41.5947 1 27.0098 1 79c0 105.055 -49 141 -185 141h-435v-111h435c47.999 0.112305 73 -7.06836 73 -30
c0 -48.541 -0.735352 -54.9893 -0.735352 -79c0 -16.3076 -20.2666 -22.7607 -72.2646 -23h-435v-111h435c67.9971 0.3125 98 -10.1523 98 -34c0 -46.4092 0.118164 -72.6484 0.118164 -92c0 -19.1807 -31.1377 -22.8916 -80.1182 -23h-453v-111z" />
    <glyph glyph-name="d.ss01" horiz-adv-x="840" 
d="M65 0h541c115 0 162 65.9844 162 176v273c0 120.051 -78.3965 165 -179 165h-524v-111c1.94531 0.132812 521 0 540 0c17.623 0 52 -21.9863 52 -54v-273c0 -32.3262 -17.9873 -65 -39 -65h-553v-111z" />
    <glyph glyph-name="e.ss01" horiz-adv-x="816" 
d="M65 374h623v-111h-623v111zM65 0h686v111h-686v-111zM65 614h662v-111h-662v111z" />
    <glyph glyph-name="f.ss01" horiz-adv-x="748" 
d="M65 210h586v111h-586v-111zM65 503h618v111h-618v-111z" />
    <glyph glyph-name="p.ss01" horiz-adv-x="724" 
d="M65 614h436c101.263 0 158 -48.0234 158 -158v-111c0 -117.549 -49 -158 -164 -158h-430v111h436c26.0488 0 47 18.29 47 47v111c0 25.0146 -19.1553 47.0469 -40 47h-443v111z" />
    <glyph glyph-name="r.ss01" horiz-adv-x="743" 
d="M65 614h438c101.263 0 158 -48.0234 158 -158v-89c0 -51.3721 -9.3584 -88.0195 -29.4951 -113c18.3887 -10.1689 39.4951 -47.3633 39.4951 -124c0 -44.0908 -0.521484 -0.00488281 0 -95c0.0673828 -11.1191 0 -35 0 -35h-121v36v94c0 33.9639 -22.9883 79 -53 79h-432
v111h438c26.0488 0 47 18.29 47 47v89c0 25.0146 -19.1523 47 -40 47h-445v111z" />
    </font>
</defs>
</svg>
